<?xml version="1.0" encoding="UTF-8"?>
<svg width="336px" height="303px" viewBox="0 0 336 303" version="1.1" xmlns="http://www.w3.org/2000/svg" xmlns:xlink="http://www.w3.org/1999/xlink">
    <!-- Generator: Sketch 54 (76480) - https://sketchapp.com -->
    <title>biblioteca</title>
    <desc>Created with Sketch.</desc>
    <defs>
        <rect id="path-1" x="0.22" y="0" width="335.13" height="209.69"></rect>
    </defs>
    <g id="Page-1" stroke="none" stroke-width="1" fill="none" fill-rule="evenodd">
        <g id="home-copy" transform="translate(-814.000000, -299.000000)">
            <g id="biblioteca" transform="translate(814.000000, 299.000000)">
                <g id="Group-33">
                    <g id="Group-31" transform="translate(0.220000, 72.090000)" fill-rule="nonzero">
                        <rect id="Rectangle" fill="#8E2B1C" x="5.68434189e-14" y="20.28" width="335.13" height="209.69"></rect>
                        <rect id="Rectangle" fill="#71281C" opacity="0.55" transform="translate(167.575000, 36.435000) rotate(180.000000) translate(-167.575000, -36.435000) " x="0.01" y="31.49" width="335.13" height="9.89"></rect>
                        <rect id="Rectangle" fill="#71281C" transform="translate(167.575000, 16.510000) rotate(180.000000) translate(-167.575000, -16.510000) " x="0.01" y="-1.0658141e-14" width="335.13" height="33.02"></rect>
                    </g>
                    <g id="Group" transform="translate(0.000000, 92.370000)">
                        <mask id="mask-2" fill="white">
                            <use xlink:href="#path-1"></use>
                        </mask>
                        <use id="Mask" fill="#8E2B1C" fill-rule="nonzero" xlink:href="#path-1"></use>
                        <g mask="url(#mask-2)" fill="#F5E7E0" fill-rule="nonzero" id="Shape">
                            <g transform="translate(-9.000000, 87.540000)">
                                <path d="M0.405,115.18 L0.53,115.055 L349.96,115.055 L350.085,115.18 L350.085,122.37 L349.96,122.495 L0.53,122.495 L0.405,122.37 L0.405,115.18 Z M0.655,115.305 L0.655,122.245 L349.835,122.245 L349.835,115.305 L0.655,115.305 Z M0.455,101.72 L0.58,101.595 L350.01,101.595 L350.135,101.72 L350.135,108.91 L350.01,109.035 L0.58,109.035 L0.455,108.91 L0.455,101.72 Z M0.705,108.785 L349.885,108.785 L349.885,101.845 L0.705,101.845 L0.705,108.785 Z M0.405,87.13 L0.53,87.005 L349.96,87.005 L350.085,87.13 L350.085,94.32 L349.96,94.445 L0.53,94.445 L0.405,94.32 L0.405,87.13 Z M0.655,87.255 L0.655,94.195 L349.835,94.195 L349.835,87.255 L0.655,87.255 Z M0.455,72.84 L0.58,72.715 L350.01,72.715 L350.135,72.84 L350.135,80.03 L350.01,80.155 L0.58,80.155 L0.455,80.03 L0.455,72.84 Z M0.705,72.965 L0.705,79.905 L349.885,79.905 L349.885,72.965 L0.705,72.965 Z M0.405,58.64 L0.53,58.515 L349.96,58.515 L350.085,58.64 L350.085,65.83 L349.96,65.955 L0.53,65.955 L0.405,65.83 L0.405,58.64 Z M0.655,65.705 L349.835,65.705 L349.835,58.765 L0.655,58.765 L0.655,65.705 Z M0.405,44.25 L0.53,44.125 L349.96,44.125 L350.085,44.25 L350.085,51.44 L349.96,51.565 L0.53,51.565 L0.405,51.44 L0.405,44.25 Z M0.655,44.375 L0.655,51.315 L349.835,51.315 L349.835,44.375 L0.655,44.375 Z M0.405,29.86 L0.53,29.735 L349.96,29.735 L350.085,29.86 L350.085,37.05 L349.96,37.175 L0.53,37.175 L0.405,37.05 L0.405,29.86 Z M0.655,29.985 L0.655,36.925 L349.835,36.925 L349.835,29.985 L0.655,29.985 Z M0.405,15.47 L0.53,15.345 L349.96,15.345 L350.085,15.47 L350.085,22.66 L349.96,22.785 L0.53,22.785 L0.405,22.66 L0.405,15.47 Z M0.655,15.595 L0.655,22.535 L349.835,22.535 L349.835,15.595 L0.655,15.595 Z M0.405,1.09 L0.53,0.965 L349.96,0.965 L350.085,1.09 L350.085,8.28 L349.96,8.405 L0.53,8.405 L0.405,8.28 L0.405,1.09 Z M0.655,1.215 L0.655,8.155 L349.835,8.155 L349.835,1.215 L0.655,1.215 Z"></path>
                            </g>
                        </g>
                    </g>
                    <rect id="Rectangle" fill="#DEB093" fill-rule="nonzero" x="78.9" y="255.72" width="31.29" height="46.57"></rect>
                    <rect id="Rectangle" fill="#F2DCB6" fill-rule="nonzero" x="84.26" y="102.44" width="20.58" height="153.28"></rect>
                    <rect id="Rectangle" fill="#F2DCB6" fill-rule="nonzero" x="226.05" y="102.44" width="20.58" height="153.28"></rect>
                    <rect id="Rectangle" fill="#DEB093" fill-rule="nonzero" x="220.69" y="255.72" width="31.29" height="46.57"></rect>
                    <g id="Group-32" transform="translate(52.280000, 0.000000)" fill-rule="nonzero">
                        <path d="M14.79,70.82 L112.69,1.75 L210.84,70.82 L210.83,106.51 L14.79,106.51 L14.79,70.82 Z" id="Combined-Shape" fill="#F2DCB6"></path>
                        <path d="M112.81,0 L225.63,77.06 L221.22,82.72 L112.81,8.8 L4.41,82.72 L0,77.06 L112.81,0 Z" id="Combined-Shape" fill="#54110F"></path>
                        <rect id="Rectangle" fill="#DCB292" opacity="0.67" x="55.63" y="69.93" width="113.45" height="25.62"></rect>
                        <g id="Group-30" transform="translate(78.970000, 77.481007)" fill="#54110F">
                            <path d="M0,0.278993461 C0.796120001,0.144403114 1.60262474,0.0808197527 2.41,0.0889934613 C3.30984019,0.00234480023 4.21382052,0.205565183 4.99,0.668993461 C5.59125576,1.01563675 5.952628,1.6653379 5.93,2.35899346 C5.90604333,3.26559677 5.30012584,4.05328951 4.43,4.30899346 L4.43,4.30899346 C5.49434808,4.52423495 6.25719488,5.46312332 6.25,6.54899346 C6.26669396,7.27372648 5.94511301,7.96494069 5.38,8.41899346 C4.39855378,9.08801169 3.21099331,9.38578804 2.03,9.25899346 C1.36154965,9.25848839 0.693715167,9.21841832 0.03,9.13899346 L0,0.278993461 Z M1.64,3.83899346 L2.49,3.83899346 C3.63,3.83899346 4.27,3.30899346 4.27,2.53899346 C4.27,1.76899346 3.63,1.30899346 2.58,1.30899346 C2.26508175,1.29942908 1.95002813,1.32289052 1.64,1.37899346 L1.64,3.83899346 Z M1.64,7.99899346 C1.92969827,8.01770179 2.22030173,8.01770179 2.51,7.99899346 C3.57,7.99899346 4.51,7.59899346 4.51,6.48899346 C4.51,5.37899346 3.6,5.00899346 2.51,5.00899346 L1.69,5.00899346 L1.64,7.99899346 Z" id="Shape"></path>
                            <polygon id="Path" points="9.38 0.158993461 9.38 9.15899346 7.75 9.15899346 7.75 0.158993461"></polygon>
                            <path d="M11.27,0.278993461 C12.0626919,0.143884272 12.8659233,0.0802951237 13.67,0.0889934613 C14.5698402,0.00234480023 15.4738205,0.205565183 16.25,0.668993461 C16.8512558,1.01563675 17.212628,1.6653379 17.19,2.35899346 C17.1660433,3.26559677 16.5601258,4.05328951 15.69,4.30899346 L15.69,4.30899346 C16.75617,4.5236415 17.5223125,5.46143341 17.52,6.54899346 C17.5327406,7.27511054 17.2076218,7.96598809 16.64,8.41899346 C15.6585538,9.08801169 14.4709933,9.38578804 13.29,9.25899346 C12.6215245,9.25932388 11.9536402,9.21925081 11.29,9.13899346 L11.27,0.278993461 Z M12.9,3.83899346 L13.75,3.83899346 C14.89,3.83899346 15.53,3.30899346 15.53,2.53899346 C15.53,1.76899346 14.89,1.30899346 13.84,1.30899346 C13.5250818,1.29942908 13.2100281,1.32289052 12.9,1.37899346 L12.9,3.83899346 Z M12.9,7.99899346 C13.1896983,8.01770179 13.4803017,8.01770179 13.77,7.99899346 C14.83,7.99899346 15.77,7.59899346 15.77,6.48899346 C15.77,5.37899346 14.86,5.00899346 13.77,5.00899346 L12.95,5.00899346 L12.9,7.99899346 Z" id="Shape"></path>
                            <polygon id="Path" points="18.99 0.158993461 20.64 0.158993461 20.64 7.80899346 24.35 7.80899346 24.35 9.19899346 18.99 9.19899346"></polygon>
                            <polygon id="Path" points="27.25 0.158993461 27.25 9.15899346 25.6 9.15899346 25.6 0.158993461"></polygon>
                            <path d="M37.16,4.57899346 C37.16,7.57899346 35.32,9.33899346 32.82,9.33899346 C30.32,9.33899346 28.67,7.39899346 28.67,4.73899346 C28.67,2.07899346 30.41,0.00899346132 32.96,0.00899346132 C35.51,0.00899346132 37.16,2.00899346 37.16,4.57899346 Z M30.41,4.71899346 C30.41,6.54899346 31.34,8.01899346 32.92,8.01899346 C34.5,8.01899346 35.41,6.53899346 35.41,4.64899346 C35.41,2.94899346 34.57,1.33899346 32.92,1.33899346 C31.27,1.33899346 30.41,2.84899346 30.41,4.71899346 L30.41,4.71899346 Z" id="Shape"></path>
                            <polygon id="Path" points="39.94 1.53899346 37.37 1.53899346 37.37 0.158993461 44.19 0.158993461 44.19 1.53899346 41.59 1.53899346 41.59 9.19899346 39.94 9.19899346"></polygon>
                            <polygon id="Path" points="50.31 5.18899346 46.9 5.18899346 46.9 7.83899346 50.75 7.83899346 50.75 9.19899346 45.25 9.19899346 45.25 0.198993461 50.51 0.198993461 50.51 1.54899346 46.9 1.54899346 46.9 3.87899346 50.31 3.87899346"></polygon>
                            <path d="M58.63,8.92899346 C57.8894225,9.22227241 57.0959886,9.35848424 56.3,9.32899346 C55.0578421,9.43415694 53.8317554,8.99124645 52.943572,8.11652036 C52.0553886,7.24179427 51.5938119,6.02261202 51.68,4.77899346 C51.6147662,3.48440792 52.1047872,2.22345507 53.0270694,1.31262978 C53.9493516,0.401804495 55.216331,-0.0724169336 56.51,0.00899346132 C57.2635716,-0.0175166304 58.0139885,0.118922799 58.71,0.408993461 L58.35,1.72899346 C57.7908576,1.49018952 57.18795,1.37097051 56.58,1.37899346 C55.6965649,1.32359589 54.8337583,1.66116913 54.2224779,2.30137445 C53.6111975,2.94157977 53.3138466,3.81906103 53.41,4.69899346 C53.3330268,5.56725001 53.6374949,6.42605416 54.2441787,7.0519368 C54.8508625,7.67781944 55.6997673,8.00888735 56.57,7.95899346 C57.1826686,7.96904805 57.7911943,7.85686174 58.36,7.62899346 L58.63,8.92899346 Z" id="Path"></path>
                            <path d="M61.94,6.62899346 L61.16,9.19899346 L59.46,9.19899346 L62.36,0.198993461 L64.46,0.198993461 L67.4,9.19899346 L65.63,9.19899346 L64.81,6.62899346 L61.94,6.62899346 Z M64.53,5.38899346 L63.82,3.15899346 C63.64,2.60899346 63.5,1.98899346 63.36,1.46899346 L63.36,1.46899346 C63.22,1.98899346 63.09,2.61899346 62.93,3.15899346 L62.23,5.38899346 L64.53,5.38899346 Z" id="Shape"></path>
                        </g>
                    </g>
                    <g id="Group-22" transform="translate(118.020000, 135.730000)" fill-rule="nonzero">
                        <rect id="Rectangle" stroke="#BA533E" fill="#F5E7E0" x="0.43" y="0.5" width="23.83" height="33.46"></rect>
                        <path d="M1,16.73 L11.883963,16.73 L11.8510452,1 L1,1 L1,16.73 Z M1,17.73 L1,33.46 L11.9189735,33.46 L11.8860557,17.73 L1,17.73 Z M23.83,16.73 L23.83,1 L12.8510496,1 L12.8839663,16.73 L23.83,16.73 Z M23.83,17.73 L12.886059,17.73 L12.9189757,33.46 L23.83,33.46 L23.83,17.73 Z M-1.13686838e-13,-5.68434189e-14 L24.83,-5.68434189e-14 L24.83,34.46 L-1.13686838e-13,34.46 L-1.13686838e-13,-5.68434189e-14 Z" id="Combined-Shape" fill="#BA533E"></path>
                    </g>
                    <g id="Group-23" transform="translate(152.720000, 135.730000)" fill-rule="nonzero">
                        <rect id="Rectangle" stroke="#BA533E" fill="#F5E7E0" x="0.42" y="0.5" width="23.83" height="33.46"></rect>
                        <path d="M1,16.73 L11.873963,16.73 L11.8410452,1 L1,1 L1,16.73 L1,16.73 Z M1,17.73 L1,33.46 L11.9089735,33.46 L11.8760557,17.73 L1,17.73 Z M23.83,16.73 L23.83,1 L12.8410496,1 L12.8739663,16.73 L23.83,16.73 Z M23.83,17.73 L12.876059,17.73 L12.9089757,33.46 L23.83,33.46 L23.83,17.73 Z M0,0 L24.83,0 L24.83,34.46 L0,34.46 L0,0 Z" id="Shape" fill="#BA533E"></path>
                    </g>
                    <g id="Group-24" transform="translate(189.570000, 135.730000)" fill-rule="nonzero">
                        <rect id="Rectangle" stroke="#BA533E" fill="#F5E7E0" x="0.43" y="0.5" width="23.83" height="33.46"></rect>
                        <path d="M1,16.73 L11.8788147,16.73 L11.8411944,1 L1,1 L1,16.73 Z M1,17.73 L1,33.46 L11.9188267,33.46 L11.8812063,17.73 L1,17.73 L1,17.73 Z M23.83,16.73 L23.83,1 L12.8412001,1 L12.878819,16.73 L23.83,16.73 Z M23.83,17.73 L12.8812106,17.73 L12.9188296,33.46 L23.83,33.46 L23.83,17.73 Z M0,0 L24.83,0 L24.83,34.46 L0,34.46 L0,0 Z" id="Shape" fill="#BA533E"></path>
                    </g>
                    <g id="Group-28" transform="translate(264.050000, 217.690000)" fill-rule="nonzero">
                        <rect id="Rectangle" stroke="#BA533E" fill="#F5E7E0" x="0.42" y="0.5" width="23.83" height="47.8"></rect>
                        <path d="M1,23.9 L11.8742672,23.9 L11.8407317,1 L1,1 L1,23.9 Z M1,24.9 L1,47.8 L11.9092672,47.8 L11.8757317,24.9 L1,24.9 Z M23.83,23.9 L23.83,1 L12.8407338,1 L12.8742689,23.9 L23.83,23.9 Z M23.83,24.9 L12.8757333,24.9 L12.9092683,47.8 L23.83,47.8 L23.83,24.9 Z M0,0 L24.83,0 L24.83,48.8 L0,48.8 L0,0 Z" id="Shape" fill="#BA533E"></path>
                    </g>
                    <g id="Group-29" transform="translate(297.450000, 217.690000)" fill-rule="nonzero">
                        <rect id="Rectangle" stroke="#BA533E" fill="#F5E7E0" x="0.43" y="0.5" width="23.83" height="47.8"></rect>
                        <path d="M1,23.9 L11.8791625,23.9 L11.8408361,1 L1,1 L1,23.9 Z M1,24.9 L1,47.8 L11.9191625,47.8 L11.8808361,24.9 L1,24.9 Z M23.83,23.9 L23.83,1 L12.8408389,1 L12.8791646,23.9 L23.83,23.9 L23.83,23.9 Z M23.83,24.9 L12.8808382,24.9 L12.9191639,47.8 L23.83,47.8 L23.83,24.9 L23.83,24.9 Z M0,0 L24.83,0 L24.83,48.8 L0,48.8 L0,0 Z" id="Shape" fill="#BA533E"></path>
                    </g>
                    <g id="Group-26" transform="translate(265.290000, 146.630000)" fill-rule="nonzero">
                        <rect id="Rectangle" stroke="#BA533E" fill="#F5E7E0" x="0.43" y="0.5" width="23.83" height="47.8"></rect>
                        <path d="M1,23.9 L11.8791625,23.9 L11.8408361,1 L1,1 L1,23.9 Z M1,24.9 L1,47.8 L11.9191625,47.8 L11.8808361,24.9 L1,24.9 Z M23.83,23.9 L23.83,1 L12.8408389,1 L12.8791646,23.9 L23.83,23.9 Z M23.83,24.9 L12.8808382,24.9 L12.9191639,47.8 L23.83,47.8 L23.83,24.9 Z M0,0 L24.83,0 L24.83,48.8 L0,48.8 L0,0 Z" id="Shape" fill="#BA533E"></path>
                    </g>
                    <g id="Group-27" transform="translate(298.700000, 146.630000)" fill-rule="nonzero">
                        <rect id="Rectangle" stroke="#BA533E" fill="#F5E7E0" x="0.42" y="0.5" width="23.83" height="47.8"></rect>
                        <path d="M1,23.9 L11.8742672,23.9 L11.8407317,1 L1,1 L1,23.9 Z M1,24.9 L1,47.8 L11.9092672,47.8 L11.8757317,24.9 L1,24.9 Z M23.83,23.9 L23.83,1 L12.8407338,1 L12.8742689,23.9 L23.83,23.9 L23.83,23.9 Z M23.83,24.9 L12.8757333,24.9 L12.9092683,47.8 L23.83,47.8 L23.83,24.9 L23.83,24.9 Z M0,0 L24.83,0 L24.83,48.8 L0,48.8 L0,0 Z" id="Shape" fill="#BA533E"></path>
                    </g>
                    <g id="Group-19" transform="translate(13.190000, 213.530000)" fill-rule="nonzero">
                        <rect id="Rectangle" stroke="#BA533E" fill="#F5E7E0" x="0.43" y="0.5" width="23.83" height="47.8"></rect>
                        <path d="M1,23.91 L11.8842747,23.91 L11.8507315,1 L1,1 L1,23.91 Z M1,24.91 L1,47.8 L11.9192528,47.8 L11.8857388,24.91 L1,24.91 Z M23.83,23.91 L23.83,1 L12.8507337,1 L12.8842763,23.91 L23.83,23.91 Z M23.83,24.91 L12.8857404,24.91 L12.9192538,47.8 L23.83,47.8 L23.83,24.91 Z M0,0 L24.83,0 L24.83,48.8 L0,48.8 L0,0 Z" id="Shape" fill="#BA533E"></path>
                    </g>
                    <g id="Group-18" transform="translate(46.600000, 213.530000)" fill-rule="nonzero">
                        <rect id="Rectangle" stroke="#BA533E" fill="#F5E7E0" x="0.42" y="0.5" width="23.83" height="47.8"></rect>
                        <path d="M1,23.91 L11.8742747,23.91 L11.8407315,1 L1,1 L1,23.91 Z M1,24.91 L1,47.8 L11.9092528,47.8 L11.8757388,24.91 L1,24.91 L1,24.91 Z M23.83,23.91 L23.83,1 L12.8407337,1 L12.8742763,23.91 L23.83,23.91 L23.83,23.91 Z M23.83,24.91 L12.8757404,24.91 L12.9092538,47.8 L23.83,47.8 L23.83,24.91 L23.83,24.91 Z M0,0 L24.83,0 L24.83,48.8 L0,48.8 L0,0 Z" id="Shape" fill="#BA533E"></path>
                    </g>
                    <g id="Group-20" transform="translate(14.440000, 142.480000)" fill-rule="nonzero">
                        <rect id="Rectangle" stroke="#BA533E" fill="#F5E7E0" x="0.43" y="0.5" width="23.83" height="47.8"></rect>
                        <path d="M1,23.9 L11.8791625,23.9 L11.8408361,1 L1,1 L1,23.9 Z M1,24.9 L1,47.8 L11.9191625,47.8 L11.8808361,24.9 L1,24.9 Z M23.83,23.9 L23.83,1 L12.8408389,1 L12.8791646,23.9 L23.83,23.9 Z M23.83,24.9 L12.8808382,24.9 L12.9191639,47.8 L23.83,47.8 L23.83,24.9 Z M-1.13686838e-13,5.68434189e-14 L24.83,5.68434189e-14 L24.83,48.8 L-1.13686838e-13,48.8 L-1.13686838e-13,5.68434189e-14 Z" id="Combined-Shape" fill="#BA533E"></path>
                    </g>
                    <g id="Group-21" transform="translate(47.850000, 142.480000)" fill-rule="nonzero">
                        <rect id="Rectangle" stroke="#BA533E" fill="#F5E7E0" x="0.42" y="0.5" width="23.83" height="47.8"></rect>
                        <path d="M1,23.9 L11.8742672,23.9 L11.8407317,1 L1,1 L1,23.9 Z M1,24.9 L1,47.8 L11.9092672,47.8 L11.8757317,24.9 L1,24.9 Z M23.83,23.9 L23.83,1 L12.8407338,1 L12.8742689,23.9 L23.83,23.9 L23.83,23.9 Z M23.83,24.9 L12.8757333,24.9 L12.9092683,47.8 L23.83,47.8 L23.83,24.9 L23.83,24.9 Z M0,0 L24.83,0 L24.83,48.8 L0,48.8 L0,0 Z" id="Shape" fill="#BA533E"></path>
                    </g>
                    <rect id="Rectangle" fill="#DEB093" fill-rule="nonzero" opacity="0.67" x="84.2" y="106.51" width="20.71" height="9.88"></rect>
                    <rect id="Rectangle" fill="#DEB093" fill-rule="nonzero" opacity="0.67" x="225.99" y="106.46" width="20.71" height="9.88"></rect>
                </g>
                <path d="M206.1,277.11 L215.82,277.11 L215.82,288.41 L225.95,288.41 L225.95,302.7 L104.23,302.7 L104.23,288.41 L114.37,288.41 L114.37,277.11 L124.1,277.11 L124.1,268.8 L206.1,268.8 L206.1,277.11 Z" id="Combined-Shape" fill="#B19394" fill-rule="nonzero"></path>
                <rect id="Rectangle" fill="#C7A9AA" fill-rule="nonzero" x="114.37" y="286.25" width="101.45" height="2.16"></rect>
                <rect id="Rectangle" fill="#C7A9AA" fill-rule="nonzero" x="124.1" y="275.03" width="82" height="2.08"></rect>
                <g id="Group-25" transform="translate(129.900000, 200.830000)" fill-rule="nonzero">
                    <rect id="Rectangle" fill="#54110F" x="0.5" y="0.35" width="68.45" height="67.44"></rect>
                    <path d="M0,0 L69.46,0 L69.46,68.13 L0,68.13 L0,0 Z M34.23,67.13 L34.23,1 L1,1 L1,67.13 L34.23,67.13 L34.23,67.13 Z M35.23,67.13 L68.46,67.13 L68.46,1 L35.23,1 L35.23,67.13 L35.23,67.13 Z" id="Shape" fill="#F4D3B4"></path>
                    <rect id="Rectangle" fill="#F1DA7E" x="28.66" y="26.16" width="1.44" height="25.98"></rect>
                    <rect id="Rectangle" fill="#F1DA7E" x="39.57" y="26.16" width="1.44" height="25.98"></rect>
                </g>
            </g>
        </g>
    </g>
</svg>