<?xml version="1.0" encoding="UTF-8"?>
<svg width="826px" height="610px" viewBox="0 0 826 610" version="1.1" xmlns="http://www.w3.org/2000/svg" xmlns:xlink="http://www.w3.org/1999/xlink">
    <!-- Generator: Sketch 54 (76480) - https://sketchapp.com -->
    <title>image-from-rawpixel-id-477938-original (1)</title>
    <desc>Created with Sketch.</desc>
    <defs>
        <polygon id="path-1" points="0.06 0 1000 0 1000 714 0.06 714"></polygon>
    </defs>
    <g id="Page-1" stroke="none" stroke-width="1" fill="none" fill-rule="evenodd">
        <g id="image-from-rawpixel-id-477938-original-(1)" transform="translate(-101.000000, -67.000000)">
            <mask id="mask-2" fill="white">
                <use xlink:href="#path-1"></use>
            </mask>
            <g id="Clip-2"></g>
            <path d="M779.532,676.152 C774.659,676.152 769.758,675.951 764.803,675.461 C745.87,673.59 726.679,672.654 707.841,669.982 C664.605,663.852 621.352,663.488 577.802,663.488 C560.513,663.488 543.225,663.317 525.94,663.317 C500.767,663.317 475.602,663.68 450.478,665.461 C411.294,668.239 372.049,668.683 332.794,668.683 C326.865,668.683 320.93,668.673 315,668.659 C314.616,668.658 314.234,668.658 313.849,668.658 C292.114,668.658 270.462,670.076 248.76,671.079 C226.957,672.086 205.755,673.739 184.08,673.739 C182.124,673.739 180.164,673.726 178.199,673.697 C156.54,673.382 123.561,666.696 108.108,649.658 C98.934,639.535 100.178,615.181 109.366,605.42 C113.379,601.156 119.85,597.816 125.136,595.785 C140.192,589.997 155.515,589.983 171.249,589.863 C171.442,589.862 171.636,589.861 171.83,589.861 C182.686,589.861 193.973,592.18 204.376,595.4 C213.843,598.33 223.515,599.357 233.143,601.182 C241.022,602.674 249.453,603.389 257.789,603.389 C263.214,603.389 268.599,603.086 273.766,602.498 C287.745,600.907 301.824,600.167 315.844,598.913 C333.254,597.356 350.292,593.98 367.642,592.171 C376.327,591.266 384.811,589.02 393.477,587.998 C416.459,585.29 439.483,584.704 462.507,584.631 C464.353,584.625 466.198,584.623 468.044,584.623 C479.025,584.623 490.008,584.71 500.983,584.71 C509.895,584.71 518.799,584.682 527.706,584.682 C558.179,584.682 588.629,585.013 619.02,587.94 C628.438,588.848 637.794,588.299 647.081,590.458 C656.405,592.626 665.818,594.604 675.371,594.99 C683.544,595.32 691.742,595.429 699.948,595.429 C714.546,595.429 729.17,595.085 743.72,595.028 C745.176,595.023 747.201,595.013 749.714,595.013 C782.271,595.013 895.737,596.596 887.598,628.67 C884.471,640.994 866.29,657.034 856.092,662.197 C843.209,668.72 829.121,672.578 814.94,673.879 C802.987,674.975 791.335,676.152 779.532,676.152" id="Fill-4" fill="#F6EAEA" mask="url(#mask-2)"></path>
            <polyline id="Fill-5" fill="#B97262" mask="url(#mask-2)" points="277.501 262.638 275.738 250.731 280.794 249.755 283.807 257.642 285.984 256.071 286.251 266.444 281.132 268.167 277.501 262.638"></polyline>
            <polyline id="Fill-6" fill="#8CABEF" mask="url(#mask-2)" points="353.985 324.505 308.437 312.654 287.338 262.901 277.355 266.84 289.247 331.102 341.715 358.128 353.985 324.505"></polyline>
            <polyline id="Fill-7" fill="#D67086" mask="url(#mask-2)" points="744.574 319.322 701.417 350.815 663.782 334.555 658.26 344.708 686.763 364.121 702.74 370.093 744.574 349.952 744.574 319.322"></polyline>
            <path d="M774.298,122.473 L906.471,133.458 C918.705,134.475 927.798,145.217 926.781,157.451 L919.7,242.648 C918.688,254.833 908.025,263.912 895.835,262.97 L874.585,261.327 L847.546,293.288 C846.756,294.222 845.232,293.604 845.315,292.384 L847.584,259.083 L763.489,251.895 C751.278,250.851 742.216,240.12 743.23,227.906 L750.306,142.784 C751.322,130.55 762.064,121.457 774.298,122.473" id="Fill-8" fill="#5D66D3" mask="url(#mask-2)"></path>
            <polyline id="Fill-9" fill="#FFFFEE" mask="url(#mask-2)" points="775.066 152.778 880.634 161.783 881.01 157.384 775.441 148.379 775.066 152.778"></polyline>
            <polyline id="Fill-10" fill="#FFFFEE" mask="url(#mask-2)" points="772.205 186.317 898.117 197.058 898.492 192.66 772.581 181.919 772.205 186.317"></polyline>
            <polyline id="Fill-11" fill="#FFFFEE" mask="url(#mask-2)" points="769.345 219.857 895.256 230.598 895.631 226.199 769.72 215.458 769.345 219.857"></polyline>
            <polyline id="Fill-12" fill="#AEAEAF" mask="url(#mask-2)" points="676.255 468.15 678.788 526.896 671.363 626.783 660.253 627.573 646.755 536.852 628.081 460.083 676.255 468.15"></polyline>
            <polyline id="Fill-13" fill="#3B3387" mask="url(#mask-2)" points="660.649 632.253 673.091 637.406 678.671 630.973 672.237 625.393 660.223 626.246 660.649 632.253"></polyline>
            <polyline id="Fill-14" fill="#AEAEAF" mask="url(#mask-2)" points="597.607 447.362 595.17 491.767 602.404 623.8 613.528 624.355 630.2 537.76 644.905 442.795 597.607 447.362"></polyline>
            <polyline id="Fill-15" fill="#3B3387" mask="url(#mask-2)" points="613.229 629.044 600.899 634.457 595.186 628.142 601.501 622.428 613.53 623.028 613.229 629.044"></polyline>
            <path d="M662.289,316.549 L627.575,312.83 C627.575,312.83 608.264,314.894 595.16,360.756 C587.87,386.271 585.651,426.472 585.117,457.119 C585.937,461.491 590.7,480.641 610.84,477.393 C645.426,471.814 663.835,466.236 678.896,469.025 C691.727,471.814 690.642,454.149 689.231,440.669 L684.119,398.959 L662.289,316.549" id="Fill-16" fill="#353A85" mask="url(#mask-2)"></path>
            <path d="M655.585,273.339 C646.836,271.41 637.83,269.682 629.071,271.417 C627.153,271.796 625.094,272.464 624.054,274.12 C623.65,274.761 623.437,275.501 623.24,276.233 C621.029,284.449 618.226,296.629 623.635,304.199 C624.666,305.643 626.052,306.789 627.54,307.719 C629.53,308.962 631.733,309.808 634.012,310.258 C633.541,312.301 632.885,314.301 632.053,316.226 C634.056,319.245 643.399,319.607 645.127,316.712 C645.224,314.207 645.32,311.701 645.417,309.195 C646.555,308.736 647.653,308.177 648.686,307.498 C652.679,304.868 655.31,300.876 656.838,296.411 C658.502,291.549 660.844,286.927 662.364,281.972 C662.918,280.167 663.354,278.106 662.405,276.474 C661.394,274.737 659.212,274.146 657.249,273.708 C656.695,273.585 656.141,273.461 655.585,273.339" id="Fill-17" fill="#B97262" mask="url(#mask-2)"></path>
            <path d="M626.463,278.037 C630.787,275.255 637.275,274.058 641.342,274.353 C653.636,275.243 658.14,284.271 658.796,295.575 C662.183,291.271 668.538,285.856 668.922,280.317 C669.236,275.783 668.609,269.601 666.069,265.685 C663.692,262.021 657.615,260.009 654.001,257.886 C650.594,255.885 647.188,253.884 643.78,251.882 C643.072,251.466 642.344,251.042 641.534,250.902 C640.576,250.736 639.601,250.98 638.659,251.224 C630.607,253.305 622.556,255.386 614.503,257.467 C612.956,257.867 611.194,258.451 610.624,259.943 C610.277,260.852 610.481,261.866 610.689,262.815 C611.604,266.995 613.358,271.268 613.793,275.502 C614.284,277.962 615.751,290.571 620.107,289.116 C621.387,287.024 621.578,284.448 622.574,282.208 C623.311,280.553 624.709,279.165 626.463,278.037" id="Fill-18" fill="#322E7F" mask="url(#mask-2)"></path>
            <polyline id="Fill-19" fill="#353A85" mask="url(#mask-2)" points="627.575 312.83 614.745 316.734 567.887 365.824 565.098 382.002 587.498 418.988 593.547 405.432 584.063 378.098 599.126 367.498 619.208 322.313 627.575 312.83"></polyline>
            <polyline id="Fill-20" fill="#292949" mask="url(#mask-2)" points="549.514 616.543 550.42 623.59 537.231 632.449 529.278 626.308 535.42 618.354 548.607 609.495 549.514 616.543"></polyline>
            <polyline id="Fill-21" fill="#292949" mask="url(#mask-2)" points="549.96 614.177 539.789 524.301 552.026 423.685 549.274 402.282 494.616 400.206 492.644 435.041 501.819 524.438 536.34 618.77 549.96 614.177"></polyline>
            <polyline id="Fill-22" fill="#3B3387" mask="url(#mask-2)" points="489.485 300.763 461.992 308.251 430.195 364.593 445.257 378.539 466.455 353.436 489.485 300.763"></polyline>
            <polyline id="Fill-23" fill="#292949" mask="url(#mask-2)" points="454.51 410.277 454.366 500.974 472.622 617.73 485.762 617.599 492.985 509.627 509.89 401.558 454.51 410.277"></polyline>
            <polyline id="Fill-24" fill="#292949" mask="url(#mask-2)" points="485.742 623.141 471.603 630.388 464.427 623.354 471.461 616.178 485.671 616.036 485.742 623.141"></polyline>
            <path d="M557.683,441.124 C557.558,437.193 557.339,433.913 557.308,432.742 C557.026,422.199 556.087,411.68 554.767,401.211 C553.584,391.83 552.091,368.541 550.485,359.218 C549.16,351.521 544.541,332.307 541.203,325.166 C532.904,307.41 535.469,305.77 499.011,300.498 C483.033,298.187 479.256,308.145 466.193,319.596 C464.905,320.725 464.976,327.449 464.677,329.23 C464.151,332.366 463.587,335.496 462.94,338.612 C462.432,341.062 461.872,343.503 461.242,345.928 L461.244,345.927 C461.244,345.927 450.277,395.832 443.025,406.431 C435.773,417.029 420.792,431.847 445.853,440.895 C450.294,442.33 454.763,443.696 459.386,444.427 C459.386,444.427 479.882,442.148 490.423,442.228 C500.131,442.3 509.879,443.282 519.423,444.928 C525.805,445.995 532.317,447.545 538.026,450.527 C543.473,453.372 547.404,457.558 552.931,460.503 C553.454,460.782 554.028,461.071 554.623,460.988 C557.797,460.549 557.946,449.396 557.683,441.124" id="Fill-25" fill="#3B3387" mask="url(#mask-2)"></path>
            <path d="M533.232,210.43 C533.232,210.43 528.008,207.839 528.031,207.17 C528.055,206.501 528.933,197.049 528.933,197.049 L532.357,195.093 L533.797,191.065 C533.797,191.065 529.885,184.216 530.604,182.203 C531.323,180.188 536.545,189.094 536.545,189.094 L538.457,194.547 L538.945,203.352 L533.232,210.43" id="Fill-26" fill="#EFBFA5" mask="url(#mask-2)"></path>
            <polyline id="Fill-27" fill="#EFBFA5" mask="url(#mask-2)" points="477.559 345.392 488.246 337.246 484.963 332.527 476.41 336.484 475.894 333.532 467.598 341.615 470.347 346.982 477.559 345.392"></polyline>
            <polyline id="Fill-28" fill="#3B3387" mask="url(#mask-2)" points="476.204 348.269 467.632 337.068 438.122 354.865 445.396 378.626 476.204 348.269"></polyline>
            <path d="M498.969,305.505 C500.809,306.414 505.15,306.739 509.68,304.965 C510.592,304.608 511.208,303.728 511.195,302.748 C511.159,299.997 510.938,297.248 510.533,294.527 C513.931,293.333 517.855,291.542 518.447,287.989 C518.634,286.871 518.44,285.728 518.247,284.61 C517.449,279.99 516.65,275.37 515.853,270.75 C515.576,269.151 515.282,267.507 514.413,266.138 C512.889,263.735 509.929,262.684 507.126,262.197 C499.971,260.956 492.175,262.505 486.628,267.191 C485.151,268.438 483.816,269.938 483.166,271.757 C482.162,274.563 482.913,277.658 483.669,280.54 C484.368,283.2 485.066,285.86 485.765,288.52 C486.568,291.58 487.728,295.058 490.676,296.206 C492.241,296.814 494.089,296.637 495.506,297.538 C498.006,299.127 497.669,302.844 498.969,305.505" id="Fill-29" fill="#EFBFA5" mask="url(#mask-2)"></path>
            <path d="M457.677,259.429 C456.975,258.275 456.218,257.162 455.371,256.117 C453.536,253.855 451.275,251.917 449.799,249.406 C448.323,246.896 447.804,243.493 449.575,241.181 C450.718,239.689 452.573,238.943 454.376,238.413 C460.317,236.665 466.729,236.546 472.731,238.074 C478.447,239.529 483.563,241.938 489.318,239.789 C494.725,237.77 498.63,238.593 504.28,240.609 C510.396,242.791 518.604,243.305 524.14,246.386 C526.451,247.672 528.296,249.682 529.733,251.903 C534.715,259.596 534.742,270.203 529.801,277.922 C528.692,279.654 527.366,281.236 525.973,282.748 C523.088,285.876 519.637,289.741 515.668,290.9 C515.573,287.35 518.808,276.156 516.081,273.246 C511.754,268.628 501.971,270.239 496.604,271.376 C490.749,272.616 485.53,276.762 479.725,277.648 C475.548,278.286 470.217,276.237 466.666,274.079 C462.283,271.412 460.242,263.64 457.677,259.429" id="Fill-30" fill="#292949" mask="url(#mask-2)"></path>
            <polyline id="Fill-31" fill="#3B3387" mask="url(#mask-2)" points="519.214 303.942 547.316 289.159 528.031 210.43 541.315 203.252 574.881 289.159 538.945 332.527 519.214 303.942"></polyline>
            <polyline id="Fill-32" fill="#292949" mask="url(#mask-2)" points="312.881 621.745 312.274 627.711 323.601 634.891 330.173 629.53 324.813 622.958 313.487 615.779 312.881 621.745"></polyline>
            <polyline id="Fill-33" fill="#353A85" mask="url(#mask-2)" points="312.443 439.743 310.601 457.862 326.779 538.835 312.452 619.759 324.046 623.329 361.533 527.112 363.589 497.697 358.512 436.765 312.443 439.743"></polyline>
            <polyline id="Fill-34" fill="#353A85" mask="url(#mask-2)" points="400.309 445.911 400.681 522.459 385.595 621.052 374.504 620.978 368.11 529.868 353.544 438.704 400.309 445.911"></polyline>
            <polyline id="Fill-35" fill="#292949" mask="url(#mask-2)" points="374.537 625.654 386.49 631.731 392.527 625.775 386.57 619.738 374.577 619.658 374.537 625.654"></polyline>
            <path d="M409.655,434.677 C401.655,409.892 400.802,383.867 398.475,358.048 C397.785,350.431 397.052,342.645 393.881,335.685 C390.24,327.691 384.22,323.473 377.208,321.168 C368.282,318.234 357.748,318.403 348.467,317.838 C339.661,317.561 331.871,350.664 322.888,366.711 C317.383,376.545 311.711,385.243 307.998,395.971 C304.434,406.266 301.012,416.743 298.938,427.455 C295.808,443.628 287.802,454.921 295.448,460.423 C296.149,460.654 296.824,460.884 297.465,461.113 C310.007,465.606 322.985,468.932 336.2,470.677 C347.923,472.224 359.83,472.506 371.602,471.345 C387.715,469.757 403.327,467.48 417.532,459.077 C414.906,450.944 412.281,442.811 409.655,434.677" id="Fill-36" fill="#8CABEF" mask="url(#mask-2)"></path>
            <path d="M344.159,293.2 C349.175,278.055 371.277,272.78 376.415,290.382 C377.958,295.671 378.888,301.283 377.838,306.692 C376.789,312.102 373.483,317.292 368.438,319.509 L368.352,319.545 C368.549,320.948 368.746,322.352 368.943,323.756 C368.985,324.058 369.021,324.391 368.851,324.644 C368.658,324.932 368.275,325.007 367.932,325.058 C366.256,325.308 364.58,325.558 362.904,325.808 C362.074,325.932 361.208,326.054 360.409,325.798 C358.658,325.237 357.93,323.139 357.853,321.302 C357.834,320.863 357.839,320.419 357.846,319.975 C347.928,316.577 340.879,303.1 344.159,293.2" id="Fill-37" fill="#B97262" mask="url(#mask-2)"></path>
            <path d="M371.085,267.339 C375.133,266.737 378.579,270.662 382.313,272.722 C385.419,274.437 388.941,274.891 392.161,276.312 C395.381,277.732 398.545,280.698 398.613,284.41 C401.876,282.712 405.41,280.971 409.066,281.675 C412.722,282.38 416.116,286.745 414.66,290.343 C413.355,293.564 409.152,294.323 407.753,297.495 C405.542,302.511 411.522,310.303 407.441,313.63 C406.459,314.43 405.125,314.624 404.16,315.447 C402.963,316.47 402.578,318.227 402.045,319.788 C399.629,326.868 392.493,331.492 385.444,330.546 C381.062,328.492 377.566,324.251 376,319.395 C374.113,313.541 377.245,311.497 377.773,306.002 C378.351,299.997 376.441,293.638 372.661,288.974 C370.2,285.939 366.68,283.324 362.959,282.969 C361.447,282.825 361.923,284.086 360.222,282.916 C359.491,282.414 358.495,280.514 358.288,279.604 C362.358,276.33 365.761,268.131 371.085,267.339" id="Fill-38" fill="#322E7F" mask="url(#mask-2)"></path>
            <path d="M327.316,275.125 C325.228,275.707 322.961,275.621 320.972,276.493 C317.985,277.803 318.166,280.904 317.32,283.597 C316.384,286.58 315.023,290.583 313.056,292.902 C311.639,294.574 309.655,295.526 307.928,296.816 C306.202,298.105 304.614,300.01 304.651,302.334 C304.686,304.537 306.167,306.515 306.383,308.714 C306.647,311.994 306.08,313.673 307.091,317.025 C307.613,318.755 308.197,320.587 309.495,321.767 C311.206,323.32 313.643,323.291 315.783,322.933 C317.922,322.575 320.134,321.981 322.245,322.691 C326.821,324.23 325.967,328.859 327.185,332.738 C329.039,338.642 335.884,342.087 341.121,339.988 C345.561,338.208 348.13,333.053 347.93,327.963 C347.83,325.415 346.815,323.041 346.741,320.49 C346.67,318.03 348.057,314.624 345.828,312.672 C345.284,312.197 344.588,311.946 344.1,311.404 C343.706,310.966 343.487,310.379 343.35,309.792 C342.875,307.76 343.323,305.542 344.521,303.986 C345.383,302.868 346.617,302.05 347.145,300.701 C347.75,299.154 347.271,297.346 347.168,295.637 C346.921,291.506 349.18,287.455 352.621,285.86 C354.889,284.81 356.932,284.189 358.914,282.59 C359.216,282.347 363.725,278.362 363.841,279.223 C363.639,277.724 362.764,276.413 361.878,275.21 C360.42,273.233 358.802,271.307 356.75,270.123 C350.112,266.294 349.792,275.193 344.463,274.022 C343.178,273.74 342.21,272.562 341.054,271.858 C338.868,270.53 336.185,271.005 333.95,272 C331.715,272.996 329.667,274.471 327.316,275.125" id="Fill-39" fill="#322E7F" mask="url(#mask-2)"></path>
            <polyline id="Fill-40" fill="#5D66D3" mask="url(#mask-2)" points="762.702 473.857 811.454 457.498 799.09 541.728 803.049 620.485 794.177 620.485 773.508 550.549 764.242 481.028 762.702 473.857"></polyline>
            <polyline id="Fill-41" fill="#292949" mask="url(#mask-2)" points="793.653 619.438 803.53 619.472 805.813 627.872 805.562 627.938 805.624 627.947 789.03 637.148 781.247 637.789 780.515 628.894 782.654 627.419 793.653 619.438"></polyline>
            <polyline id="Fill-42" fill="#5D66D3" mask="url(#mask-2)" points="724.777 474.368 735.458 624.355 743.859 625.393 756.481 542.335 775.341 464.995 724.777 474.368"></polyline>
            <polyline id="Fill-43" fill="#292949" mask="url(#mask-2)" points="735.04 622.849 722.187 629.658 723.2 635.66 745.898 632.901 744.815 624.264 735.04 622.849"></polyline>
            <path d="M824.749,498.194 C825.767,473.662 803.856,395.65 803.856,395.65 L803.86,395.649 C801.543,388.319 799.775,380.863 798.717,373.388 C797.964,368.066 782.018,307.584 783.074,307.507 C772.09,308.309 750.91,305.712 742.773,313.514 C742.542,313.737 742.319,313.968 742.109,314.208 C735.766,321.442 732.471,336.09 729.471,345.104 C725.531,356.946 722.505,369.093 720.438,381.4 C718.631,392.162 717.558,403.033 716.799,413.915 C716.146,423.27 716.664,432.572 716.345,441.775 C715.993,451.963 712.937,463.008 710.657,472.919 C708.362,482.9 705.448,492.762 701.417,502.189 C712.322,507.016 724.47,508.32 736.396,508.365 C748.322,508.411 760.232,507.261 772.157,507.443 C782.241,507.599 792.448,508.697 802.329,506.676 C810.186,505.067 817.438,501.57 824.75,498.194 L824.749,498.194" id="Fill-44" fill="#D67086" mask="url(#mask-2)"></path>
            <path d="M745.468,281.855 C740.455,284.332 735.229,290.717 735.552,296.661 C735.707,299.523 737.29,301.747 737.335,304.817 C737.446,310.869 746.622,317.205 741.006,323.042 C738.119,326.042 733.606,326.63 729.465,327.046 C728.962,327.096 728.435,327.144 727.97,326.946 C727.204,326.623 726.831,325.716 726.849,324.885 C726.866,324.054 727.187,323.264 727.438,322.472 C730.074,314.188 726.095,304.527 725.625,296.086 C725.156,287.662 727.15,278.567 734.057,273.077 C738.688,274.489 742.139,276.445 744.416,280.718 L745.468,281.855" id="Fill-45" fill="#292949" mask="url(#mask-2)"></path>
            <path d="M748.583,317.809 C742.872,317.089 738.018,312.875 735.357,307.77 C732.697,302.666 731.959,296.77 731.932,291.014 C731.841,271.86 755.543,270.567 765.071,284.241 C773.375,296.158 765.188,319.899 748.583,317.809" id="Fill-46" fill="#EFBFA5" mask="url(#mask-2)"></path>
            <path d="M777.277,320.145 C774.335,319.307 771.421,318.382 769.144,315.897 C765.462,311.88 764.363,304.315 762.629,299.31 C760.802,294.034 758.642,288.334 753.847,285.474 C750.715,283.606 747.563,283.75 744.131,284.365 C741.781,284.786 741.865,285.69 739.638,284.821 C737.932,284.155 736.07,281.532 735.39,279.919 C734.242,277.197 734.795,273.981 736.236,271.403 C738.454,267.435 741.542,265.075 745.871,264.126 C761.066,260.795 774.298,267.596 781.524,281.663 C784.999,288.423 785.033,296.703 788.593,303.167 C790.79,307.158 794.075,309.46 796.07,313.778 C801.249,324.981 810.701,338.753 812.594,351.018 C812.663,351.471 812.708,351.98 812.43,352.346 C811.862,353.089 810.688,352.549 809.953,351.971 C805.662,348.596 801.371,345.22 797.08,341.845 C795.396,340.519 793.688,339.169 792.433,337.431 C789.311,333.102 789.234,326.725 785.04,323.424 C782.751,321.623 780.002,320.92 777.277,320.145" id="Fill-47" fill="#292949" mask="url(#mask-2)"></path>
            <path d="M848.443,296.941 C851.313,297.476 858.79,295.475 860.508,292.836 C864.472,286.746 855.066,288.621 851.669,288.539 C852.058,287.359 852.47,286.23 852.62,285.022 C852.758,283.915 842.664,286.791 841.691,287.849 C839.357,290.386 840.422,292.303 840.633,295.512 C843.239,295.926 845.842,296.455 848.443,296.941" id="Fill-48" fill="#EFBFA5" mask="url(#mask-2)"></path>
            <polyline id="Fill-49" fill="#D67086" mask="url(#mask-2)" points="769.063 358.164 824.222 348.986 849.621 297.479 839.523 289.159 812.646 324.826 784.563 323.633 758.57 324.759 769.063 358.164"></polyline>
            <polyline id="Fill-50" fill="#EFBFA5" mask="url(#mask-2)" points="215.466 470.674 167.202 452.925 177.15 537.475 171.386 610.419 171.23 610.904 171.346 610.918 170.961 615.779 179.473 617.325 202.468 547.024 213.721 477.798 215.466 470.674"></polyline>
            <polyline id="Fill-51" fill="#292949" mask="url(#mask-2)" points="180.359 615.309 170.485 615.059 167.963 623.391 168.212 623.465 168.149 623.472 184.474 633.145 192.235 634.007 193.222 625.137 191.125 623.601 180.359 615.309"></polyline>
            <polyline id="Fill-52" fill="#EFBFA5" mask="url(#mask-2)" points="248.341 472.126 233.418 621.275 225.041 623.329 214.706 539.157 198.068 461.31 248.341 472.126"></polyline>
            <polyline id="Fill-53" fill="#292949" mask="url(#mask-2)" points="233.832 620.252 246.486 627.427 245.3 633.397 222.69 629.989 224.021 621.387 233.832 620.252"></polyline>
            <path d="M270.97,508.482 C274.023,506.361 274.089,502.669 274.083,498.972 C274.074,492.027 272.825,484.929 271.233,478.181 C268.202,465.521 264.767,450.274 263.255,433.87 C259.351,391.475 245.962,363.025 245.962,363.025 L241.643,351.505 C240.784,350.007 239.893,348.525 238.963,347.065 C233.567,338.599 224.199,324.21 214.179,321.855 C213.97,321.806 213.759,321.758 213.547,321.712 C203.013,319.399 189.515,320.473 179.995,325.594 C178.188,326.565 176.582,327.86 174.987,329.146 C170.332,332.901 166.535,334.935 164.528,340.657 C162.786,345.626 162.381,351.047 161.42,356.195 C159.468,366.656 158.304,377.242 156.745,387.764 C153.823,407.495 151.341,427.289 148.214,446.989 C146.605,457.129 144.984,467.286 144.224,477.531 C143.552,486.59 135.38,495.787 130.788,503.905 C129.19,506.73 152.14,514.051 154.196,514.529 C163.716,516.745 173.843,516.18 183.657,516.224 C205.163,516.321 226.673,515.658 248.132,514.235 C255.263,513.763 264.051,512.401 270.378,508.852 C270.587,508.734 270.784,508.611 270.97,508.482" id="Fill-54" fill="#474EBB" mask="url(#mask-2)"></path>
            <path d="M201.735,320.553 C201.735,320.553 189.621,317.282 187.947,344.616 C186.274,371.95 183.484,441.122 179.58,460.089 C175.675,479.056 169.817,516.258 169.817,516.258 L206.914,517.547 L249.31,514.199 C249.31,514.199 234.806,487.423 232.574,468.457 C230.343,449.49 234.248,378.087 224.765,351.311 C215.281,324.534 213.292,321.033 201.735,320.553" id="Fill-55" fill="#8CABEF" mask="url(#mask-2)"></path>
            <polyline id="Fill-56" fill="#474EBB" mask="url(#mask-2)" points="256.562 381.434 259.351 384.78 269.392 370.835 229.228 326.207 214.166 321.745 221.417 341.27 256.562 381.434"></polyline>
            <polyline id="Fill-57" fill="#EFBFA5" mask="url(#mask-2)" points="222.992 369.886 214.177 363.168 216.884 359.275 223.939 362.539 224.365 360.104 231.208 366.771 228.94 371.198 222.992 369.886"></polyline>
            <polyline id="Fill-58" fill="#474EBB" mask="url(#mask-2)" points="257.521 368.169 257.125 369.037 229.648 363.737 225.597 372.75 259.351 384.78 257.521 368.169"></polyline>
            <path d="M218.631,298.896 C220.464,304.4 217.812,310.269 215.483,315.284 C213.417,319.732 212.7,322.659 217.942,323.859 C220.896,324.536 226.138,325.798 228.729,323.536 C230.69,321.822 229.587,316.531 228.633,314.429 C227.904,312.824 225.975,312.009 225.289,310.385 C225.007,309.716 224.966,308.972 224.956,308.246 C224.915,305.278 225.325,302.305 226.169,299.46 C226.742,297.528 227.518,295.63 227.69,293.623 C227.941,290.711 225.883,287.319 224.801,284.644 C222.788,279.667 215.783,272.992 209.917,276.898 C208.582,277.788 207.804,279.292 207.154,280.759 C206.766,281.635 206.396,282.549 206.385,283.507 C206.34,287.328 209.829,287.973 212.238,289.792 C215.209,292.034 217.461,295.384 218.631,298.896" id="Fill-59" fill="#292949" mask="url(#mask-2)"></path>
            <path d="M207.475,320.372 C212.563,319.174 216.541,314.902 218.452,310.037 C220.364,305.172 220.464,299.777 219.935,294.577 C218.176,277.272 196.649,278.383 189.36,291.646 C183.007,303.205 192.682,323.857 207.475,320.372" id="Fill-60" fill="#EFBFA5" mask="url(#mask-2)"></path>
            <path d="M207.47,318.508 C207.384,320.479 207.299,322.45 207.213,324.421 C207.201,324.71 207.177,325.026 206.975,325.233 C206.745,325.469 206.375,325.473 206.046,325.462 C204.439,325.406 202.833,325.351 201.227,325.295 C200.431,325.268 199.603,325.231 198.901,324.855 C197.364,324.03 197.046,321.947 197.292,320.221 C197.537,318.494 198.156,316.755 197.79,315.05 C201.107,316.684 204.258,312.991 207.575,314.625 L207.47,318.508" id="Fill-61" fill="#EFBFA5" mask="url(#mask-2)"></path>
            <path d="M200.527,264.576 C194.875,266.497 191.25,272.213 185.735,274.497 C182.571,275.806 178.828,275.972 176.247,278.222 C170.463,283.263 175.112,293.841 170.36,299.865 C169.372,301.117 168.04,302.064 167.048,303.313 C164.908,306.008 164.628,309.686 164.438,313.121 C164.394,313.894 164.387,314.736 164.521,315.514 C165.264,323.447 176.781,322.943 181.356,322.435 C186.377,321.877 184.704,319.088 184.704,319.088 L184.521,318.865 C184.04,315.644 185.364,312.208 187.895,310.156 C188.834,309.395 189.945,308.788 190.607,307.776 C192.093,305.506 190.674,302.498 190.893,299.793 C191.772,288.899 210.057,291.233 215.216,283.478 C221.544,273.966 211.202,260.95 200.527,264.576" id="Fill-62" fill="#292949" mask="url(#mask-2)"></path>
            <path d="M260.328,114.063 L102.863,126.851 C102.256,126.9 101.809,127.466 101.863,128.115 L111.744,245.403 C111.799,246.052 112.335,246.539 112.941,246.489 L148.533,243.599 L175.794,275.264 C176.591,276.189 178.128,275.578 178.044,274.369 L175.77,241.387 L237.33,236.388 C256.204,234.855 270.126,217.244 268.425,197.051 L261.525,115.149 C261.471,114.5 260.934,114.014 260.328,114.063" id="Fill-63" fill="#D67086" mask="url(#mask-2)"></path>
            <polyline id="Fill-64" fill="#FFFFEE" mask="url(#mask-2)" points="242.792 139.234 144.708 147.199 144.37 143.187 242.455 135.221 242.792 139.234"></polyline>
            <polyline id="Fill-65" fill="#FFFFEE" mask="url(#mask-2)" points="245.37 169.83 128.383 179.331 128.045 175.318 245.032 165.817 245.37 169.83"></polyline>
            <polyline id="Fill-66" fill="#FFFFEE" mask="url(#mask-2)" points="247.948 200.426 130.961 209.927 130.623 205.915 247.609 196.414 247.948 200.426"></polyline>
            <path d="M577.792,154.312 C577.792,120.343 616.804,92.805 664.927,92.805 C713.051,92.805 752.062,120.343 752.062,154.312 C752.062,188.282 713.051,215.819 664.927,215.819 C663.015,215.819 661.117,215.773 659.235,215.687 C658.381,215.647 657.714,216.416 657.868,217.257 L664.811,255.125 C665.053,256.445 663.409,257.253 662.511,256.255 L617.173,205.879 C617.054,205.747 616.909,205.641 616.749,205.565 C593.27,194.546 577.792,175.707 577.792,154.312" id="Fill-67" fill="#3B3387" mask="url(#mask-2)"></path>
            <path d="M701.995,161.838 C696.97,161.838 696.961,154.028 701.995,154.028 C707.021,154.028 707.029,161.838 701.995,161.838" id="Fill-68" fill="#ECE9DE" mask="url(#mask-2)"></path>
            <path d="M666.849,161.838 C661.823,161.838 661.814,154.028 666.849,154.028 C671.874,154.028 671.882,161.838 666.849,161.838" id="Fill-69" fill="#ECE9DE" mask="url(#mask-2)"></path>
            <path d="M622.915,161.838 C617.889,161.838 617.881,154.028 622.915,154.028 C627.94,154.028 627.948,161.838 622.915,161.838" id="Fill-70" fill="#ECE9DE" mask="url(#mask-2)"></path>
            <polyline id="Fill-71" fill="#EFBFA5" mask="url(#mask-2)" points="141.03 245.323 144.333 233.748 149.341 234.943 148.835 243.371 151.466 242.836 147.434 252.397 142.06 251.857 141.03 245.323"></polyline>
            <polyline id="Fill-72" fill="#474EBB" mask="url(#mask-2)" points="185.212 333.216 148.599 303.644 149.885 249.618 139.166 249.091 123.511 312.541 160.173 358.793 185.212 333.216"></polyline>
            <polyline id="Fill-73" fill="#353A85" mask="url(#mask-2)" points="654.926 319.519 678.788 293.74 673.166 223.875 683.651 219.27 697.914 290.141 693.549 307.804 666.798 344.708 654.926 319.519"></polyline>
            <polyline id="Fill-74" fill="#B97262" mask="url(#mask-2)" points="683.651 219.27 683.651 203.252 676.324 198.972 672.8 205.47 672.8 211.992 668.997 213.557 673.166 223.875 683.651 219.27"></polyline>
            <path d="M430.957,68.211 L558.5,67.966 C570.306,67.943 579.895,77.496 579.917,89.301 L580.075,171.515 C580.098,183.272 570.62,192.841 558.863,192.931 L538.367,193.088 L515.063,225.918 C514.382,226.876 512.872,226.409 512.853,225.233 L512.312,193.139 L431.146,193.104 C419.36,193.099 409.802,183.555 409.779,171.769 L409.622,89.628 C409.599,77.822 419.151,68.233 430.957,68.211" id="Fill-75" fill="#474EBB" mask="url(#mask-2)"></path>
            <polyline id="Fill-76" fill="#FFFFEF" mask="url(#mask-2)" points="434.162 97.186 536.052 97.212 536.053 92.967 434.163 92.941 434.162 97.186"></polyline>
            <polyline id="Fill-77" fill="#FFFFEF" mask="url(#mask-2)" points="434.154 129.557 555.679 129.588 555.68 125.343 434.155 125.312 434.154 129.557"></polyline>
            <polyline id="Fill-78" fill="#FFFFEF" mask="url(#mask-2)" points="434.146 161.929 555.67 161.959 555.671 157.714 434.146 157.683 434.146 161.929"></polyline>
            <path d="M428.412,179.029 C428.144,162.759 414.826,149.771 398.595,149.856 C398.608,149.345 398.617,148.832 398.609,148.315 C398.281,128.443 381.906,112.599 362.034,112.927 C351.221,113.105 341.608,118.041 335.137,125.7 C328.923,118.848 319.908,114.601 309.933,114.765 C292.18,115.058 277.907,129.2 277.23,146.728 C276.478,146.683 275.721,146.657 274.955,146.669 C258.571,146.939 245.508,160.44 245.778,176.824 C245.996,190.004 254.778,201.028 266.732,204.698 C265.307,208.186 264.547,212.012 264.613,216.018 C264.875,231.874 277.94,244.514 293.795,244.252 C295.011,244.232 296.207,244.134 297.38,243.967 L297.886,274.676 C297.928,276.007 299.646,276.511 300.118,275.825 L319.132,248.196 C323.721,251.134 329.192,252.806 335.05,252.709 C345.674,252.534 354.848,246.605 359.671,237.946 C364.648,240.95 370.498,242.644 376.739,242.541 C394.445,242.249 408.561,227.659 408.269,209.954 C408.256,209.184 408.207,208.423 408.141,207.667 C420.099,203.68 428.631,192.302 428.412,179.029" id="Fill-79" fill="#EED5D5" mask="url(#mask-2)"></path>
            <path d="M371.915,183.108 C367.534,183.181 367.639,189.989 372.027,189.917 C376.408,189.845 376.303,183.036 371.915,183.108" id="Fill-80" fill="#D67086" mask="url(#mask-2)"></path>
            <path d="M341.277,183.614 C336.896,183.686 337,190.495 341.389,190.422 C345.77,190.35 345.665,183.542 341.277,183.614" id="Fill-81" fill="#D67086" mask="url(#mask-2)"></path>
            <path d="M302.979,184.246 C298.598,184.318 298.703,191.126 303.091,191.054 C307.472,190.982 307.367,184.173 302.979,184.246" id="Fill-82" fill="#D67086" mask="url(#mask-2)"></path>
            <polyline id="Fill-83" fill="#B97262" mask="url(#mask-2)" points="398.788 236.068 392.158 226.022 387.741 228.668 390.757 236.553 388.087 236.835 394.808 244.741 399.771 242.61 398.788 236.068"></polyline>
            <polyline id="Fill-84" fill="#8CABEF" mask="url(#mask-2)" points="377.113 325.998 409.105 293.966 391.635 242.827 401.699 239.102 435.708 294.908 391.883 349.228 377.113 325.998"></polyline>
        </g>
    </g>
</svg>