<?xml version="1.0" encoding="UTF-8"?>
<svg width="90px" height="97px" viewBox="0 0 90 97" version="1.1" xmlns="http://www.w3.org/2000/svg" xmlns:xlink="http://www.w3.org/1999/xlink">
    <!-- Generator: Sketch 54 (76480) - https://sketchapp.com -->
    <title>lady_child</title>
    <desc>Created with Sketch.</desc>
    <g id="Page-1" stroke="none" stroke-width="1" fill="none" fill-rule="evenodd">
        <g id="home" transform="translate(-780.000000, -522.000000)">
            <g id="lady_child" transform="translate(780.000000, 522.000000)">
                <g id="child" transform="translate(45.175195, 28.527023)">
                    <path d="M21.5276879,8.96297721 C21.5276879,8.96297721 18.1676879,10.3929772 15.3376879,9.08297721 C14.997498,6.54609173 15.5186632,3.9684368 16.8176879,1.76297721 L21.3076879,2.36297721 L21.5276879,8.96297721 Z" id="Path" fill="#161946" fill-rule="nonzero"></path>
                    <path d="M22.1976879,6.47297721 C23.0205702,5.59173753 23.4563333,4.41769808 23.4076879,3.21297721 C23.1576879,-0.36702279 18.1576879,0.41297721 17.1876879,2.21297721 C16.2176879,4.01297721 16.3276879,8.61297721 17.5876879,8.93297721 C18.5410497,8.94249165 19.4726921,8.64828876 20.2476879,8.09297721 L19.5576879,12.9029772 L23.5576879,12.9029772 L22.1976879,6.47297721 Z" id="Path" fill="#D27756"></path>
                    <polygon id="Path" fill="#C37DA2" points="24.5676879 32.7229772 20.0676879 50.3129772 16.9176879 65.3029772 14.5276879 65.3029772 17.3676879 31.7129772"></polygon>
                    <path d="M28.5276879,27.1229772 C28.2310717,33.3367948 28.620086,39.5643774 29.6876879,45.6929772 C29.7876879,46.6929772 30.1576879,53.0329772 33.2576879,65.6929772 L30.7076879,64.8129772 C25.8076879,53.2329772 24.1276879,47.2229772 23.5676879,45.7029772 C23.0076879,44.1829772 21.5076879,38.0029772 19.0876879,27.1629772 L28.5276879,27.1229772 Z" id="Path" fill="#DC9EBD"></path>
                    <path d="M34.7776879,21.3229772 L31.4576879,22.4729772 C35.7776879,28.3529772 38.0910212,31.4663105 38.3976879,31.8129772 C39.0776879,32.5929772 38.7776879,34.2329772 38.6976879,35.0929772 C39.9476879,35.2029772 39.2176879,33.4529772 40.8076879,33.6229772 C42.2476879,33.7729772 43.5576879,34.4929772 44.6976879,33.1129772 C44.8376879,32.9429772 44.8876879,32.4629772 44.3076879,32.3029772 C42.9074845,31.9597445 41.5614224,31.4246848 40.3076879,30.7129772 C39.7876879,30.1929772 37.9443545,27.0629772 34.7776879,21.3229772 Z M10.2776879,24.0229772 L3.87768785,22.2429772 C2.84096279,21.4242348 1.69700265,20.7513171 0.477687851,20.2429772 C0.177687851,20.2429772 -0.332312149,20.2429772 0.307687851,20.9329772 C0.947687851,21.6229772 1.60768785,22.4129772 1.42768785,22.7129772 C1.24768785,23.0129772 0.587687851,22.8029772 0.427687851,23.2829772 C0.307687851,23.6029772 1.42768785,23.8029772 3.71768785,23.9029772 L8.71768785,26.7129772 L10.2776879,24.0229772 Z" id="Shape" fill="#D27756"></path>
                    <path d="M20.3076879,10.4129772 L18.8276879,10.4129772 C16.1176879,13.8729772 15.8276879,21.3229772 13.9076879,22.5829772 C11.9876879,23.8429772 9.13768785,23.2829772 5.63768785,22.5829772 L4.93768785,24.9829772 C8.41768785,27.8129772 15.2476879,29.6629772 17.6376879,27.7229772 C21.4676879,24.6029772 21.1676879,15.4729772 20.3076879,10.4129772 Z" id="Path" fill="#B77DB0"></path>
                    <path d="M29.2776879,32.2029772 L16.5376879,33.9929772 C15.9576879,34.0829772 16.5376879,29.1429772 16.5376879,28.7129772 C16.8276879,23.7129772 18.7876879,17.4729772 19.4076879,10.3829772 L22.8276879,9.38297721 C26.5576879,13.8229772 27.5476879,24.2629772 29.2776879,32.2029772 Z" id="Path" fill="#F6E9E3"></path>
                    <path d="M29.6876879,22.4129772 C32.0621593,25.7035151 34.7406008,28.7636345 37.6876879,31.5529772 L40.2876879,30.6629772 C37.0776879,20.2929772 31.8776879,13.5329772 22.9276879,9.66297721 L20.3976879,10.7929772 C18.6776879,22.4429772 18.9976879,28.7329772 20.9976879,32.2429772 L32.4276879,30.6029772 C31.8002038,27.7855226 30.8819496,25.0408139 29.6876879,22.4129772 Z" id="Path" fill="#C89DC6"></path>
                    <polygon id="Path" fill="#5E2962" points="17.1676879 65.1029772 16.4376879 67.1129772 9.73768785 64.6729772 14.6476879 64.1929772"></polygon>
                    <polygon id="Path" fill="#5E2962" points="33.5876879 64.5829772 33.8976879 66.6929772 26.8476879 67.7329772 30.9276879 64.9729772"></polygon>
                    <path d="M16.1076879,3.09297721 C17.5571645,3.3076242 19.0246813,3.3746341 20.4876879,3.29297721 L21.0076879,9.13297721 C22.3551759,9.10516023 23.6865555,8.8341415 24.9376879,8.33297721 C24.9376879,8.33297721 25.7476879,1.76297721 22.1276879,0.17297721 C22.1276879,0.17297721 17.6876879,-1.06702279 16.1076879,3.09297721 Z" id="Path" fill="#350B39" fill-rule="nonzero"></path>
                    <polygon id="Path" fill="#AA5D45" points="17.3876879 5.41297721 17.1076879 7.08297721 17.7276879 7.08297721"></polygon>
                </g>
                <g id="lady-with-child">
                    <polygon id="Path" fill="#350B39" points="32.3728825 46.72 23.6928825 69.67 18.4228825 93.2 15.0028825 93.2 19.6128825 38.66"></polygon>
                    <path d="M34.9928825,38.66 C34.3828825,54.84 35.1028825,63.19 35.2428825,64.66 C35.3828825,66.13 37.0228825,71.23 40.0028825,89.94 L37.9428825,91.18 C30.9428825,74.64 28.6428825,67.31 27.8428825,65.18 C27.0428825,63.05 24.9028825,54.18 21.4428825,38.7 L34.9928825,38.66 Z" id="Path" fill="#5E2962"></path>
                    <path d="M39.5728825,35.13 L35.3828825,35.74 C39.1428825,43.74 41.1628825,47.9666667 41.4428825,48.42 C42.0628825,49.51 42.0128825,51.42 43.8528825,52.01 C45.5228825,52.52 46.9328825,52.79 48.5928825,51.42 C48.8028825,51.25 48.9728825,50.7 48.3228825,50.42 C46.7483503,49.6862821 45.2814506,48.740872 43.9628825,47.61 C43.4562158,46.85 41.9928825,42.69 39.5728825,35.13 Z M10.3928825,36.82 L4.59288245,44.31 C2.97139277,45.2484526 1.48453455,46.4022815 0.172882455,47.74 C-0.0571175452,48.12 -0.267117545,48.81 1.01288245,48.33 C2.29288245,47.85 3.65288245,47.42 4.01288245,47.81 C4.37288245,48.2 3.68288245,48.96 4.22288245,49.46 C4.58288245,49.7866667 5.44288245,48.4533333 6.80288245,45.46 L13.2128825,40.36 L10.3928825,36.82 Z" id="Shape" fill="#D27756"></path>
                    <path d="M25.3628825,0.96 C25.3628825,0.96 19.3628825,-1.55 17.8928825,3.15 C16.4228825,7.85 19.0628825,22.04 19.0628825,22.04 L24.8628825,22.04 L25.3628825,0.96 Z" id="Path" fill="#350B39"></path>
                    <path d="M23.8628825,14.27 L21.7728825,14.2 C19.4728825,23.5 13.9228825,32.9 6.14288245,41.33 L13.9228825,48.46 C21.2528825,36.98 25.7028825,25.13 23.8628825,14.27 Z" id="Path" fill="#E5B81D"></path>
                    <path d="M25.9728825,9.22 C27.1451278,7.95780967 27.7674977,6.28136818 27.7028825,4.56 C27.3428825,-0.57 20.2028825,0.56 18.8228825,3.15 C17.4428825,5.74 17.5928825,12.29 19.3928825,12.76 C20.7529995,12.7716444 22.081133,12.3476229 23.1828825,11.55 L22.1828825,18.44 L27.9328825,18.44 L25.9728825,9.22 Z" id="Path" fill="#D27756"></path>
                    <path d="M35.7428825,45.97 L16.9428825,48.85 C18.1928825,38.2 19.6028825,25.5 21.9428825,14.76 L25.6628825,13.18 C30.9928825,19.52 33.2728825,34.61 35.7428825,45.97 Z" id="Path" fill="#F6E9E3"></path>
                    <path d="M25.8628825,13.13 L25.8628825,13.13 L25.5028825,13.18 L23.5028825,13.53 L22.7028825,17.53 C23.2095491,22.1966667 23.6995491,31.64 24.1728825,45.86 L36.1728825,44.18 C36.2728825,45.18 36.3628825,46.13 36.4228825,47.13 L45.3228825,45.88 C41.8928825,31.08 36.3728825,20.02 26.8328825,13 L25.8628825,13.13 Z" id="Path" fill="#E5B81D"></path>
                    <polygon id="Path" fill="#C89DC6" points="18.4228825 93.2 18.4228825 95.91 9.34288245 95.91 15.0028825 93.2"></polygon>
                    <polygon id="Path" fill="#C89DC6" points="37.9428825 91.18 37.1228825 94.63 34.6428825 95.91 37.9428825 95.91 42.4728825 91.38 39.9928825 89.94"></polygon>
                    <path d="M29.6401515,5.57380158 C30.0977472,6.67389115 30.4833971,8.03007481 30.7228825,9.7 C31.8328825,17.44 43.7228825,27.36 43.7228825,27.36 C42.6643593,29.6166258 40.4857228,31.1401478 38.0028825,31.36 L26.7172358,13.6479262 C23.9809823,11.0178779 20.9813219,6.8652168 20.3228825,0.96 C20.3228825,0.96 26.6128825,-2.81 29.6328825,5.53 L29.6401515,5.57380158 Z" id="Combined-Shape" fill="#350B39"></path>
                </g>
            </g>
        </g>
    </g>
</svg>