<?xml version="1.0" encoding="UTF-8"?>
<svg width="109px" height="182px" viewBox="0 0 109 182" version="1.1" xmlns="http://www.w3.org/2000/svg" xmlns:xlink="http://www.w3.org/1999/xlink">
    <!-- Generator: Sketch 54 (76480) - https://sketchapp.com -->
    <title>man_handup</title>
    <desc>Created with Sketch.</desc>
    <g id="Page-1" stroke="none" stroke-width="1" fill="none" fill-rule="evenodd">
        <g id="home" transform="translate(-557.000000, -587.000000)" fill-rule="nonzero">
            <g id="man_handup" transform="translate(557.000000, 587.000000)">
                <polygon id="Path" fill="#5E2962" points="65.63 173.62 66.53 177.8 73.08 179.16 63.73 182.02 61.81 174.39"></polygon>
                <polygon id="Path" fill="#5E2962" points="8.07 159.97 5.05 163 7.02 170.09 0 162.96 5.33 157.18"></polygon>
                <path d="M45.84,27.77 C45.84,27.77 46.84,25.99 46.15,24.77 C45.69,23.95 45.41,19.91 45.84,18.25 L47.57,10.85 C47.57,10.85 49.57,6.95 55.81,8.28 C62.05,9.61 63.24,14.56 62.94,17.98 C62.64,21.4 60.42,24.78 58.26,27.21 C56.1,29.64 54.26,31.28 54.26,31.28 L45.84,27.77 Z" id="Path" fill="#D37A5B"></path>
                <path d="M48.79,25.15 C48.79,25.15 55.79,27.06 57.39,28.15 C59.8544737,25.479788 62.1489813,22.6575771 64.26,19.7 C66.4,16.41 64.26,14.7 64.26,14.7 C64.8009905,13.813295 65.2118501,12.8535 65.48,11.85 C65.7507575,10.86587 65.594675,9.81322102 65.05,8.95 C64.4741132,8.24875817 63.706023,7.7309055 62.84,7.46 C61.3987545,6.91400228 59.886735,6.5772496 58.35,6.46 C58.7551165,4.98276011 58.0600331,3.42510324 56.69,2.74 C55.3198024,2.2044619 53.7646912,2.76413104 53.05,4.05 C52.1494098,3.36512591 51.0058363,3.08285144 49.89,3.27 C48.7939034,3.55888203 48.0940858,4.63020769 48.27,5.75 C47.4645328,5.6850212 46.6991019,6.11113741 46.33,6.83 C46.07295,7.53876197 46.0980096,8.31918887 46.4,9.01 C46.7066321,9.6910326 47.0998805,10.3296412 47.57,10.91 C47.0058531,13.3391523 46.6446093,15.8109965 46.49,18.3 L46.96,18.21 C46.96,18.21 47.47,15.38 48.37,16.3 C48.7775423,16.7479879 48.9772411,17.3470842 48.92,17.95 C48.82,20.23 48.89,22.77 48.79,25.15 Z" id="Path" fill="#350B39"></path>
                <path d="M46.12,94.07 C46.12,94.07 40.56,133.5 40.03,134.07 C38.16,135.95 9.03,161.55 9.03,161.55 L2.81,156.74 L27.73,125.74 L24.41,89.4 L46.12,94.07 Z" id="Path" fill="#350B39"></path>
                <path d="M59.55,73.77 L58.73,83.62 C58.73,83.62 63.34,122.02 63.73,124.3 C64.12,126.58 67.02,175.3 67.02,175.3 L59.89,176.52 L49.95,131.52 C49.95,131.52 38.59,93.02 39.73,83.77 C40.87,74.52 37.89,69.87 37.89,69.87 L59.55,73.77 Z" id="Path" fill="#350B39"></path>
                <path d="M91.44,28.62 L84.93,21.9 C84.93,21.9 70.06,32.08 68.44,32.5 C66.82,32.92 57.85,32.5 57.85,32.5 L57.04,30.35 C53.37,27 44.62,26.53 44.62,26.53 L42.99,29.77 C42.99,29.77 29.55,35.34 26.9,36.17 C24.25,37 18.2,60.77 18,62.54 C17.9653543,63.1772111 17.9854279,63.8162198 18.06,64.45 C18.36,67.74 24.37,72.59 27.82,73.93 L22.43,91.54 L63.14,97.44 L62.53,53.06 C62.53,53.06 82.89,38.77 83.91,37.77 C84.93,36.77 91.44,28.62 91.44,28.62 Z" id="Path" fill="#E5B81D"></path>
                <path d="M106.53,0.39 C106.44,0.33 105.75,0 105.75,0 L102.47,4.16 C102.47,4.16 101.24,5.22 101.01,5.37 C101.29,4.45 101.59,3.28 101.36,3.08 C101.13,2.88 99.11,5.49 98.58,6.21 C98.05,6.93 98.11,9.33 98.11,9.33 L97.5,11.19 L99.95,15.89 C99.95,15.89 104.56,11.18 105.17,10.57 C106.44,9.29 108.42,4.51 108.51,4.14 C108.6,3.77 107.93,2.57 107.93,2.57" id="Path" fill="#D37A5B"></path>
                <polygon id="Path" fill="#D37A5B" points="97.5 11.19 85.93 20.67 90.73 28.37 99.95 15.89 99.95 11.78"></polygon>
                <polygon id="Path" fill="#F6E9E3" points="82.36 23.65 90.91 32.7 93.97 28.1 85.93 20.67"></polygon>
            </g>
        </g>
    </g>
</svg>