<?xml version="1.0" encoding="UTF-8"?>
<svg width="185px" height="201px" viewBox="0 0 185 201" version="1.1" xmlns="http://www.w3.org/2000/svg" xmlns:xlink="http://www.w3.org/1999/xlink">
    <!-- Generator: Sketch 54 (76480) - https://sketchapp.com -->
    <title>man_preg_lady</title>
    <desc>Created with Sketch.</desc>
    <g id="Page-1" stroke="none" stroke-width="1" fill="none" fill-rule="evenodd">
        <g id="home" transform="translate(-988.000000, -592.000000)">
            <g id="man_preg_lady" transform="translate(988.000000, 592.000000)">
                <g id="man" transform="translate(0.000000, 1.240481)">
                    <path d="M37.02,96.2790821 L15.27,192.679082 L21.55,192.439082 C21.55,192.439082 40.25,159.439082 43.07,147.319082 C45.89,135.199082 62.94,95.3190821 62.94,95.3190821 L37.02,96.2790821 Z" id="Path" fill="#350B39"></path>
                    <path d="M42.54,97.6190821 C42.54,97.6190821 60.37,151.309082 63.44,155.569082 C66.51,159.829082 82.92,188.679082 82.92,188.679082 L89.47,188.429082 C89.47,188.429082 82.27,155.429082 76.47,146.889082 L72.07,97.1490821 L42.54,97.6190821 Z" id="Path" fill="#5E2962"></path>
                    <path d="M57.36,22.7590821 C60.2,20.3090821 62.52,17.6990821 62.16,13.7590821 C60.66,-2.49091793 45.65,1.17908207 41.76,6.34908207 C37.87,11.5190821 36,25.8790821 39.76,27.4890821 C41.26,28.1390821 44.76,27.6590821 48.43,26.1490821 L49.13,41.6290821 L58.56,43.5090821 L57.36,22.7590821 Z" id="Path" fill="#D27756"></path>
                    <path d="M34.9670398,90.0415094 L18.97,103.159082 L15.43,99.7290821 C25.075608,85.1649503 32.6827453,76.6999661 36.023956,73.2483447 C36.5069707,66.0859946 37.0466463,58.8348552 37.56,53.5490821 C38.15,47.7390821 41.18,39.0590821 46.38,35.1690821 C50.03,32.4390821 55.98,30.8090821 59.93,33.8590821 C60.6958207,34.4487963 61.3953387,35.1058574 62.0348801,35.8121305 C62.2615723,35.8559015 62.4749139,35.970246 62.64,36.1490821 C70.5,44.8490821 92.47,69.6890821 97.7,81.3790821 L93.78,84.8690821 L70.3122786,60.8661604 C72.6590295,77.1605418 74.64,99.8290821 74.64,99.8290821 C74.64,99.8290821 49.03,102.979082 39.45,100.169082 L34.45,99.0890821 C34.45,99.0890821 34.6480302,95.4374533 34.9670398,90.0415094 Z" id="Combined-Shape" fill="#C89DC6"></path>
                    <path d="M37.2763376,71.9864686 C47.4115495,31.7984672 53.35,34.5690821 53.35,34.5690821 L53.3420148,34.5957864 C50.2747821,36.2614411 47.9870831,40.5382989 46.33,45.9090821 C43.8,54.1090821 37.87,71.4190821 37.87,71.4190821 C37.87,71.4190821 37.6661136,71.6052867 37.2763376,71.9864686 Z M60.1906224,47.5805533 C58.9541551,52.7204229 53.0142022,76.8610421 49.64,80.6190821 C46.82,83.7790821 34.73,95.4490821 34.82,92.0190821 C34.8523942,91.329085 34.8742946,90.6747671 34.8891005,90.1054197 L34.97,90.0390821 L47.23,79.6790821 C47.8711386,79.0819464 48.3788917,78.3560981 48.72,77.5490821 L60.1906224,47.5805533 Z" id="Combined-Shape" fill="#5E2962" opacity="0.57"></path>
                    <path d="M101.35,84.9790821 C102.486507,86.1006773 102.812733,87.807399 102.17,89.2690821 C101.11,91.7490821 99.17,94.9090821 96.89,93.1590821 C94.26,91.1590821 93.78,84.8690821 93.78,84.8690821 L97.7,81.3790821 L101.35,84.9790821 Z" id="Path" fill="#D27756"></path>
                    <path d="M51.32,11.1290821 C49.9866667,18.4624154 48.1833333,21.9890821 45.91,21.7090821 C42.51,21.3390821 39.91,18.8590821 38.37,18.7090821 C37.28,18.5890821 37.37,19.9690821 37.98,21.0590821 C38.49,21.9590821 41.29,23.0590821 41.15,24.3690821 C41.01,25.6790821 38.83,24.3690821 38.75,25.1790821 C38.61,26.4390821 37.94,28.7790821 40.14,29.0190821 C42.34,29.2590821 48.83,29.1590821 50.29,26.0190821 C51.23,23.9724154 52.1733333,19.6090821 53.12,12.9290821 C53.2564931,12.9193417 53.3935069,12.9193417 53.53,12.9290821 C54.9316758,13.083816 56.1003047,14.071438 56.4865544,15.4277009 C56.872804,16.7839638 56.3998453,18.2390929 55.29,19.1090821 C55.96,20.3290821 56.73,21.5990821 57.62,22.9290821 C61.73,21.0490821 65.33,14.5990821 62.28,7.67908207 C61.6733886,4.73470053 59.566693,2.32433717 56.73,1.32908207 C54.7575509,0.195909611 52.4576978,-0.230903629 50.21,0.11908207 C46.3,0.0190820697 42.71,0.81908207 41.65,1.41908207 C41.25,5.07908207 41.84,6.24908207 47.92,6.81908207 C49.3883516,7.95648069 50.5557081,9.43627672 51.32,11.1290821 Z" id="Path" fill="#350B39"></path>
                    <path d="M15.38,99.7290821 C15.38,99.7290821 11.76,100.729082 8.45,105.119082 C5.14,109.509082 5.8,109.119082 5.8,109.119082 C5.8,109.119082 8.33,111.499082 9.8,111.269082 C14.5,110.499082 18.96,103.139082 18.96,103.139082 L15.38,99.7290821 Z" id="Path" fill="#D27756"></path>
                    <polygon id="Path" fill="#C89DC6" points="23.21 193.219082 21.9 199.779082 5.68434189e-14 195.379082 14.97 191.559082"></polygon>
                    <polygon id="Path" fill="#C89DC6" points="90.91 187.089082 92.69 193.539082 71.16 199.479082 82.81 189.319082"></polygon>
                </g>
                <g id="preg_woman" transform="translate(92.212115, -0.000000)">
                    <path d="M44.3081145,32.1486217 L42.5078852,32.7095627 C42.5078852,32.7095627 32.7878852,43.3095627 30.8378852,46.1295627 C28.4578852,49.5695627 29.5778852,56.7095627 34.4278852,58.7895627 C34.4278852,58.7895627 33.2467607,59.7880979 31.7379127,61.5227906 C28.0262193,60.0724793 24.4546342,57.3721178 22.0278852,53.2195627 C17.4578852,45.3995627 24.2978852,35.2095627 28.0278852,30.3995627 C31.7578852,25.5895627 27.7878852,15.0795627 29.8378852,9.76956266 C31.8878852,4.45956266 38.6878852,-2.53043734 47.6078852,0.919562664 C56.5278852,4.36956266 57.5578852,11.9795627 59.0878852,20.9195627 C60.9655867,31.8494671 59.4610612,37.0212405 58.3919778,39.1382052 C57.2643816,36.1622771 55.2506749,33.3299359 52.5778852,32.3195627 C51.1272163,31.6755788 49.5970139,31.2282889 48.0278852,30.9895627 L46.5382748,31.4537166 L46.6720849,21.5675122 C45.5456477,21.2098826 44.5128584,20.7568969 43.5691052,20.2302571 C43.7429854,22.4410005 44.0686123,26.9102085 44.3081145,32.1486217 Z" id="Path" fill="#350B39"></path>
                    <path d="M47.7767407,21.8794314 L48.9578852,34.3995627 L42.8278852,36.2995627 L42.5278852,25.8495627 C39.6078852,27.7595627 36.7178852,28.7395627 35.3278852,28.4395627 C31.8478852,27.6795627 31.0578852,15.0695627 33.5278852,9.99956266 C33.8875383,9.26132735 34.484016,8.57334042 35.244029,7.96696752 C35.7555788,12.6048384 39.3903879,19.7964979 47.7767407,21.8794314 Z" id="Path" fill="#D27756"></path>
                    <path d="M59.3683824,45.4496289 C59.3118052,47.8401259 59.0030855,60.2003311 58.4554559,69.7456919 L63.9078852,88.6795627 L39.2478852,95.4595627 C39.2478852,95.4595627 36.9278852,95.5695627 31.4978852,91.5595627 C27.3764592,88.5159313 25.6688782,84.6715256 25.3475734,79.8339497 L11.7678852,86.2895627 L9.77788518,81.6995627 L28.0599962,66.7180419 C30.7283149,61.9172187 34.4278852,58.7895627 34.4278852,58.7895627 C29.5778852,56.7095627 28.4578852,49.5695627 30.8378852,46.1295627 C32.7878852,43.3095627 42.5078852,32.7095627 42.5078852,32.7095627 L48.0278852,30.9895627 C49.5970139,31.2282889 51.1272163,31.6755788 52.5778852,32.3195627 C57.1278852,34.0395627 59.7678852,41.0395627 59.3778852,45.0395627 L59.4378852,45.0395627 L59.3683824,45.4496289 Z" id="Combined-Shape-Copy" fill="#DC9EBD"></path>
                    <path d="M25.3522349,79.9026591 L22.3678852,81.2195627 C22.3678852,81.2195627 22.0778852,73.5995627 26.8778852,67.7795627 L27.9676584,66.8856081 C26.6869054,69.2300067 25.6610336,71.9631113 25.4278852,74.9195627 C25.2811332,76.6879242 25.2444548,78.3468104 25.3522349,79.9026591 L25.3522349,79.9026591 Z" id="Path" fill="#D087AE"></path>
                    <path d="M58.4180368,70.3871235 C58.6082815,72.2448615 58.9216348,77.853232 59.0678852,78.8495627 C59.6778852,84.5495627 59.3378852,83.9795627 57.0678852,85.2895627 C52.0378852,88.2095627 38.7978852,93.9695627 38.7978852,93.9695627 L38.8858434,93.8616936 C40.1963052,92.9991555 55.7300106,82.7623658 57.1378852,81.2395627 C57.6508242,80.6847511 58.0785328,76.1094966 58.4180368,70.3871235 L58.4180368,70.3871235 Z M49.5806563,52.6538365 L49.1278852,75.6895627 L35.8248036,91.6790341 C35.7658731,91.7425742 35.7069007,91.8060838 35.6478852,91.8695627 C37.7378852,89.0595627 39.9078852,86.3095627 42.0878852,83.5795627 C44.2678852,80.8495627 46.4878852,78.1395627 48.7178852,75.4395627 L48.6078852,75.7495627 C48.6745518,71.8562293 48.7812185,67.962896 48.9278852,64.0695627 L49.1878852,58.2295627 C49.3178852,56.2095627 49.4078852,54.2595627 49.5678852,52.3195627 C49.5723543,52.4312906 49.576605,52.5427065 49.5806563,52.6538365 L49.5806563,52.6538365 Z" id="Shape" fill="#D087AE"></path>
                    <path d="M20.9478852,184.169563 L34.3978852,94.0995627 L63.8678852,88.6795627 C63.8678852,88.6795627 55.6978852,114.409563 43.0678852,130.359563 C40.4267872,133.767217 39.016947,137.968541 39.0678852,142.279563 C39.0678852,148.609563 36.3878852,158.199563 32.9978852,166.439563 C27.6578852,179.439563 25.8378852,184.989563 25.8378852,184.989563 L20.9478852,184.169563 Z" id="Path" fill="#D39E0F"></path>
                    <path d="M63.8678852,88.6795627 C64.2672694,91.5825572 64.2672694,94.5265681 63.8678852,97.4295627 C62.1578852,107.429563 57.9378852,124.009563 57.2178852,133.349563 C57.0624631,135.305194 57.7972393,137.226634 59.2178852,138.579563 C63.6878852,142.799563 75.3478852,157.899563 86.7278852,177.579563 L84.5078852,182.329563 C84.5078852,182.329563 50.4278852,146.619563 46.0878852,141.559563 C41.9678852,136.749563 34.3678852,94.1395627 34.3678852,94.1395627 L63.8678852,88.6795627 Z" id="Path" fill="#E5B81D"></path>
                    <path d="M9.77788518,81.6995627 C9.77788518,81.6995627 1.85788518,86.5295627 0.537885176,87.7495627 C-0.782114824,88.9695627 0.227885176,94.9095627 4.67788518,94.3995627 C9.12788518,93.8895627 11.7678852,86.2895627 11.7678852,86.2895627 L9.77788518,81.6995627 Z" id="Path" fill="#D27756"></path>
                    <polygon id="Path" fill="#5E2962" points="27.6578852 183.919563 27.8878852 189.939563 7.78788518 190.699563 20.0878852 184.209563"></polygon>
                    <polygon id="Path" fill="#5E2962" points="82.3078852 180.449563 80.7978852 188.159563 75.4078852 191.219563 82.7078852 190.939563 92.3478852 180.509563 86.7578852 177.539563"></polygon>
                    <path d="M35.7078852,91.7995627 C33.7964052,91.5234755 31.917145,91.0578477 30.0978852,90.4095627 C30.0978852,90.4095627 31.6978852,95.2495627 35.2978852,96.0695627 C38.8978852,96.8895627 38.6478852,93.7995627 38.6478852,93.7995627 L35.7078852,91.7995627 Z" id="Path" fill="#D27756"></path>
                </g>
            </g>
        </g>
    </g>
</svg>