<svg xmlns="http://www.w3.org/2000/svg" viewBox="0 0 345.06 43.3"><defs><style>.cls-1{fill:red;}.cls-2{fill:#fff;}</style></defs><title>quemsomos</title><g id="Layer_2" data-name="Layer 2"><g id="Layer_1-2" data-name="Layer 1"><rect class="cls-1" width="345.06" height="43.3"/><path class="cls-2" d="M120,30.23a56,56,0,0,1-5.62-1.86,3.77,3.77,0,0,0-.94-.21c-3.34-.17-6.31-2.63-6.31-7.31,0-4.45,2.76-7.57,6.88-7.57s6.65,3.2,6.65,7.27c0,3.48-1.6,5.81-3.72,6.64v.09c1.24.34,2.63.64,3.81.88Zm-2.12-9.56c0-2.75-1.34-5.28-3.95-5.28s-4,2.5-4,5.39,1.45,5.26,4,5.26S117.88,23.69,117.88,20.67Z"/><path class="cls-2" d="M125.53,13.52v8.4c0,2.83,1.18,4.13,2.95,4.13s3-1.3,3-4.13v-8.4h2.63v8.23c0,4.45-2.29,6.42-5.75,6.42s-5.5-1.86-5.5-6.39V13.52Z"/><path class="cls-2" d="M145.22,21.52h-5.43v4.23h6.07v2.16h-8.7V13.52h8.38v2.16h-5.75V19.4h5.43Z"/><path class="cls-2" d="M160.33,22c-.09-1.86-.2-4.1-.18-6h-.06c-.47,1.76-1.07,3.7-1.71,5.52l-2.1,6.24h-2l-1.92-6.16c-.56-1.83-1.07-3.8-1.45-5.6h0c-.06,1.88-.15,4.17-.25,6.14L150.34,28H147.8l1-14.41h3.46l1.88,5.8c.52,1.68,1,3.4,1.33,5h.06c.39-1.56.88-3.34,1.44-5l2-5.77h3.42L163.23,28H160.6Z"/><path class="cls-2" d="M170.19,25.06a7.36,7.36,0,0,0,3.49.92c1.69,0,2.63-.8,2.63-2s-.73-1.73-2.57-2.4c-2.37-.85-3.89-2.11-3.89-4.18,0-2.36,2-4.15,5.09-4.15a7.66,7.66,0,0,1,3.46.72l-.64,2.12a6.06,6.06,0,0,0-2.86-.68c-1.67,0-2.4.89-2.4,1.73,0,1.11.84,1.62,2.76,2.37,2.5.94,3.72,2.2,3.72,4.28,0,2.31-1.75,4.32-5.47,4.32a8.61,8.61,0,0,1-3.89-.9Z"/><path class="cls-2" d="M194.13,20.57c0,4.83-2.93,7.59-6.9,7.59s-6.63-3.1-6.63-7.34c0-4.42,2.78-7.54,6.84-7.54C191.65,13.28,194.13,16.46,194.13,20.57Zm-10.75.21c0,2.93,1.47,5.26,4,5.26s4-2.35,4-5.37c0-2.71-1.34-5.28-4-5.28S183.38,17.81,183.38,20.78Z"/><path class="cls-2" d="M208.6,22c-.09-1.86-.2-4.1-.17-6h-.07c-.47,1.76-1.07,3.7-1.71,5.52l-2.09,6.24h-2l-2-6.21c-.55-1.83-1.07-3.8-1.45-5.6h-.05c-.06,1.88-.14,4.17-.25,6.14l-.32,5.79h-2.46l1-14.41h3.46l1.89,5.8c.51,1.68,1,3.4,1.32,5h.06c.39-1.56.88-3.34,1.44-5l2-5.77h3.36L211.43,28h-2.57Z"/><path class="cls-2" d="M226.85,20.57c0,4.83-2.93,7.59-6.91,7.59s-6.62-3.1-6.62-7.34c0-4.42,2.78-7.54,6.84-7.54S226.85,16.46,226.85,20.57Zm-10.75.21c0,2.93,1.47,5.26,4,5.26s4-2.35,4-5.37c0-2.71-1.35-5.28-4-5.28S216.1,17.81,216.1,20.78Z"/><path class="cls-2" d="M229.05,25.06a7.29,7.29,0,0,0,3.48.92c1.69,0,2.63-.8,2.63-2s-.73-1.73-2.57-2.4c-2.37-.85-3.89-2.11-3.89-4.18,0-2.36,2-4.15,5.09-4.15a7.66,7.66,0,0,1,3.46.72l-.65,2.15a6.06,6.06,0,0,0-2.86-.68c-1.67,0-2.4.89-2.4,1.73,0,1.11.84,1.62,2.76,2.37,2.5.94,3.72,2.2,3.72,4.28,0,2.31-1.75,4.32-5.47,4.32a8.61,8.61,0,0,1-3.89-.9Z"/></g></g></svg>