<?xml version="1.0" encoding="UTF-8"?>
<svg width="92px" height="257px" viewBox="0 0 92 257" version="1.1" xmlns="http://www.w3.org/2000/svg" xmlns:xlink="http://www.w3.org/1999/xlink">
    <!-- Generator: Sketch 54 (76480) - https://sketchapp.com -->
    <title>woman_holding_fb</title>
    <desc>Created with Sketch.</desc>
    <g id="Page-1" stroke="none" stroke-width="1" fill="none" fill-rule="evenodd">
        <g id="home" transform="translate(-448.000000, -695.000000)">
            <g id="quem_somos" transform="translate(193.000000, 589.000000)">
                <g id="woman_holding_fb" transform="translate(255.000000, 106.000000)">
                    <path d="M17.3773172,125.074926 C14.5773172,125.074926 16.9473172,210.014926 19.7973172,246.584926 L25.9773172,246.584926 C25.9773172,246.584926 33.3773172,203.954926 35.1673172,185.694926 C35.3873172,183.404926 35.7073172,181.124926 36.1073172,178.854926 C37.6773172,169.854926 41.5473172,148.204926 43.2973172,143.184926 C43.2973172,143.184926 48.3873172,151.364926 48.6673172,190.114926 C48.9473172,228.864926 48.6673172,246.584926 48.6673172,246.584926 L55.6173172,246.584926 C55.6173172,246.584926 61.8773172,212.744926 64.7473172,185.874926 C67.6173172,159.004926 69.3773172,139.124926 68.6673172,129.954926 L68.0873172,121.074926 L17.3773172,125.074926 Z" id="Path" fill="#350B39" fill-rule="nonzero"></path>
                    <path d="M42.5273172,0.014926418 C42.5273172,0.014926418 27.9373172,0.214926418 26.5273172,17.2149264 C25.1173172,34.2149264 25.2373172,40.7249264 25.2373172,40.7249264 C39.2373172,39.8449264 64.9673172,40.7249264 64.9673172,40.7249264 C64.9673172,40.7249264 65.4373172,21.1649264 63.6673172,14.0549264 C61.8973172,6.94492642 56.4473172,-0.375073582 42.5273172,0.014926418 Z" id="Path" fill="#350B39"></path>
                    <path d="M49.4473172,36.4159255 L49.4473172,46.7149264 L40.8473172,46.7149264 L40.8473172,36.4474265 C36.7237734,34.300037 33.7324166,29.1340565 33.3984308,22.9847944 C42.0245756,21.0126799 48.6142619,13.6326023 51.9614931,9.08808324 C54.932197,11.9336209 56.8673172,16.5827029 56.8673172,21.8349264 C56.8673172,28.4541601 53.7937907,34.1154318 49.4473172,36.4159255 Z" id="Combined-Shape" fill="#D27756" fill-rule="nonzero"></path>
                    <path d="M40.9654645,36.5079699 C42.2563671,37.1587804 43.6556752,37.5149264 45.1173172,37.5149264 C46.6464592,37.5149264 48.1073772,37.1251265 49.4473172,36.4159255 L49.4473172,37.3149264 C45.2773172,41.1249264 41.0173172,37.3149264 41.0173172,37.3149264 L40.9654645,36.5079699 Z" id="Combined-Shape" fill="#AA5D45" fill-rule="nonzero"></path>
                    <path d="M28.9673172,46.6649264 C28.9673172,46.6649264 30.3273172,43.6649264 43.2973172,43.4549264 C56.4773172,43.2049264 63.2373172,46.9449264 63.2373172,46.9449264 L68.6573172,129.944926 C68.6573172,129.944926 37.7573172,140.724926 16.6573172,127.374926 L28.9273172,46.6549264 L28.9673172,46.6649264 Z" id="Path" fill="#E5B81D" fill-rule="nonzero"></path>
                    <path d="M11.880762,87.306757 C9.59573921,88.4365854 7.11211952,89.1959556 4.51731716,89.5249264 C4.51731716,89.5249264 1.51731716,89.6649264 0.847317163,88.5249264 C0.600593127,88.1051273 0.0826605816,87.0452761 0.058532393,85.5950507 C-0.995863575,76.2569652 12.4659983,53.1244032 18.5873172,48.6449264 C22.7173172,45.6149264 35.4173172,43.4149264 35.4173172,43.4149264 L30.3673172,129.594926 C18.3073172,129.834926 11.0173172,125.044926 11.0173172,125.044926 L11.880762,87.306757 Z" id="Combined-Shape" fill="#C89DC6" fill-rule="nonzero"></path>
                    <path d="M90.7864189,86.7655885 C90.6111125,87.6126658 90.3015722,88.2284328 90.1273172,88.5249264 C89.4573172,89.6649264 86.4573172,89.5249264 86.4573172,89.5249264 C82.4998444,89.0231953 78.800993,87.5203147 75.6708784,85.2289351 L76.6173172,127.354926 C68.2373172,131.234926 55.6173172,129.924926 55.6173172,129.924926 L55.6173172,43.4149264 C58.1873172,43.9649264 60.3773172,44.5149264 62.1973172,45.0249264 C67.1894625,46.5152004 71.6335824,49.4396956 74.9773172,53.4349264 C91.4102574,72.9532968 91.6473252,83.018356 90.7864189,86.7655885 Z" id="Combined-Shape" fill="#C89DC6" fill-rule="nonzero"></path>
                    <path d="M20.1280642,74.5691596 L25.2973172,68.2049264 C25.2973172,68.2049264 33.1373172,73.1249264 27.9773172,76.6349264 C21.7573172,80.8649264 11.6173172,98.0449264 11.6173172,98.0449264 L11.834356,87.3296381 C16.1109946,85.2269124 19.6956716,81.8281449 22.0173172,77.5249264 L20.1280642,74.5691596 Z M4.41678119,78.2979847 C5.42931894,77.5173381 6.66203036,76.7283725 8.15731716,75.9449264 C9.50768467,75.1853059 10.9074947,74.5171388 12.3473172,73.9449264 L15.1373172,72.9449264 L18.2745842,71.7138469 C18.0232376,71.6652247 17.7565906,71.6787084 17.4973172,71.7649264 C11.8609628,73.5779537 6.71878497,74.88798 4.41678119,78.2979847 L4.41678119,78.2979847 Z M18.3072999,71.7205446 C18.7960761,71.8261434 19.2225833,72.1674224 19.4173172,72.6649264 C19.388042,72.8801952 19.3542249,73.0914537 19.3160488,73.2987484 L18.3072999,71.7205446 Z" id="Shape" fill="#5E2962" fill-rule="nonzero" opacity="0.57"></path>
                    <polygon id="Path" fill="#F6E9E3" points="22.3473172 48.5349264 24.3673172 78.3049264 44.3273172 79.8449264 44.3273172 48.5349264"></polygon>
                    <path d="M75.6702858,85.2285014 L75.9173172,96.2049264 C75.9173172,96.2049264 69.2473172,80.8649264 63.0273172,76.6349264 C57.8673172,73.1249264 65.7073172,68.2049264 65.7073172,68.2049264 L70.4381674,75.2081124 L68.9573172,77.5249264 C70.6182419,80.6034851 72.9255977,83.2191374 75.6702858,85.2285014 L75.6702858,85.2285014 Z M72.6673344,71.7205446 L71.6585856,73.2987484 C71.6204094,73.0914537 71.5865923,72.8801952 71.5573172,72.6649264 C71.7520511,72.1674224 72.1785583,71.8261434 72.6673344,71.7205446 L72.6673344,71.7205446 Z M72.7000501,71.7138469 L75.8373172,72.9449264 L78.6273172,73.9449264 C80.0671396,74.5171388 81.4669497,75.1853059 82.8173172,75.9449264 C84.312604,76.7283725 85.5453154,77.5173381 86.5578531,78.2979847 C84.2558494,74.88798 79.1136715,73.5779537 73.4773172,71.7649264 C73.2180437,71.6787084 72.9513967,71.6652247 72.7000501,71.7138469 L72.7000501,71.7138469 Z" id="Shape" fill="#5E2962" fill-rule="nonzero" opacity="0.57"></path>
                    <path d="M25.9573172,65.4749264 C26.8773172,64.9849264 27.7873172,65.1649264 28.0773172,66.1749264 C29.2173172,70.1749264 25.7973172,74.8749264 24.6273172,75.8249264 C23.0173172,77.1249264 18.6273172,78.3649264 17.4573172,80.2049264 C16.2873172,82.0449264 15.7373172,74.9349264 15.7373172,74.9349264 L23.2073172,63.0149264 L23.8773172,66.5849264 L25.9573172,65.4749264 Z" id="Path" fill="#D27756"></path>
                    <polygon id="Path" fill="#F6E9E3" points="67.4073172 48.5349264 65.3873172 78.3049264 44.3273172 79.8449264 45.1473172 48.5349264"></polygon>
                    <polygon id="Path" fill="#161946" fill-rule="nonzero" points="26.1173172 246.584926 26.1173172 252.914926 6.21731716 256.904926 19.7973172 246.584926"></polygon>
                    <polygon id="Path" fill="#161946" fill-rule="nonzero" points="48.9173172 246.584926 48.9173172 252.914926 68.8173172 256.904926 55.2373172 246.584926"></polygon>
                    <path d="M63.6173172,64.6349264 C62.6973172,64.1449264 61.7873172,64.3149264 61.4973172,65.3249264 C60.3573172,69.3249264 63.7673172,74.0249264 64.9473172,74.9849264 C66.5573172,76.2849264 70.9473172,77.5149264 72.1173172,79.3549264 C73.2873172,81.1949264 73.8373172,74.0849264 73.8373172,74.0849264 L66.3673172,62.1749264 L65.6973172,65.7449264 L63.6173172,64.6349264 Z" id="Path" fill="#D27756"></path>
                    <polygon id="Path" fill="#AA5D45" fill-rule="nonzero" points="44.8173172 21.8349264 43.4273172 30.6849264 46.8673172 30.6849264"></polygon>
                    <polygon id="Path" fill="#3C5A9A" points="42.9673172 48.5349264 46.3973172 48.5349264 45.6773172 79.8449264 42.9673172 79.8449264"></polygon>
                    <path d="M57.6673172,74.7749264 L57.6673172,64.2049264 L61.2173172,64.2049264 L61.7473172,60.0849264 L57.6673172,60.0849264 L57.6673172,57.4149264 C57.6673172,56.2249264 57.9973172,55.4149264 59.6673172,55.4149264 L61.8473172,55.4149264 L61.8473172,51.7349264 C60.7913089,51.6190988 59.7296555,51.5623437 58.6673172,51.5649264 C55.5273172,51.5649264 53.3673172,53.4849264 53.3673172,57.0149264 L53.3673172,60.0149264 L49.8073172,60.0149264 L49.8073172,64.1349264 L53.3673172,64.1349264 L53.3673172,74.7049264 L57.6673172,74.7749264 Z" id="Path" fill="#3C5A9A" fill-rule="nonzero"></path>
                </g>
            </g>
        </g>
    </g>
</svg>