<?xml version="1.0" encoding="UTF-8"?>
<svg width="1437px" height="989px" viewBox="0 0 1437 989" version="1.1" xmlns="http://www.w3.org/2000/svg" xmlns:xlink="http://www.w3.org/1999/xlink">
    <!-- Generator: Sketch 54 (76480) - https://sketchapp.com -->
    <title>home</title>
    <desc>Created with Sketch.</desc>
    <defs>
        <linearGradient x1="49.9649605%" y1="39.4803483%" x2="50.0315703%" y2="59.4125925%" id="linearGradient-1">
            <stop stop-color="#E0A8AA" offset="17%"></stop>
            <stop stop-color="#ECD350" offset="100%"></stop>
        </linearGradient>
    </defs>
    <g id="home" stroke="none" stroke-width="1" fill="none" fill-rule="evenodd">
        <rect id="Rectangle" fill="#FFFFFF" x="-11" y="732" width="1449" height="259"></rect>
        <rect id="Rectangle" fill="url(#linearGradient-1)" fill-rule="nonzero" x="-2" y="-50" width="1441" height="672"></rect>
        <g id="cloud" transform="translate(-2.000000, 82.000000)" fill="#FFFFFF" fill-rule="nonzero">
            <path d="M209.44,101.160358 C206.206497,99.743375 203.793396,96.932121 202.882787,93.5212309 C201.972179,90.1103408 202.663007,86.470428 204.76,83.6303579 C210.361843,75.7032438 219.524921,71.063663 229.23,71.2403579 C251.14,71.2403579 274.74,61.2403579 294.13,39.4403579 C313.52,17.6403579 342.13,-10.5596421 437.41,4.01035787 C532.69,18.5803579 647.09,27.1903579 639.69,45.6203579 C628.09,74.5403579 270.99,128.710358 209.44,101.160358 Z" id="Path"></path>
            <path d="M1220.74,24.9403579 C1220.74,24.9403579 1265.55,-6.05964213 1297.74,10.2003579 C1329.93,26.4603579 1348.15,27.8303579 1363.07,30.0603579 C1377.99,32.2903579 1407.81,39.9203579 1401.2,55.6503579 C1394.59,71.3803579 1249.34,78.7903579 1225.93,58.6503579 C1202.52,38.5103579 1220.74,24.9403579 1220.74,24.9403579 Z" id="Path"></path>
            <path d="M0,143.960358 C0,143.960358 58,106.570358 97,127.780358 C136,148.990358 163.57,181.640358 210.05,166.570358 C256.53,151.500358 275.37,172.850358 333.15,179.130358 C390.93,185.410358 360.39,188.580358 360.39,188.580358 L0,188.580358 L0,143.960358 Z" id="Path"></path>
            <path d="M1099.23,100.240358 C1055.1,104.480358 1042.49,129.390358 996.02,114.320358 C949.55,99.2503579 912.86,128.450358 855.08,134.730358 C797.3,141.010358 827.84,144.180358 827.84,144.180358 L1188.18,144.180358 C1188.18,144.180358 1141.53,96.1403579 1099.23,100.240358 Z" id="Path"></path>
        </g>
        <g id="building-1" transform="translate(43.000000, 302.000000)" fill-rule="nonzero">
            <polygon id="Path" fill="#EED1B8" points="0 101.91 0 298.96 183.15 298.96 181.34 83.17 119.75 82.94 119.75 49.28 12.17 0 12.17 101.91"></polygon>
            <rect id="Rectangle" fill="#EFBE9A" x="25.55" y="52.2" width="12.6" height="15"></rect>
            <rect id="Rectangle" fill="#EFBE9A" x="48.58" y="52.2" width="12.6" height="15"></rect>
            <rect id="Rectangle" fill="#EFBE9A" x="71.6" y="52.2" width="12.6" height="15"></rect>
            <rect id="Rectangle" fill="#EFBE9A" x="94.62" y="52.2" width="12.6" height="15"></rect>
            <rect id="Rectangle" fill="#EFBE9A" x="25.55" y="80.8" width="12.6" height="15"></rect>
            <rect id="Rectangle" fill="#EFBE9A" x="48.58" y="80.8" width="12.6" height="15"></rect>
            <rect id="Rectangle" fill="#EFBE9A" x="71.6" y="80.8" width="12.6" height="15"></rect>
            <rect id="Rectangle" fill="#EFBE9A" x="94.62" y="80.8" width="12.6" height="15"></rect>
            <rect id="Rectangle" fill="#EFBE9A" x="25.55" y="108.92" width="12.6" height="15"></rect>
            <rect id="Rectangle" fill="#EFBE9A" x="48.58" y="108.92" width="12.6" height="15"></rect>
            <rect id="Rectangle" fill="#EFBE9A" x="71.6" y="108.92" width="12.6" height="15"></rect>
            <rect id="Rectangle" fill="#EFBE9A" x="94.62" y="108.92" width="12.6" height="15"></rect>
            <rect id="Rectangle" fill="#EFBE9A" x="25.55" y="134.93" width="12.6" height="15"></rect>
            <rect id="Rectangle" fill="#EFBE9A" x="48.58" y="134.93" width="12.6" height="15"></rect>
            <rect id="Rectangle" fill="#EFBE9A" x="71.6" y="134.93" width="12.6" height="15"></rect>
            <rect id="Rectangle" fill="#EFBE9A" x="94.62" y="134.93" width="12.6" height="15"></rect>
            <rect id="Rectangle" fill="#EFBE9A" x="25.55" y="160.79" width="12.6" height="15"></rect>
            <rect id="Rectangle" fill="#EFBE9A" x="48.58" y="160.79" width="12.6" height="15"></rect>
            <rect id="Rectangle" fill="#EFBE9A" x="71.6" y="160.79" width="12.6" height="15"></rect>
            <rect id="Rectangle" fill="#EFBE9A" x="94.62" y="160.79" width="12.6" height="15"></rect>
            <rect id="Rectangle" fill="#EFBE9A" x="26.64" y="187.77" width="12.6" height="15"></rect>
            <rect id="Rectangle" fill="#EFBE9A" x="49.67" y="187.77" width="12.6" height="15"></rect>
            <rect id="Rectangle" fill="#EFBE9A" x="72.69" y="187.77" width="12.6" height="15"></rect>
            <rect id="Rectangle" fill="#EFBE9A" x="95.71" y="187.77" width="12.6" height="15"></rect>
            <rect id="Rectangle" fill="#EFBE9A" x="26.64" y="216.37" width="12.6" height="15"></rect>
            <rect id="Rectangle" fill="#EFBE9A" x="49.67" y="216.37" width="12.6" height="15"></rect>
            <rect id="Rectangle" fill="#EFBE9A" x="72.69" y="216.37" width="12.6" height="15"></rect>
            <rect id="Rectangle" fill="#EFBE9A" x="95.71" y="216.37" width="12.6" height="15"></rect>
            <rect id="Rectangle" fill="#EFBE9A" x="26.64" y="244.49" width="12.6" height="15"></rect>
            <rect id="Rectangle" fill="#EFBE9A" x="49.67" y="244.49" width="12.6" height="15"></rect>
            <rect id="Rectangle" fill="#EFBE9A" x="72.69" y="244.49" width="12.6" height="15"></rect>
            <rect id="Rectangle" fill="#EFBE9A" x="95.71" y="244.49" width="12.6" height="15"></rect>
            <rect id="Rectangle" fill="#EFBE9A" x="26.64" y="270.5" width="12.6" height="15"></rect>
            <rect id="Rectangle" fill="#EFBE9A" x="49.67" y="270.5" width="12.6" height="15"></rect>
            <rect id="Rectangle" fill="#EFBE9A" x="72.69" y="270.5" width="12.6" height="15"></rect>
            <rect id="Rectangle" fill="#EFBE9A" x="95.71" y="270.5" width="12.6" height="15"></rect>
        </g>
        <g id="building-2" transform="translate(281.000000, 168.000000)" fill-rule="nonzero">
            <polygon id="Path" fill="#EED1B8" points="2.15 0 0 302.9 132.46 302.9 132.46 0"></polygon>
            <rect id="Rectangle" fill="#EFBE9A" x="25.27" y="33.12" width="16.57" height="27.71"></rect>
            <rect id="Rectangle" fill="#EFBE9A" x="60.13" y="33.12" width="16.57" height="27.71"></rect>
            <rect id="Rectangle" fill="#EFBE9A" x="92.22" y="33.12" width="16.57" height="27.71"></rect>
            <rect id="Rectangle" fill="#EFBE9A" x="25.27" y="76" width="16.57" height="27.71"></rect>
            <rect id="Rectangle" fill="#EFBE9A" x="60.13" y="76" width="16.57" height="27.71"></rect>
            <rect id="Rectangle" fill="#EFBE9A" x="92.22" y="76" width="16.57" height="27.71"></rect>
            <rect id="Rectangle" fill="#EFBE9A" x="26.66" y="119.93" width="16.57" height="27.71"></rect>
            <rect id="Rectangle" fill="#EFBE9A" x="61.52" y="119.93" width="16.57" height="27.71"></rect>
            <rect id="Rectangle" fill="#EFBE9A" x="93.6" y="119.93" width="16.57" height="27.71"></rect>
            <rect id="Rectangle" fill="#EFBE9A" x="26.66" y="163.52" width="16.57" height="27.71"></rect>
            <rect id="Rectangle" fill="#EFBE9A" x="61.52" y="163.52" width="16.57" height="27.71"></rect>
            <rect id="Rectangle" fill="#EFBE9A" x="93.6" y="163.52" width="16.57" height="27.71"></rect>
            <rect id="Rectangle" fill="#EFBE9A" x="28.05" y="206.81" width="16.57" height="27.71"></rect>
            <rect id="Rectangle" fill="#EFBE9A" x="62.9" y="206.81" width="16.57" height="27.71"></rect>
            <rect id="Rectangle" fill="#EFBE9A" x="94.99" y="206.81" width="16.57" height="27.71"></rect>
        </g>
        <g id="building-3" transform="translate(506.000000, 54.000000)" fill-rule="nonzero">
            <polygon id="Path" fill="#EED1B8" points="-2.84217094e-14 0 -2.84217094e-14 396.76 176.58 396.76 176.58 7.34 20.85 7.34 20.86 0"></polygon>
            <rect id="Rectangle" fill="#EFBE9A" x="26.41" y="40.78" width="19.09" height="25.33"></rect>
            <rect id="Rectangle" fill="#EFBE9A" x="61.3" y="40.78" width="19.09" height="25.33"></rect>
            <rect id="Rectangle" fill="#EFBE9A" x="96.19" y="40.78" width="19.09" height="25.33"></rect>
            <rect id="Rectangle" fill="#EFBE9A" x="131.09" y="40.78" width="19.09" height="25.33"></rect>
            <rect id="Rectangle" fill="#EFBE9A" x="26.41" y="89.08" width="19.09" height="25.33"></rect>
            <rect id="Rectangle" fill="#EFBE9A" x="61.3" y="89.08" width="19.09" height="25.33"></rect>
            <rect id="Rectangle" fill="#EFBE9A" x="96.19" y="89.08" width="19.09" height="25.33"></rect>
            <rect id="Rectangle" fill="#EFBE9A" x="131.09" y="89.08" width="19.09" height="25.33"></rect>
            <rect id="Rectangle" fill="#EFBE9A" x="26.41" y="136.56" width="19.09" height="25.33"></rect>
            <rect id="Rectangle" fill="#EFBE9A" x="61.3" y="136.56" width="19.09" height="25.33"></rect>
            <rect id="Rectangle" fill="#EFBE9A" x="96.19" y="136.56" width="19.09" height="25.33"></rect>
            <rect id="Rectangle" fill="#EFBE9A" x="131.09" y="136.56" width="19.09" height="25.33"></rect>
            <rect id="Rectangle" fill="#EFBE9A" x="26.41" y="180.49" width="19.09" height="25.33"></rect>
            <rect id="Rectangle" fill="#EFBE9A" x="61.3" y="180.49" width="19.09" height="25.33"></rect>
            <rect id="Rectangle" fill="#EFBE9A" x="96.19" y="180.49" width="19.09" height="25.33"></rect>
            <rect id="Rectangle" fill="#EFBE9A" x="131.09" y="180.49" width="19.09" height="25.33"></rect>
            <rect id="Rectangle" fill="#EFBE9A" x="26.41" y="224.17" width="19.09" height="25.33"></rect>
            <rect id="Rectangle" fill="#EFBE9A" x="61.3" y="224.17" width="19.09" height="25.33"></rect>
            <rect id="Rectangle" fill="#EFBE9A" x="96.19" y="224.17" width="19.09" height="25.33"></rect>
            <rect id="Rectangle" fill="#EFBE9A" x="131.09" y="224.17" width="19.09" height="25.33"></rect>
        </g>
        <g id="building-4" transform="translate(868.000000, 152.000000)" fill-rule="nonzero">
            <rect id="Rectangle" fill="#EED1B8" x="140.23" y="65.17" width="100.14" height="206.92"></rect>
            <polygon id="Path" fill="#EED1B8" points="0 4.23 0 257.27 112.27 257.27 112.27 4.23 102.12 4.23 101.62 0 87.52 0 87.52 4.23"></polygon>
            <rect id="Rectangle" fill="#EFBE9A" x="15.3" y="24.39" width="12.6" height="15"></rect>
            <rect id="Rectangle" fill="#EFBE9A" x="38.32" y="24.39" width="12.6" height="15"></rect>
            <rect id="Rectangle" fill="#EFBE9A" x="61.35" y="24.39" width="12.6" height="15"></rect>
            <rect id="Rectangle" fill="#EFBE9A" x="84.37" y="24.39" width="12.6" height="15"></rect>
            <rect id="Rectangle" fill="#EFBE9A" x="15.3" y="52.98" width="12.6" height="15"></rect>
            <rect id="Rectangle" fill="#EFBE9A" x="38.32" y="52.98" width="12.6" height="15"></rect>
            <rect id="Rectangle" fill="#EFBE9A" x="61.35" y="52.98" width="12.6" height="15"></rect>
            <rect id="Rectangle" fill="#EFBE9A" x="84.37" y="52.98" width="12.6" height="15"></rect>
            <rect id="Rectangle" fill="#EFBE9A" x="15.3" y="81.1" width="12.6" height="15"></rect>
            <rect id="Rectangle" fill="#EFBE9A" x="38.32" y="81.1" width="12.6" height="15"></rect>
            <rect id="Rectangle" fill="#EFBE9A" x="61.35" y="81.1" width="12.6" height="15"></rect>
            <rect id="Rectangle" fill="#EFBE9A" x="84.37" y="81.1" width="12.6" height="15"></rect>
            <rect id="Rectangle" fill="#EFBE9A" x="15.3" y="107.11" width="12.6" height="15"></rect>
            <rect id="Rectangle" fill="#EFBE9A" x="38.32" y="107.11" width="12.6" height="15"></rect>
            <rect id="Rectangle" fill="#EFBE9A" x="61.35" y="107.11" width="12.6" height="15"></rect>
            <rect id="Rectangle" fill="#EFBE9A" x="84.37" y="107.11" width="12.6" height="15"></rect>
            <rect id="Rectangle" fill="#EFBE9A" x="15.3" y="132.97" width="12.6" height="15"></rect>
            <rect id="Rectangle" fill="#EFBE9A" x="38.32" y="132.97" width="12.6" height="15"></rect>
            <rect id="Rectangle" fill="#EFBE9A" x="61.35" y="132.97" width="12.6" height="15"></rect>
            <rect id="Rectangle" fill="#EFBE9A" x="84.37" y="132.97" width="12.6" height="15"></rect>
            <rect id="Rectangle" fill="#EFBE9A" x="16.39" y="159.96" width="12.6" height="15"></rect>
            <rect id="Rectangle" fill="#EFBE9A" x="39.42" y="159.96" width="12.6" height="15"></rect>
            <rect id="Rectangle" fill="#EFBE9A" x="62.44" y="159.96" width="12.6" height="15"></rect>
            <rect id="Rectangle" fill="#EFBE9A" x="85.46" y="159.96" width="12.6" height="15"></rect>
            <rect id="Rectangle" fill="#EFBE9A" x="16.39" y="188.55" width="12.6" height="15"></rect>
            <rect id="Rectangle" fill="#EFBE9A" x="39.42" y="188.55" width="12.6" height="15"></rect>
            <rect id="Rectangle" fill="#EFBE9A" x="62.44" y="188.55" width="12.6" height="15"></rect>
            <rect id="Rectangle" fill="#EFBE9A" x="85.46" y="188.55" width="12.6" height="15"></rect>
            <rect id="Rectangle" fill="#EFBE9A" x="16.39" y="216.67" width="12.6" height="15"></rect>
            <rect id="Rectangle" fill="#EFBE9A" x="39.42" y="216.67" width="12.6" height="15"></rect>
            <rect id="Rectangle" fill="#EFBE9A" x="62.44" y="216.67" width="12.6" height="15"></rect>
            <rect id="Rectangle" fill="#EFBE9A" x="85.46" y="216.67" width="12.6" height="15"></rect>
            <rect id="Rectangle" fill="#EFBE9A" x="16.39" y="242.69" width="12.6" height="15"></rect>
            <rect id="Rectangle" fill="#EFBE9A" x="39.42" y="242.69" width="12.6" height="15"></rect>
            <rect id="Rectangle" fill="#EFBE9A" x="62.44" y="242.69" width="12.6" height="15"></rect>
            <rect id="Rectangle" fill="#EFBE9A" x="85.46" y="242.69" width="12.6" height="15"></rect>
            <rect id="Rectangle" fill="#EFBE9A" x="151.86" y="78.69" width="16.51" height="16.27"></rect>
            <rect id="Rectangle" fill="#EFBE9A" x="182.04" y="78.69" width="16.51" height="16.27"></rect>
            <rect id="Rectangle" fill="#EFBE9A" x="212.22" y="78.69" width="16.51" height="16.27"></rect>
            <rect id="Rectangle" fill="#EFBE9A" x="151.86" y="109.7" width="16.51" height="16.27"></rect>
            <rect id="Rectangle" fill="#EFBE9A" x="182.04" y="109.7" width="16.51" height="16.27"></rect>
            <rect id="Rectangle" fill="#EFBE9A" x="212.22" y="109.7" width="16.51" height="16.27"></rect>
            <rect id="Rectangle" fill="#EFBE9A" x="151.86" y="140.2" width="16.51" height="16.27"></rect>
            <rect id="Rectangle" fill="#EFBE9A" x="182.04" y="140.2" width="16.51" height="16.27"></rect>
            <rect id="Rectangle" fill="#EFBE9A" x="212.22" y="140.2" width="16.51" height="16.27"></rect>
            <rect id="Rectangle" fill="#EFBE9A" x="151.86" y="168.42" width="16.51" height="16.27"></rect>
            <rect id="Rectangle" fill="#EFBE9A" x="182.04" y="168.42" width="16.51" height="16.27"></rect>
            <rect id="Rectangle" fill="#EFBE9A" x="212.22" y="168.42" width="16.51" height="16.27"></rect>
            <rect id="Rectangle" fill="#EFBE9A" x="151.86" y="196.47" width="16.51" height="16.27"></rect>
            <rect id="Rectangle" fill="#EFBE9A" x="182.04" y="196.47" width="16.51" height="16.27"></rect>
            <rect id="Rectangle" fill="#EFBE9A" x="212.22" y="196.47" width="16.51" height="16.27"></rect>
            <rect id="Rectangle" fill="#EFBE9A" x="151.86" y="222.85" width="16.51" height="16.27"></rect>
            <rect id="Rectangle" fill="#EFBE9A" x="182.04" y="222.85" width="16.51" height="16.27"></rect>
            <rect id="Rectangle" fill="#EFBE9A" x="212.22" y="222.85" width="16.51" height="16.27"></rect>
            <rect id="Rectangle" fill="#EFBE9A" x="151.86" y="250.9" width="16.51" height="16.27"></rect>
            <rect id="Rectangle" fill="#EFBE9A" x="182.04" y="250.9" width="16.51" height="16.27"></rect>
            <rect id="Rectangle" fill="#EFBE9A" x="212.22" y="250.9" width="16.51" height="16.27"></rect>
            <rect id="Rectangle" fill="#BA533E" opacity="0.14" x="8.46" y="219.42" width="5.16" height="33.02"></rect>
            <rect id="Rectangle" fill="#BA533E" opacity="0.14" x="209.19" y="219.49" width="5.16" height="33.02"></rect>
        </g>
        <g id="building-5" transform="translate(1246.000000, 196.000000)" fill-rule="nonzero">
            <polygon id="Path" fill="#EED1B8" points="148.47 226.41 148.47 226.41 148.44 0 129.61 0 129.61 7.18 0 7.18 0 410.81 148.47 410.42"></polygon>
            <rect id="Rectangle" fill="#EFBE9A" x="98.68" y="28.07" width="12.6" height="15"></rect>
            <rect id="Rectangle" fill="#EFBE9A" x="121.7" y="28.07" width="12.6" height="15"></rect>
            <rect id="Rectangle" fill="#EFBE9A" x="98.68" y="56.67" width="12.6" height="15"></rect>
            <rect id="Rectangle" fill="#EFBE9A" x="121.7" y="56.67" width="12.6" height="15"></rect>
            <rect id="Rectangle" fill="#EFBE9A" x="98.68" y="84.79" width="12.6" height="15"></rect>
            <rect id="Rectangle" fill="#EFBE9A" x="121.7" y="84.79" width="12.6" height="15"></rect>
            <rect id="Rectangle" fill="#EFBE9A" x="98.68" y="110.8" width="12.6" height="15"></rect>
            <rect id="Rectangle" fill="#EFBE9A" x="121.7" y="110.8" width="12.6" height="15"></rect>
            <rect id="Rectangle" fill="#EFBE9A" x="98.68" y="136.66" width="12.6" height="15"></rect>
            <rect id="Rectangle" fill="#EFBE9A" x="121.7" y="136.66" width="12.6" height="15"></rect>
            <rect id="Rectangle" fill="#EFBE9A" x="99.77" y="163.64" width="12.6" height="15"></rect>
            <rect id="Rectangle" fill="#EFBE9A" x="122.8" y="163.64" width="12.6" height="15"></rect>
            <rect id="Rectangle" fill="#EFBE9A" x="99.77" y="192.24" width="12.6" height="15"></rect>
            <rect id="Rectangle" fill="#EFBE9A" x="122.8" y="192.24" width="12.6" height="15"></rect>
            <rect id="Rectangle" fill="#EFBE9A" x="99.77" y="220.36" width="12.6" height="15"></rect>
            <rect id="Rectangle" fill="#EFBE9A" x="122.8" y="220.36" width="12.6" height="15"></rect>
            <rect id="Rectangle" fill="#EFBE9A" x="99.77" y="246.37" width="12.6" height="15"></rect>
            <rect id="Rectangle" fill="#EFBE9A" x="122.8" y="246.37" width="12.6" height="15"></rect>
            <rect id="Rectangle" fill="#EFBE9A" x="100.33" y="272.69" width="12.6" height="15"></rect>
            <rect id="Rectangle" fill="#EFBE9A" x="123.35" y="272.69" width="12.6" height="15"></rect>
        </g>
        <rect id="Rectangle" fill="#EED1B8" fill-rule="nonzero" x="1246" y="405" width="19" height="36"></rect>
        <rect id="Rectangle" fill="#EED1B8" fill-rule="nonzero" x="1246" y="405" width="19" height="36"></rect>
        <path d="M1255.475,405 L1255.525,441" id="Path" fill="#EED1B8" fill-rule="nonzero"></path>
        <rect id="Rectangle" fill="#EFBE9A" fill-rule="nonzero" x="1346" y="498" width="13" height="15"></rect>
        <rect id="Rectangle" fill="#EFBE9A" fill-rule="nonzero" x="1369" y="498" width="13" height="15"></rect>
        <rect id="calcada" fill="#FFFFFF" fill-rule="nonzero" x="-1" y="602" width="1440" height="24"></rect>
        <g id="rua" transform="translate(-2.000000, 627.000000)" fill-rule="nonzero">
            <rect id="Rectangle" fill="#C89DC6" x="0" y="-4.4408921e-15" width="1440" height="4.76"></rect>
            <rect id="Rectangle" fill="#C89DC6" x="1.3" y="103.48" width="1440" height="1.76"></rect>
            <rect id="Rectangle" fill="#F6E9E3" x="1.3" y="4.08" width="1440" height="98.88"></rect>
        </g>
        <g id="predio-principal" transform="translate(622.000000, 194.000000)" fill-rule="nonzero">
            <rect id="Rectangle" fill="#E2AE9B" x="1.02" y="0" width="192.04" height="408.06"></rect>
            <g id="Group-15" transform="translate(74.180000, 337.750000)">
                <rect id="Rectangle" fill="#F6E9E3" x="4.85" y="1.08" width="38.22" height="38.22"></rect>
                <path d="M5.45,36.9 L40.62,36.9 L40.62,26.67 L5.45,26.67 L5.45,36.9 Z M43.15,36.9 L45.71,36.9 L45.71,49.49 L0,49.49 L0,36.9 L2.88,36.9 L2.88,0 L43.15,0 L43.15,36.9 Z M5.45,24.54 L40.62,24.54 L40.62,2.7 L5.45,2.7 L5.45,24.54 Z" id="Shape" fill="#D1756A"></path>
            </g>
            <g id="Group-16" transform="translate(133.240000, 338.160000)">
                <rect id="Rectangle" fill="#F6E9E3" x="4.85" y="1.08" width="38.22" height="38.22"></rect>
                <path d="M5.45,26.67 L5.45,36.91 L40.66,36.91 L40.66,26.67 L5.45,26.67 Z M5.45,24.54 L40.66,24.54 L40.66,2.7 L5.45,2.7 L5.45,24.54 Z M2.88,36.91 L2.88,0 L43.15,0 L43.15,36.91 L45.71,36.91 L45.71,49.5 L0,49.5 L0,36.91 L2.88,36.91 Z" id="Shape" fill="#D1756A"></path>
            </g>
            <g id="Group-14" transform="translate(18.880000, 344.510000)">
                <rect id="Rectangle" fill="#DA9682" x="0.42" y="-2.13162821e-14" width="36" height="63.55"></rect>
                <polygon id="Path" fill="#D1756A" points="0 5.68434189e-14 0 63.19 2.12 63.19 2.12 2.04 34.81 2.04 34.81 63.19 36.93 63.19 36.93 5.68434189e-14"></polygon>
                <circle id="Oval" fill="#D1756A" cx="30.16" cy="38.31" r="2.17"></circle>
            </g>
            <g id="Group-5" transform="translate(18.950000, 50.240000)">
                <rect id="Rectangle" fill="#F6E9E3" x="0.9" y="1" width="31.57" height="47.8"></rect>
                <path d="M2,32.89 L2,47.8 L31.57,47.8 L31.57,32.89 L2,32.89 Z M2,30.89 L31.57,30.89 L31.57,2 L2,2 L2,30.89 Z M-5.68434189e-14,0 L33.57,0 L33.57,49.8 L-5.68434189e-14,49.8 L-5.68434189e-14,0 Z" id="Combined-Shape" fill="#D1756A"></path>
            </g>
            <g id="Group-7" transform="translate(141.600000, 50.240000)">
                <rect id="Rectangle" fill="#F6E9E3" x="0.9" y="1" width="31.57" height="47.8"></rect>
                <path d="M2,32.89 L2,47.8 L31.57,47.8 L31.57,32.89 L2,32.89 Z M2,30.89 L31.57,30.89 L31.57,2 L2,2 L2,30.89 Z M-5.68434189e-14,0 L33.57,0 L33.57,49.8 L-5.68434189e-14,49.8 L-5.68434189e-14,0 Z" id="Combined-Shape" fill="#D1756A"></path>
            </g>
            <g id="Group-6" transform="translate(81.090000, 50.240000)">
                <rect id="Rectangle" fill="#F6E9E3" x="0.9" y="1" width="31.57" height="47.8"></rect>
                <path d="M2,32.89 L2,47.8 L31.57,47.8 L31.57,32.89 L2,32.89 Z M2,30.89 L31.57,30.89 L31.57,2 L2,2 L2,30.89 Z M-5.68434189e-14,0 L33.57,0 L33.57,49.8 L-5.68434189e-14,49.8 L-5.68434189e-14,0 Z" id="Combined-Shape" fill="#D1756A"></path>
            </g>
            <g id="Group-8" transform="translate(18.300000, 153.760000)">
                <rect id="Rectangle" fill="#F6E9E3" x="0.9" y="1" width="31.57" height="47.8"></rect>
                <path d="M2,32.89 L2,47.8 L31.57,47.8 L31.57,32.89 L2,32.89 Z M2,30.89 L31.57,30.89 L31.57,2 L2,2 L2,30.89 Z M-5.68434189e-14,0 L33.57,0 L33.57,49.8 L-5.68434189e-14,49.8 L-5.68434189e-14,0 Z" id="Combined-Shape" fill="#D1756A"></path>
            </g>
            <g id="Group-10" transform="translate(140.940000, 153.760000)">
                <rect id="Rectangle" fill="#F6E9E3" x="0.91" y="1" width="31.57" height="47.8"></rect>
                <path d="M2,32.89 L2,47.8 L31.57,47.8 L31.57,32.89 L2,32.89 Z M2,30.89 L31.57,30.89 L31.57,2 L2,2 L2,30.89 Z M-5.68434189e-14,0 L33.57,0 L33.57,49.8 L-5.68434189e-14,49.8 L-5.68434189e-14,0 Z" id="Combined-Shape" fill="#D1756A"></path>
            </g>
            <g id="Group-9" transform="translate(80.440000, 153.760000)">
                <rect id="Rectangle" fill="#F6E9E3" x="0.9" y="1" width="31.57" height="47.8"></rect>
                <path d="M2,32.89 L2,47.8 L31.57,47.8 L31.57,32.89 L2,32.89 Z M2,30.89 L31.57,30.89 L31.57,2 L2,2 L2,30.89 Z M0,0 L33.57,0 L33.57,49.8 L0,49.8 L0,0 Z" id="Shape" fill="#D1756A"></path>
            </g>
            <g id="Group-11" transform="translate(19.720000, 248.940000)">
                <rect id="Rectangle" fill="#F6E9E3" x="0.9" y="1" width="31.57" height="47.8"></rect>
                <path d="M2,32.89 L2,47.8 L31.57,47.8 L31.57,32.89 L2,32.89 Z M2,30.89 L31.57,30.89 L31.57,2 L2,2 L2,30.89 L2,30.89 Z M0,0 L33.57,0 L33.57,49.8 L0,49.8 L0,0 Z" id="Shape" fill="#D1756A"></path>
            </g>
            <g id="Group-13" transform="translate(142.370000, 248.940000)">
                <rect id="Rectangle" fill="#F6E9E3" x="0.9" y="1" width="31.57" height="47.8"></rect>
                <path d="M2,32.89 L2,47.8 L31.57,47.8 L31.57,32.89 L2,32.89 Z M2,30.89 L31.57,30.89 L31.57,2 L2,2 L2,30.89 Z M0,0 L33.57,0 L33.57,49.8 L0,49.8 L0,0 Z" id="Shape" fill="#D1756A"></path>
            </g>
            <g id="Group-12" transform="translate(81.860000, 248.940000)">
                <rect id="Rectangle" fill="#F6E9E3" x="0.9" y="1" width="31.57" height="47.8"></rect>
                <path d="M2,32.89 L2,47.8 L31.57,47.8 L31.57,32.89 L2,32.89 Z M2,30.89 L31.57,30.89 L31.57,2 L2,2 L2,30.89 Z M0,0 L33.57,0 L33.57,49.8 L0,49.8 L0,0 Z" id="Shape" fill="#D1756A"></path>
            </g>
            <rect id="Rectangle" fill="#DA9682" x="0.34" y="315.04" width="192.72" height="4.59"></rect>
            <rect id="Rectangle" fill="#DA9682" opacity="0.3" x="1.2" y="318.33" width="191.86" height="4.59"></rect>
            <rect id="Rectangle" fill="#DA9682" opacity="0.3" x="0.83" y="229.81" width="192.72" height="4.59"></rect>
            <rect id="Rectangle" fill="#DA9682" opacity="0.3" x="0.83" y="127.72" width="192.72" height="4.59"></rect>
            <rect id="Rectangle" fill="#DA9682" opacity="0.3" x="0.4" y="23.17" width="193" height="4.59"></rect>
            <rect id="Rectangle" fill="#DA9682" opacity="0.3" x="1.08" y="9.08" width="192.72" height="3.53"></rect>
            <rect id="Rectangle" fill="#DA9682" x="1.08" y="226.51" width="192.72" height="4.59"></rect>
            <rect id="Rectangle" fill="#DA9682" x="1.42108547e-14" y="124.43" width="192.72" height="4.59"></rect>
            <rect id="Rectangle" fill="#DA9682" x="0.4" y="19.58" width="193" height="4.59"></rect>
            <rect id="Rectangle" fill="#DA9682" x="1.08" y="6.78" width="192.72" height="2.29"></rect>
            <path d="M52.51,93.6 C52.6379264,93.2298777 52.7054564,92.8415802 52.71,92.45 C52.7078211,90.7136308 51.446582,89.2351612 49.7322523,88.9593777 C48.0179226,88.6835942 46.3566341,89.6919181 45.81,91.34 C43.0479466,89.5585659 39.3917692,90.1114931 37.28,92.63 C36.3494705,90.2987321 34.0539794,88.8040251 31.5455471,88.8960159 C29.0371148,88.9880067 26.8572722,90.646836 26.1,93.04 C23.8727084,90.7222706 20.2246917,90.5427882 17.7806432,92.6306877 C15.3365948,94.7185872 14.9440249,98.3498582 16.8853819,100.911856 C18.8267388,103.473853 22.4288279,104.078166 25.1,102.29 C26.0618496,103.590349 27.560344,104.385755 29.1763392,104.453736 C30.7923345,104.521716 32.3523376,103.854973 33.42,102.64 C35.1606272,104.186347 37.7699397,104.228844 39.56,102.74 C41.8326564,103.782508 44.5023327,103.424476 46.42,101.82 C47.8579409,103.242052 49.994054,103.693007 51.8840942,102.973524 C53.7741343,102.254042 55.0696408,100.496771 55.1979494,98.4784931 C55.3262579,96.4602156 54.2637127,94.5530352 52.48,93.6 L52.51,93.6 Z" id="Path" fill="#AC9D15"></path>
            <path d="M175.32,292.74 C175.45591,292.375145 175.526981,291.989335 175.53,291.6 C175.527821,289.863631 174.266582,288.385161 172.552252,288.109378 C170.837923,287.833594 169.176634,288.841918 168.63,290.49 C165.870976,288.694516 162.204721,289.248968 160.1,291.78 C159.16947,289.448732 156.873979,287.954025 154.365547,288.046016 C151.857115,288.138007 149.677272,289.796836 148.92,292.19 C146.693955,289.882688 143.055924,289.708488 140.619607,291.792553 C138.18329,293.876618 137.79182,297.497718 139.726444,300.054317 C141.661067,302.610916 145.252272,303.218256 147.92,301.44 C148.879831,302.740017 150.376724,303.535468 151.99125,303.603468 C153.605776,303.671469 155.164254,303.004704 156.23,301.79 C157.970627,303.336347 160.57994,303.378844 162.37,301.89 C164.644858,302.917632 167.306289,302.560705 169.23,300.97 C170.667347,302.41179 172.817026,302.87581 174.72112,302.155289 C176.625213,301.434768 177.929183,299.663865 178.051968,297.631711 C178.174752,295.599558 177.093489,293.684537 175.29,292.74 L175.32,292.74 Z" id="Path" fill="#AC9D15"></path>
            <path d="M19.47,293.47 C19.3388377,293.100394 19.2679335,292.712109 19.26,292.32 C19.2621789,290.583631 20.523418,289.105161 22.2377477,288.829378 C23.9520774,288.553594 25.6133659,289.561918 26.16,291.21 C28.9261545,289.431851 32.5824703,289.984152 34.7,292.5 C35.6391759,290.178642 37.9312723,288.693762 40.4337371,288.785534 C42.936202,288.877306 45.1133788,290.526086 45.88,292.91 C48.1072916,290.592271 51.7553083,290.412788 54.1993568,292.500688 C56.6434052,294.588587 57.0359751,298.219858 55.0946181,300.781856 C53.1532612,303.343853 49.5511721,303.948166 46.88,302.16 C45.9201691,303.460017 44.4232764,304.255468 42.8087502,304.323468 C41.1942239,304.391469 39.6357457,303.724704 38.57,302.51 C36.8293728,304.056347 34.2200603,304.098844 32.43,302.61 C30.1573436,303.652508 27.4876673,303.294476 25.57,301.69 C24.1363651,303.144355 21.9809638,303.618524 20.0693363,302.900096 C18.1577088,302.181668 16.8481109,300.405283 16.7271943,298.366695 C16.6062776,296.328108 17.6967029,294.409368 19.51,293.47 L19.47,293.47 Z" id="Path" fill="#AC9D15"></path>
            <path d="M77.55,371.05 C77.4026509,370.736518 77.3209771,370.396211 77.31,370.05 C77.31,368.32 79.15,366.92 81.41,366.92 C83.0081722,366.823833 84.5173339,367.662256 85.28,369.07 C86.5506258,368.451049 87.946657,368.132836 89.36,368.14 C91.4694988,368.09653 93.5207336,368.833693 95.12,370.21 C96.4960027,368.046309 98.9291513,366.789628 101.49,366.92 C104.55,366.92 107.15,368.45 108.03,370.57 C109.469133,369.484846 111.227729,368.908026 113.03,368.93 C116.89,368.93 120.03,371.33 120.03,374.29 C120.03,377.25 116.89,379.65 113.03,379.65 C111.665394,379.660981 110.317938,379.345546 109.1,378.73 C107.529821,380.20719 105.37559,380.894633 103.24,380.6 C101.867723,380.468351 100.567404,379.924518 99.51,379.04 C98.4313547,379.721459 97.1755399,380.06933 95.9,380.04 C94.6696849,380.036013 93.4647462,379.689766 92.42,379.04 C91.4233198,379.386657 90.3752423,379.562464 89.32,379.56 C87.6233506,379.578941 85.9559067,379.11788 84.51,378.23 C83.2841297,379.117935 81.803467,379.58459 80.29,379.56 C76.99,379.56 74.29,377.51 74.29,374.99 C74.4740267,373.135798 75.7630368,371.577915 77.55,371.05 L77.55,371.05 Z" id="Path" fill="#AC9D15"></path>
        </g>
        <g id="Group-48" transform="translate(1147.000000, 136.000000)" fill-rule="nonzero">
            <rect id="Rectangle" fill="#DA9682" x="1.51" y="2.3" width="194.04" height="463.58"></rect>
            <g id="porta" transform="translate(78.520000, 402.330000)">
                <rect id="Rectangle" fill="#E2AE9B" x="0.45" y="-2.13162821e-14" width="39.12" height="63.55"></rect>
                <polygon id="Path" fill="#D27963" points="0 0 0 63.55 2.31 63.55 2.31 2.05 37.89 2.05 37.89 63.55 40.2 63.55 40.2 0"></polygon>
                <ellipse id="Oval" fill="#D27963" cx="31.95" cy="38.31" rx="2.3" ry="2.17"></ellipse>
            </g>
            <g id="Group-35" transform="translate(15.580000, 392.870000)">
                <rect id="Rectangle" fill="#F6E9E3" x="5.14" y="1.04" width="40.49" height="38.22"></rect>
                <path d="M5.77,26.63 L5.77,43.57 L43.07,43.57 L43.07,26.63 L5.77,26.63 Z M5.77,24.5 L43.07,24.5 L43.07,2.66 L5.77,2.66 L5.77,24.5 Z M3.07,0 L45.72,0 L45.72,46.79 L3.07,46.79 L3.07,0 Z" id="Shape" fill="#E2AE9B"></path>
                <rect id="Rectangle" fill="#D27963" x="3.55271368e-14" y="36.86" width="48.42" height="12.59"></rect>
                <rect id="Rectangle" fill="#D27963" opacity="0.46" x="3.55271368e-14" y="49.3" width="48.42" height="2.32"></rect>
            </g>
            <g id="Group-44" transform="translate(16.177030, 277.870000)">
                <rect id="Rectangle" fill="#F6E9E3" x="4.54296996" y="0.01" width="27.5" height="56.74"></rect>
                <path d="M4.47296996,27.15 L4.47296996,59.82 L31.83297,59.82 L31.83297,27.15 L4.47296996,27.15 Z M4.47296996,25.02 L31.83297,25.02 L31.83297,3.72 L4.47296996,3.72 L4.47296996,25.02 Z M2.47296996,0 L33.79297,0 L33.79297,64.24 L2.47296996,64.24 L2.47296996,0 Z" id="Shape" fill="#E2AE9B"></path>
                <rect id="Rectangle" fill="#D27963" x="0.482969955" y="53.36" width="35.63" height="12.59"></rect>
                <rect id="Rectangle" fill="#D27963" opacity="0.46" x="0.482969955" y="65.95" width="35.63" height="2"></rect>
                <path d="M33.98297,49.24 C34.1049687,48.9205332 34.1692996,48.5819492 34.17297,48.24 C34.1274556,46.6668049 32.9677223,45.3492081 31.4130291,45.1043745 C29.8583359,44.8595409 28.3497851,45.7569355 27.82297,47.24 C26.8466082,46.6256948 25.7165094,46.2998381 24.56297,46.3 C22.7967539,46.2856353 21.1139337,47.050221 19.96297,48.39 C19.0525953,46.3053336 16.9603993,44.9890368 14.6870873,45.0706995 C12.4137754,45.1523621 10.421419,46.6153856 9.66296996,48.76 C8.60430365,47.6954661 7.16430341,47.097866 5.66296996,47.1 C3.66924267,47.0143818 1.78920507,48.0292474 0.766802172,49.7430068 C-0.255600724,51.4567662 -0.255600724,53.5932338 0.766802172,55.3069932 C1.78920507,57.0207526 3.66924267,58.0356182 5.66296996,57.95 C6.77492443,57.9536233 7.86340052,57.6302102 8.79296996,57.02 C9.89719803,58.4489143 11.6861283,59.1713669 13.47297,58.91 C14.6274932,58.7589334 15.6907588,58.2024911 16.47297,57.34 C17.2817425,58.02208 18.3049816,58.3973857 19.36297,58.4 C20.3731811,58.3915071 21.3502919,58.0387595 22.13297,57.4 C22.9151986,57.7416664 23.75938,57.9186722 24.61297,57.92 C26.0097827,57.922926 27.3652886,57.446381 28.45297,56.57 C29.3562509,57.443829 30.5662199,57.9285346 31.82297,57.92 C33.0685848,57.9386935 34.2704598,57.4610529 35.1634515,56.5924497 C36.0564431,55.7238464 36.5671731,54.5356549 36.58297,53.29 C36.5479808,51.5581442 35.5430564,49.992781 33.98297,49.24 L33.98297,49.24 Z" id="Path" fill="#AC9D15"></path>
            </g>
            <g id="Group-47" transform="translate(146.760000, 277.870000)">
                <rect id="Rectangle" fill="#F6E9E3" x="4.06" y="0.01" width="27.5" height="56.74"></rect>
                <path d="M3.97,27.15 L3.97,59.82 L31.33,59.82 L31.33,27.15 L3.97,27.15 Z M3.97,25.02 L31.33,25.02 L31.33,3.72 L3.97,3.72 L3.97,25.02 Z M1.98,0 L33.3,0 L33.3,64.24 L1.98,64.24 L1.98,0 Z" id="Shape" fill="#E2AE9B"></path>
                <rect id="Rectangle" fill="#D27963" x="5.32907052e-14" y="53.36" width="35.63" height="12.59"></rect>
                <rect id="Rectangle" fill="#D27963" opacity="0.46" x="5.32907052e-14" y="65.95" width="35.63" height="2"></rect>
            </g>
            <g id="Group-45" transform="translate(59.367030, 277.870000)">
                <rect id="Rectangle" fill="#F6E9E3" x="4.72296996" y="0.01" width="27.5" height="56.74"></rect>
                <path d="M4.63296996,27.15 L4.63296996,59.82 L31.98297,59.82 L31.98297,27.15 L4.63296996,27.15 Z M4.63296996,25.02 L31.98297,25.02 L31.98297,3.72 L4.63296996,3.72 L4.63296996,25.02 Z M2.63296996,0 L33.95297,0 L33.95297,64.24 L2.63296996,64.24 L2.63296996,0 Z" id="Shape" fill="#E2AE9B"></path>
                <rect id="Rectangle" fill="#D27963" x="0.652969955" y="53.36" width="35.63" height="12.59"></rect>
                <rect id="Rectangle" fill="#D27963" opacity="0.46" x="0.652969955" y="65.95" width="35.63" height="2"></rect>
                <path d="M33.98297,49.24 C34.1049687,48.9205332 34.1692996,48.5819492 34.17297,48.24 C34.1274556,46.6668049 32.9677223,45.3492081 31.4130291,45.1043745 C29.8583359,44.8595409 28.3497851,45.7569355 27.82297,47.24 C26.8466082,46.6256948 25.7165094,46.2998381 24.56297,46.3 C22.7967539,46.2856353 21.1139337,47.050221 19.96297,48.39 C19.0525953,46.3053336 16.9603993,44.9890368 14.6870873,45.0706995 C12.4137754,45.1523621 10.421419,46.6153856 9.66296996,48.76 C8.60430365,47.6954661 7.16430341,47.097866 5.66296996,47.1 C3.66924267,47.0143818 1.78920507,48.0292474 0.766802172,49.7430068 C-0.255600724,51.4567662 -0.255600724,53.5932338 0.766802172,55.3069932 C1.78920507,57.0207526 3.66924267,58.0356182 5.66296996,57.95 C6.77492443,57.9536233 7.86340052,57.6302102 8.79296996,57.02 C9.89719803,58.4489143 11.6861283,59.1713669 13.47297,58.91 C14.6274932,58.7589334 15.6907588,58.2024911 16.47297,57.34 C17.2817425,58.02208 18.3049816,58.3973857 19.36297,58.4 C20.3731811,58.3915071 21.3502919,58.0387595 22.13297,57.4 C22.9151986,57.7416664 23.75938,57.9186722 24.61297,57.92 C26.0097827,57.922926 27.3652886,57.446381 28.45297,56.57 C29.3562509,57.443829 30.5662199,57.9285346 31.82297,57.92 C33.0685848,57.9386935 34.2704598,57.4610529 35.1634515,56.5924497 C36.0564431,55.7238464 36.5671731,54.5356549 36.58297,53.29 C36.5479808,51.5581442 35.5430564,49.992781 33.98297,49.24 L33.98297,49.24 Z" id="Path" fill="#AC9D15"></path>
            </g>
            <g id="Group-46" transform="translate(103.390000, 277.870000)">
                <rect id="Rectangle" fill="#F6E9E3" x="4.06" y="0.01" width="27.5" height="56.74"></rect>
                <path d="M3.98,27.15 L3.98,59.82 L31.33,59.82 L31.33,27.15 L3.98,27.15 Z M3.98,25.02 L31.33,25.02 L31.33,3.72 L3.98,3.72 L3.98,25.02 Z M1.98,0 L33.26,0 L33.26,64.24 L1.98,64.24 L1.98,0 Z" id="Shape" fill="#E2AE9B"></path>
                <rect id="Rectangle" fill="#D27963" x="5.32907052e-14" y="53.36" width="35.63" height="12.59"></rect>
                <rect id="Rectangle" fill="#D27963" opacity="0.46" x="5.32907052e-14" y="65.95" width="35.63" height="2"></rect>
            </g>
            <g id="Group-40" transform="translate(22.500000, 164.110000)">
                <rect id="Rectangle" fill="#F6E9E3" x="2.09" y="-1.0658141e-14" width="27.5" height="60.65"></rect>
                <path d="M2,27.14 L2,59.82 L29.36,59.82 L29.36,27.14 L2,27.14 Z M2,25.01 L29.36,25.01 L29.36,3.76 L2,3.76 L2,25.01 Z M0,0 L31.32,0 L31.32,64.25 L0,64.25 L0,0 Z" id="Shape" fill="#E2AE9B"></path>
            </g>
            <g id="Group-43" transform="translate(152.650000, 164.110000)">
                <rect id="Rectangle" fill="#F6E9E3" x="2.04" y="-1.0658141e-14" width="27.5" height="60.65"></rect>
                <path d="M2,27.14 L2,59.82 L29.35,59.82 L29.3558295,27.14 L2,27.14 Z M2,25.01 L29.3562094,25.01 L29.36,3.76 L2,3.76 L2,25.01 Z M0,0 L31.32,0 L31.32,64.25 L0,64.25 L0,0 Z" id="Shape" fill="#E2AE9B"></path>
            </g>
            <g id="Group-41" transform="translate(65.870000, 164.110000)">
                <rect id="Rectangle" fill="#F6E9E3" x="2.09" y="-1.0658141e-14" width="27.5" height="60.65"></rect>
                <path d="M2,27.14 L2,59.82 L29.35,59.82 L29.35,27.14 L2,27.14 Z M2,25.01 L29.35,25.01 L29.35,3.76 L2,3.76 L2,25.01 Z M0,0 L31.32,0 L31.32,64.25 L0,64.25 L0,0 Z" id="Shape" fill="#E2AE9B"></path>
            </g>
            <g id="Group-42" transform="translate(109.240000, 164.110000)">
                <rect id="Rectangle" fill="#F6E9E3" x="2.08" y="-1.0658141e-14" width="27.5" height="60.65"></rect>
                <path d="M2,27.14 L2,59.82 L29.35,59.82 L29.35,27.14 L2,27.14 Z M2,25.01 L29.35,25.01 L29.35,3.76 L2,3.76 L2,25.01 Z M0,0 L31.32,0 L31.32,64.25 L0,64.25 L0,0 Z" id="Shape" fill="#E2AE9B"></path>
            </g>
            <g id="Group-36" transform="translate(15.060000, 45.680000)">
                <rect id="Rectangle" fill="#F6E9E3" x="4.49" y="-3.55271368e-15" width="27.5" height="61.48"></rect>
                <path d="M4.4,27.14 L4.4,59.82 L31.76,59.82 L31.76,27.14 L4.4,27.14 Z M4.4,25.01 L31.76,25.01 L31.76,3.71 L4.4,3.71 L4.4,25.01 Z M2.4,0 L33.72,0 L33.72,64.24 L2.4,64.24 L2.4,0 Z" id="Shape" fill="#E2AE9B"></path>
                <path d="M33.76,58.69 C34.1802248,57.0300413 33.2404238,55.3287794 31.6115388,54.8007778 C29.9826539,54.2727762 28.2235127,55.0991784 27.59,56.69 C25.0428486,55.0834918 21.7044817,55.576177 19.73,57.85 C18.8291016,55.7557527 16.7353325,54.429006 14.4569233,54.5086397 C12.1785142,54.5882734 10.1824846,56.0579645 9.43,58.21 C8.3688323,57.1492018 6.93045479,56.5522751 5.43,56.55 C2.43109381,56.55 0,58.9810938 0,61.98 C0,64.9789062 2.43109381,67.41 5.43,67.41 C6.54144861,67.4101239 7.62894358,67.0870024 8.56,66.48 C9.46336525,67.6517508 10.8392967,68.3632446 12.3176367,68.423073 C13.7959768,68.4829013 15.2249026,67.8849201 16.22,66.79 C17.8342324,68.1811306 20.2122786,68.219011 21.87,66.88 C23.9636739,67.8139864 26.4040011,67.4973617 28.19,66.06 C29.097922,66.9266399 30.3048558,67.4101297 31.56,67.41 C32.8065578,67.428704 34.0094759,66.9513773 34.9040548,66.0830543 C35.7986337,65.2147313 36.3115725,64.0265619 36.33,62.78 C36.317993,61.0396932 35.3227748,59.4558635 33.76,58.69 L33.76,58.69 Z" id="Path" fill="#AC9D15"></path>
            </g>
            <g id="Group-39" transform="translate(147.570000, 45.680000)">
                <rect id="Rectangle" fill="#F6E9E3" x="2.08" y="-3.55271368e-15" width="27.5" height="61.48"></rect>
                <path d="M2,27.14 L2,59.82 L29.35,59.82 L29.35,27.14 L2,27.14 Z M2,25.01 L29.35,25.01 L29.35,3.71 L2,3.71 L2,25.01 Z M0,0 L31.32,0 L31.32,64.24 L0,64.24 L0,0 Z" id="Shape" fill="#E2AE9B"></path>
            </g>
            <g id="Group-37" transform="translate(60.830000, 45.680000)">
                <rect id="Rectangle" fill="#F6E9E3" x="2.09" y="-3.55271368e-15" width="27.5" height="61.48"></rect>
                <path d="M2,27.14 L2,59.82 L29.36,59.82 L29.36,27.14 L2,27.14 Z M2,25.01 L29.36,25.01 L29.36,3.71 L2,3.71 L2,25.01 Z M0,0 L31.32,0 L31.32,64.24 L0,64.24 L0,0 Z" id="Shape" fill="#E2AE9B"></path>
            </g>
            <g id="Group-38" transform="translate(104.200000, 45.680000)">
                <rect id="Rectangle" fill="#F6E9E3" x="2.09" y="-3.55271368e-15" width="27.5" height="61.48"></rect>
                <path d="M2,27.14 L2,59.82 L29.35,59.82 L29.35,27.14 L2,27.14 Z M2,25.01 L29.35,25.01 L29.35,3.71 L2,3.71 L2,25.01 Z M0,0 L31.32,0 L31.32,64.24 L0,64.24 L0,0 Z" id="Shape" fill="#E2AE9B"></path>
            </g>
            <g id="Group-17" transform="translate(133.970000, 392.870000)">
                <rect id="Rectangle" fill="#F6E9E3" x="5.13" y="1.04" width="40.49" height="38.22"></rect>
                <path d="M5.8,26.63 L5.8,43.57 L43.05,43.57 L43.05,26.63 L5.8,26.63 Z M5.8,24.5 L43.05,24.5 L43.05,2.66 L5.8,2.66 L5.8,24.5 Z M3.05,0 L45.68,0 L45.68,46.79 L3.05,46.79 L3.05,0 Z" id="Shape" fill="#E2AE9B"></path>
                <rect id="Rectangle" fill="#D27963" x="3.55271368e-14" y="36.86" width="48.42" height="12.59"></rect>
                <rect id="Rectangle" fill="#D27963" opacity="0.46" x="3.55271368e-14" y="49.3" width="48.42" height="2.32"></rect>
            </g>
            <rect id="Rectangle" fill="#D27963" x="1.67" y="366.59" width="193.88" height="4.59"></rect>
            <rect id="Rectangle" fill="#D27963" x="1.51" y="252.17" width="194.04" height="4.59"></rect>
            <rect id="Rectangle" fill="#D27963" x="1.51" y="134.72" width="194.04" height="4.59"></rect>
            <rect id="Rectangle" fill="#D27963" x="1.51" y="17.84" width="194.04" height="4.59"></rect>
            <rect id="Rectangle" fill="#D27963" opacity="0.46" x="1.51" y="8.12" width="194.04" height="3.92"></rect>
            <rect id="Rectangle" fill="#D27963" opacity="0.46" x="1.51" y="22.43" width="194.04" height="2.84"></rect>
            <rect id="Rectangle" fill="#D27963" opacity="0.46" x="1.51" y="139.31" width="194.04" height="2.84"></rect>
            <rect id="Rectangle" fill="#D27963" opacity="0.46" x="1.51" y="256.76" width="194.04" height="2.84"></rect>
            <rect id="Rectangle" fill="#D27963" opacity="0.46" x="1.51" y="371.18" width="194.04" height="2.84"></rect>
            <rect id="Rectangle" fill="#D27963" x="0" y="-8.8817842e-16" width="197.75" height="8.12"></rect>
            <path d="M140.59,221.17 C140.711999,220.850533 140.77633,220.511949 140.78,220.17 C140.734486,218.596805 139.574752,217.279208 138.020059,217.034375 C136.465366,216.789541 134.956815,217.686936 134.43,219.17 C133.453638,218.555695 132.323539,218.229838 131.17,218.23 C129.403784,218.215635 127.720964,218.980221 126.57,220.32 C125.659625,218.235334 123.567429,216.919037 121.294117,217.000699 C119.020805,217.082362 117.028449,218.545386 116.27,220.69 C115.208832,219.629202 113.770455,219.032275 112.27,219.03 C110.276273,218.944382 108.396235,219.959247 107.373832,221.673007 C106.351429,223.386766 106.351429,225.523234 107.373832,227.236993 C108.396235,228.950753 110.276273,229.965618 112.27,229.88 C113.381954,229.883623 114.470431,229.56021 115.4,228.95 C116.301929,230.119566 117.674795,230.830541 119.150448,230.892267 C120.626101,230.953994 122.053546,230.360157 123.05,229.27 C124.673436,230.646871 127.043609,230.684559 128.71,229.36 C129.492229,229.701666 130.33641,229.878672 131.19,229.88 C132.588201,229.891185 133.946404,229.413692 135.03,228.53 C135.933281,229.403829 137.14325,229.888535 138.4,229.88 C139.643906,229.898704 140.84428,229.422431 141.736984,228.555984 C142.629688,227.689536 143.141573,226.50391 143.16,225.26 C143.145658,223.520375 142.151147,221.937671 140.59,221.17 L140.59,221.17 Z" id="Path" fill="#AC9D15"></path>
        </g>
        <g id="arvore_creditos" transform="translate(1325.000000, 455.000000)" fill-rule="nonzero">
            <g id="arvore">
                <g id="Group-34" transform="translate(0.451241, 0.748621)">
                    <rect id="Rectangle" fill="#350B39" x="41.5287593" y="75.3213795" width="8.71" height="64.68"></rect>
                    <rect id="Rectangle" fill="#D27963" x="33.6287593" y="133.451379" width="24.81" height="3.4"></rect>
                    <path d="M36.1387593,139.241379 L39.0187593,139.241379 L39.0187593,131.711379 C39.0187593,130.325145 40.1425246,129.201379 41.5287593,129.201379 C42.914994,129.201379 44.0387593,130.325145 44.0387593,131.711379 L44.0387593,139.241379 L47.7287593,139.241379 L47.7287593,131.711379 C47.7287593,130.325145 48.8525246,129.201379 50.2387593,129.201379 C51.624994,129.201379 52.7487593,130.325145 52.7487593,131.711379 L52.7487593,139.241379 L55.9287593,139.241379 L55.9287593,131.711379 C55.9287593,130.325145 57.0525246,129.201379 58.4387593,129.201379 C59.824994,129.201379 60.9487593,130.325145 60.9487593,131.711379 L60.9487593,139.241379 L63.1587593,139.241379 L63.1587593,146.181379 L28.4587593,146.181379 L28.4587593,139.241379 L31.1187593,139.241379 L31.1187593,131.711379 C31.1187593,130.325145 32.2425246,129.201379 33.6287593,129.201379 C35.014994,129.201379 36.1387593,130.325145 36.1387593,131.711379 L36.1387593,139.241379 Z" id="Path" fill="#E2AE9B"></path>
                    <path d="M1.88875933,66.3213795 C-0.137181793,60.8385353 -0.543327853,54.888669 0.718759327,49.1813795 C2.03875933,43.5213795 5.43875933,36.8313795 13.8887593,34.0313795 C26.6487593,29.8113795 28.9987593,25.1113795 30.1687593,18.7213795 C32.1687593,8.06137948 49.2587593,-11.7286205 71.0087593,9.25137948 C92.7587593,30.2313795 84.4587593,72.4913795 65.3887593,83.5513795 C47.8887593,93.7013795 11.4587593,93.2513795 1.88875933,66.3213795 Z" id="Path" fill="#AC9D15"></path>
                </g>
            </g>
            <g id="creditos" transform="translate(33.940000, 59.970238)" fill="#666600">
                <path d="M1.34,25.0297617 L0,19.5097617 L0.75,19.5697617 L1.38,22.2797617 C1.56,23.0297617 1.71,23.6997617 1.8,24.3397617 L1.8,24.3397617 C2,23.7297617 2.27,23.0697617 2.57,22.3397617 L3.68,19.7597617 L4.42,19.8097617 L2.09,25.0397617 L1.34,25.0297617 Z" id="Path"></path>
                <path d="M4.63,25.2497617 L4.74,21.3797617 L5.44,21.3797617 L5.33,25.2497617 L4.63,25.2497617 Z M5.55,20.3197617 C5.51730945,20.5347538 5.33246325,20.6936179 5.115,20.6936179 C4.89753675,20.6936179 4.71269055,20.5347538 4.68,20.3197617 C4.68262223,20.2030565 4.7315135,20.0921766 4.81591156,20.0115296 C4.90030961,19.9308826 5.01329619,19.8870792 5.13,19.8897617 C5.24314538,19.8897296 5.35151791,19.9353496 5.43057706,20.0162911 C5.50963621,20.0972326 5.55269394,20.2066484 5.55,20.3197617 L5.55,20.3197617 Z" id="Shape"></path>
                <path d="M7.43,20.2997617 L7.43,21.4097617 L8.43,21.4097617 L8.43,21.9397617 L7.43,21.9397617 L7.43,24.0297617 C7.43,24.5097617 7.58,24.7797617 7.97,24.7797617 C8.10540107,24.7775517 8.23990948,24.7573754 8.37,24.7197617 L8.37,25.2497617 C8.17203711,25.3239837 7.96125971,25.35798 7.75,25.3497617 C7.46738642,25.3759523 7.18807009,25.2730463 6.99,25.0697617 C6.77198936,24.7842671 6.66855541,24.4275983 6.7,24.0697617 L6.7,21.9597617 L6.1,21.9597617 L6.1,21.4197617 L6.7,21.4197617 L6.7,20.4897617 L7.43,20.2997617 Z" id="Path"></path>
                <path d="M12.81,23.0297617 C12.8958432,23.5612679 12.7521625,24.1042395 12.4146692,24.5237228 C12.0771758,24.943206 11.5775602,25.1998118 11.04,25.2297617 C10.5239216,25.2717469 10.0138668,25.0955343 9.6337623,24.7439376 C9.25365776,24.3923409 9.03829497,23.8975423 9.04,23.3797617 C8.95097505,22.8493769 9.09211996,22.3061832 9.42808364,21.8862286 C9.76404732,21.466274 10.2630094,21.209334 10.8,21.1797617 C11.3184631,21.1316297 11.8330449,21.3054182 12.2161627,21.658039 C12.5992804,22.0106598 12.8150592,22.5090938 12.81,23.0297617 Z M9.75,23.2997617 C9.81,24.1497617 10.35,24.7497617 11.03,24.6997617 C11.71,24.6497617 12.16,23.9797617 12.09,23.1097617 C12.09,22.4597617 11.66,21.6497617 10.83,21.7097617 C10,21.7697617 9.69,22.5597617 9.75,23.2897617 L9.75,23.2997617 Z M11.75,19.5297617 L10.86,20.7397617 L10.36,20.7397617 L10.97,19.5497617 L11.75,19.5297617 Z" id="Shape"></path>
                <path d="M13.7,22.1897617 C13.64,21.7297617 13.57,21.3497617 13.49,20.9897617 L14.1,20.8997617 L14.24,21.6497617 L14.24,21.6497617 C14.3043957,21.1483591 14.6835351,20.7450193 15.18,20.6497617 L15.38,20.6497617 L15.48,21.3097617 C15.4006723,21.295094 15.3193277,21.295094 15.24,21.3097617 C14.7628918,21.4020108 14.4211636,21.8238975 14.43,22.3097617 C14.4206273,22.419562 14.4206273,22.5299613 14.43,22.6397617 L14.73,24.6397617 L14.04,24.7397617 L13.7,22.1897617 Z" id="Path"></path>
                <path d="M16.68,19.3597617 C16.7063404,19.4758472 16.6821844,19.5976574 16.6135382,19.6949063 C16.5448919,19.7921552 16.4382037,19.8557074 16.32,19.8697617 C16.0883366,19.9125262 15.8653929,19.7609244 15.82,19.5297617 C15.7965549,19.4143 15.8203949,19.2942589 15.8861817,19.1965186 C15.9519684,19.0987782 16.0542057,19.0315045 16.17,19.0097617 C16.2845627,18.9833931 16.4049327,19.0062449 16.501861,19.0727643 C16.5987892,19.1392837 16.6634024,19.2433812 16.68,19.3597617 Z M16.88,24.3597617 L16.12,20.5597617 L16.81,20.4297617 L17.57,24.2197617 L16.88,24.3597617 Z" id="Shape"></path>
                <path d="M21.06,23.3897617 L20.88,22.9297617 L20.88,22.9297617 C20.7038798,23.3602143 20.331966,23.6800601 19.88,23.7897617 C19.5897532,23.892035 19.2699359,23.8680482 18.9981917,23.7236247 C18.7264475,23.5792012 18.5276274,23.3275486 18.45,23.0297617 C18.2,22.1197617 18.87,21.4097617 20.32,21.0297617 L20.32,20.9497617 C20.2854595,20.7064686 20.141023,20.4925468 19.9282703,20.3695797 C19.7155177,20.2466126 19.458055,20.2282439 19.23,20.3197617 C18.8884184,20.4123996 18.5799236,20.5995763 18.34,20.8597617 L18.06,20.4497617 C18.3741649,20.131805 18.7678309,19.903893 19.2,19.7897617 C19.5955202,19.6460107 20.0351635,19.6920147 20.3923579,19.9145292 C20.7495523,20.1370438 20.9846622,20.5113779 21.03,20.9297617 L21.41,22.3297617 C21.4871633,22.631668 21.5909015,22.9261507 21.72,23.2097617 L21.06,23.3897617 Z M20.44,21.5097617 C19.7,21.6897617 18.89,22.0497617 19.09,22.7797617 C19.1237581,22.9562196 19.232399,23.1093578 19.3877921,23.1995242 C19.5431853,23.2896906 19.7300495,23.3080183 19.9,23.2497617 C20.3043055,23.1430058 20.5994958,22.7959578 20.64,22.3797617 C20.6498366,22.3034105 20.6498366,22.2261128 20.64,22.1497617 L20.44,21.5097617 Z" id="Shape"></path>
                <path d="M27.97,18.0297617 C27.6,17.3697617 27.16,16.5797617 26.87,15.9797617 L26.87,15.9797617 C26.98,16.6197617 27.08,17.3297617 27.16,18.1097617 L27.47,20.8797617 L26.99,21.1097617 L25.08,19.1997617 C24.51,18.6297617 24.01,18.0997617 23.59,17.5897617 L23.59,17.5897617 C23.88,18.1997617 24.24,19.0297617 24.59,19.7697617 L25.48,21.9097617 L24.88,22.1997617 L22.88,17.1997617 L23.67,16.8097617 L25.67,18.7397617 C26.17,19.2397617 26.59,19.7397617 26.96,20.1297617 L26.96,20.1297617 C26.8309304,19.5085239 26.734134,18.8810162 26.67,18.2497617 L26.38,15.4897617 L27.17,15.0897617 L29.86,19.7797617 L29.25,20.0797617 L27.97,18.0297617 Z" id="Path"></path>
                <path d="M32.88,17.4997617 L32.55,17.1397617 L32.55,17.1397617 C32.5406779,17.6033147 32.3102395,18.0344576 31.93,18.2997617 C31.693881,18.4988134 31.3849626,18.5894401 31.0787302,18.5494968 C30.7724978,18.5095534 30.4971612,18.3427195 30.32,18.0897617 C29.77,17.3397617 30.14,16.4297617 31.32,15.5597617 L31.32,15.4997617 C31.2026558,15.2842809 30.9929195,15.1345649 30.751004,15.0935953 C30.5090885,15.0526257 30.2617512,15.1249342 30.08,15.2897617 C29.7907146,15.4985343 29.5683592,15.7869015 29.44,16.1197617 L29.04,15.8297617 C29.2144321,15.4263 29.4985235,15.079847 29.86,14.8297617 C30.1780197,14.5527373 30.6059108,14.4376311 31.0199952,14.5177135 C31.4340795,14.5977958 31.7881995,14.86414 31.98,15.2397617 L32.83,16.4197617 C33.0129061,16.6703604 33.2134124,16.9076262 33.43,17.1297617 L32.88,17.4997617 Z M31.64,15.9697617 C31.01,16.4097617 30.38,17.0297617 30.82,17.6397617 C30.9185866,17.7922185 31.0772857,17.8956291 31.2565728,17.9242388 C31.4358599,17.9528484 31.6188614,17.9039645 31.76,17.7897617 C32.0928011,17.5439746 32.239884,17.1186268 32.13,16.7197617 C32.1089746,16.644538 32.0751466,16.5734991 32.03,16.5097617 L31.64,15.9697617 Z" id="Shape"></path>
                <polygon id="Path" points="30.72 11.9397617 31.24 11.4797617 35.01 15.7197617 34.49 16.1897617"></polygon>
                <path d="M33.06,10.6497617 L33.87,11.4197617 L34.56,10.6997617 L34.95,11.0697617 L34.25,11.7997617 L35.76,13.2397617 C36.1,13.5697617 36.39,13.6597617 36.67,13.3797617 C36.7642834,13.2808941 36.8449917,13.1699202 36.91,13.0497617 L37.32,13.3997617 C37.2265676,13.5895664 37.1014393,13.7620405 36.95,13.9097617 C36.7645709,14.1266691 36.4953066,14.2540238 36.21,14.2597617 C35.8535874,14.2094685 35.5289326,14.0275192 35.3,13.7497617 L33.78,12.2897617 L33.36,12.7197617 L32.97,12.3497617 L33.39,11.9197617 L32.72,11.2797617 L33.06,10.6497617 Z" id="Path"></path>
                <path d="M36.94,11.1097617 C37.2074203,11.3541825 37.5683596,11.469426 37.9279415,11.4251994 C38.2875235,11.3809727 38.6097789,11.1816999 38.81,10.8797617 C39.0443622,10.5848054 39.2146523,10.2442252 39.31,9.87976169 L39.78,10.0897617 C39.6676115,10.5157978 39.462758,10.9118478 39.18,11.2497617 C38.8890184,11.6840384 38.422737,11.9694152 37.9036211,12.03094 C37.3845053,12.0924649 36.864434,11.9239892 36.48,11.5697617 C36.0281521,11.2998754 35.7109554,10.8520717 35.6062733,10.3362745 C35.5015912,9.82047723 35.6191166,9.28444585 35.93,8.85976169 C36.2175882,8.49867569 36.6440365,8.27551134 37.1046477,8.24505771 C37.5652588,8.21460408 38.017376,8.37968146 38.35,8.69976169 C38.47,8.78976169 38.54,8.86976169 38.6,8.91976169 L36.94,11.1097617 Z M37.8,9.16976169 C37.6002947,8.96303832 37.3212932,8.85224304 37.0341744,8.86564192 C36.7470556,8.8790408 36.4795851,9.0153381 36.3,9.23976169 C35.9656543,9.74042544 36.0698967,10.4136578 36.54,10.7897617 L37.8,9.16976169 Z" id="Shape"></path>
                <path d="M38.43,7.58976169 C38.04,7.34976169 37.71,7.14976169 37.43,6.97976169 L37.75,6.45976169 L38.41,6.83976169 L38.41,6.83976169 C38.0662327,6.46962421 38.0015211,5.9195752 38.25,5.47976169 L38.37,5.32976169 L38.94,5.66976169 C38.8828807,5.73077934 38.8325835,5.79784218 38.79,5.86976169 C38.5555738,6.30190951 38.6700467,6.84035599 39.06,7.13976169 C39.1420032,7.21659706 39.232603,7.28370805 39.33,7.33976169 L41.08,8.42976169 L40.72,9.01976169 L38.43,7.58976169 Z" id="Path"></path>
                <path d="M39.81,5.24976169 C39.41,5.03976169 39.05,4.86976169 38.72,4.72976169 L39,4.17976169 L39.69,4.50976169 L39.69,4.50976169 C39.3184355,4.16919003 39.2093195,3.62765138 39.42,3.16976169 C39.4517933,3.10772585 39.4921926,3.05049348 39.54,2.99976169 L40.13,3.29976169 C40.0765562,3.36297397 40.0327495,3.4337387 40,3.50976169 C39.7974835,3.960611 39.9547104,4.49178301 40.37,4.75976169 C40.455246,4.8266036 40.5455129,4.88678152 40.64,4.93976169 L42.48,5.87976169 L42.16,6.49976169 L39.81,5.24976169 Z" id="Path"></path>
                <path d="M41.92,2.87976169 C42.2437097,3.04733343 42.6247535,3.06398733 42.9618487,2.92529673 C43.2989439,2.78660613 43.5579418,2.50662079 43.67,2.15976169 C43.8221085,1.82746688 43.8973078,1.4651429 43.89,1.09976169 L44.4,1.17976169 C44.4037149,1.61990763 44.3151445,2.05594656 44.14,2.45976169 C43.9670495,2.95230362 43.5887891,3.34550206 43.1033117,3.53739036 C42.6178343,3.72927867 42.072964,3.700954 41.61,3.45976169 C41.1036818,3.31746425 40.680692,2.96853091 40.4447263,2.49850234 C40.2087605,2.02847377 40.1816352,1.4808069 40.37,0.989761693 C40.552734,0.566654383 40.9050674,0.23996436 41.3407519,0.089662739 C41.7764363,-0.0606388823 42.2552561,-0.020678576 42.66,0.199761693 C42.7629799,0.243565583 42.8631689,0.293660103 42.96,0.349761693 L41.92,2.87976169 Z M42.24,0.779761693 C41.991833,0.632853503 41.692325,0.600236707 41.4183533,0.690283345 C41.1443816,0.780329983 40.9226236,0.984271961 40.81,1.24976169 C40.6218742,1.82292941 40.9044621,2.44462292 41.46,2.67976169 L42.24,0.779761693 Z" id="Shape"></path>
            </g>
        </g>
        <g id="faixa_ped1" transform="translate(1170.000000, 631.000000)" fill-rule="nonzero">
            <rect id="Rectangle" fill="#DEB093" opacity="0.4" x="9" y="83.98" width="150.33" height="11.54"></rect>
            <rect id="Rectangle" fill="#DEB093" opacity="0.4" x="11.42" y="66.39" width="145.63" height="9.71"></rect>
            <rect id="Rectangle" fill="#DEB093" opacity="0.4" x="13.65" y="50.56" width="141.13" height="8.6"></rect>
            <rect id="Rectangle" fill="#DEB093" opacity="0.4" x="15.65" y="38.05" width="137.04" height="7.52"></rect>
            <rect id="Rectangle" fill="#DEB093" opacity="0.4" x="17.23" y="27.32" width="133.88" height="6.72"></rect>
            <rect id="Rectangle" fill="#DEB093" opacity="0.4" x="18.67" y="17.62" width="131.11" height="5.7"></rect>
            <rect id="Rectangle" fill="#DEB093" opacity="0.4" x="19.77" y="9.5" width="128.89" height="4.87"></rect>
            <rect id="Rectangle" fill="#DEB093" opacity="0.4" x="20.79" y="2" width="126.95" height="4.3"></rect>
            <path d="M0.89,98.66 L10.66,0.46 L21.97,0.46 L36.42,98.66 L0.89,98.66 Z M159.07,98.92 L135.91,0.2 L157.23,0.2 L161.67,98.4 L159.07,98.92 Z" id="Combined-Shape" fill="#F6E9E3"></path>
        </g>
        <g id="faixa_ped2" transform="translate(503.000000, 631.000000)" fill-rule="nonzero">
            <rect id="Rectangle" fill="#DEB093" opacity="0.4" x="3" y="83.98" width="150.33" height="11.54"></rect>
            <rect id="Rectangle" fill="#DEB093" opacity="0.4" x="5.28" y="66.38" width="145.63" height="9.71"></rect>
            <rect id="Rectangle" fill="#DEB093" opacity="0.4" x="7.55" y="50.56" width="141.13" height="8.6"></rect>
            <rect id="Rectangle" fill="#DEB093" opacity="0.4" x="9.64" y="38.04" width="137.04" height="7.52"></rect>
            <rect id="Rectangle" fill="#DEB093" opacity="0.4" x="11.23" y="27.32" width="133.88" height="6.72"></rect>
            <rect id="Rectangle" fill="#DEB093" opacity="0.4" x="12.56" y="17.61" width="131.11" height="5.7"></rect>
            <rect id="Rectangle" fill="#DEB093" opacity="0.4" x="13.67" y="9.49" width="128.89" height="4.87"></rect>
            <rect id="Rectangle" fill="#DEB093" opacity="0.4" x="14.59" y="2" width="126.95" height="4.3"></rect>
            <path d="M162.75,98.99 L127.22,98.99 L141.67,0.79 L152.98,0.79 L162.75,98.99 Z M13.26,98.92 L10.66,98.4 L15.11,0.19 L26.42,0.19 L13.26,98.92 Z" id="Combined-Shape" fill="#F6E9E3"></path>
        </g>
        <path d="M781.908126,774.990028 L659.476303,774.990028 C659.476303,774.990028 651.971708,730.535873 696.539609,728.8307 C696.539609,728.8307 695.450394,690.728563 746.763437,694.587638 L755.18737,694.108993 C755.18737,694.108993 758.335103,668.950215 793.739604,669.000074 C825.067042,669.000074 826.905718,695.704477 826.905718,695.704477 L878.728394,695.235804 C878.728394,695.235804 892.848225,688.68435 914.702485,690.638817 C952.924957,694.059135 949.607346,733.517433 949.607346,733.517433 C949.607346,733.517433 962.268227,733.238223 969.732851,744.42655 C975.448735,752.992301 973.729973,767.949958 973.839893,775 L781.978075,775 L781.908126,774.990028 Z" id="Path" fill="#AC9D15" fill-rule="nonzero"></path>
        <g id="poste_panfletos" transform="translate(1241.000000, 379.000000)" fill-rule="nonzero">
            <path d="M95.1515978,385.09 C85.2873624,377.675248 72.3967963,375.612907 60.7115978,379.58 C39.8815978,386.42 32.6615978,415.9 32.6615978,415.9 C22.8760121,413.736345 12.7255324,417.46079 6.66159783,425.44 C2.27675359,431.090978 -0.0701574367,438.057709 0.00159783307,445.21 L0.0815978331,458.9 L184.641598,458.9 C184.641598,458.9 192.151598,414.32 147.551598,412.61 C147.551598,412.61 142.261598,375.16 95.1715978,385.09" id="Path" fill="#AC9D15"></path>
            <g id="poste-panfletos" transform="translate(36.061598, -0.000000)">
                <path d="M29.96,407.859086 L37.06,414.31 L37.06,489.76 L6.55,489.76 L6.55,414.31 L14.98,407.85 L14.98,43.6614142 C6.25270913,40.5767596 0,32.253579 0,22.47 C0,10.0601617 10.0601617,2.84217094e-14 22.47,2.84217094e-14 C34.8798383,2.84217094e-14 44.94,10.0601617 44.94,22.47 C44.94,32.253579 38.6872909,40.5767596 29.96,43.6614142 L29.96,407.859086 L29.96,407.859086 Z" id="Path" fill="#5E2962"></path>
                <path d="M9.35,27.4 C9.35,27.4 7.57,17.26 21.93,12.09 C36.29,6.92 26.31,1.34 15.51,4.51 C4.71,7.68 3.11,22.93 5.68,27.43 C8.25,31.93 9.35,27.4 9.35,27.4 Z" id="Path" fill="#F7EBEA" opacity="0.29"></path>
            </g>
            <g id="panfletos" transform="translate(34.591598, 254.760000)">
                <path d="M15.29,0 C15.29,0 17.23,6.46 27.53,1.88 C27.53,1.88 28.68,33.88 18.95,41.55 L5.32,34.27 C5.32,34.27 11.48,27.08 15.29,0 Z" id="Path" fill="#E2AE9B"></path>
                <path d="M19.48,104.03 L33.38,104.03 C33.38,104.03 35.48,134.12 41.2,136.79 C41.2,136.79 36.84,145.56 21.96,143.28 C21.96,143.28 21.01,128.85 19.48,104.03 Z" id="Path" fill="#DA9682"></path>
                <path d="M35.89,70.53 C35.89,70.53 35.13,94.18 47.34,101.81 C47.34,101.81 48.93,106.97 30.24,110.81 C30.24,110.81 26.42,109.29 21.84,96.7 L21.84,72.26 L35.89,70.53 Z" id="Path" fill="#E2AE9B"></path>
                <path d="M13.82,60.51 C13.82,60.51 11.47,93.42 0,101.28 C0,101.28 13.11,109.01 15.78,108.62 C22.6648619,94.952321 26.5708983,79.9791817 27.24,64.69 L13.82,60.51 Z" id="Path" fill="#D27963"></path>
                <path d="M21.57,45.85 C21.57,45.85 19.06,68.62 30.73,80.56 L47.87,76.81 C47.87,76.81 38.81,71.26 34.31,44.18 L21.57,45.85 Z" id="Path" fill="#DA9682"></path>
                <polygon id="Path" fill="#E2AE9B" points="44.4 225.45 79.58 216.79 97.55 223.45 61.61 232.57"></polygon>
                <polygon id="Path" fill="#DA9682" points="78.4 224.79 70.97 233.71 106.91 236.6 112.85 225.68"></polygon>
                <polygon id="Path" fill="#DA9682" points="47.53 247.81 66.76 257.57 36.44 270.78 16.4 259.74"></polygon>
            </g>
        </g>
        <path d="M814.553382,683.908734 C814.553382,683.908734 819.787391,676.062411 837.705706,680.209895 C855.624022,684.35738 856,709.780662 856,709.780662 L813,710 L814.553382,683.908734 Z" id="Path" fill="#AC9D15" fill-rule="nonzero"></path>
        <path d="M0,776 L139.606522,776 C139.606522,776 145.808589,739.089359 108.966312,737.675504 C108.966312,737.675504 80.956978,697.134965 35.7119006,708.846899 L35.7119006,708.846899 C35.7119006,708.846899 29.2497471,687.959948 0,688 L0,776 Z" id="Path" fill="#AC9D15" fill-rule="nonzero"></path>
        <ellipse id="Oval" fill="#CE6945" fill-rule="nonzero" opacity="0.1" cx="365" cy="906" rx="204" ry="21"></ellipse>
        <ellipse id="Oval" fill="#CE6945" fill-rule="nonzero" opacity="0.1" cx="813" cy="797.5" rx="118" ry="13.5"></ellipse>
        <g id="banco" transform="translate(701.000000, 689.000000)" fill-rule="nonzero">
            <path d="M35.17,13.91 L41.71,13.91 L41.71,66.25 L35.17,66.25 L35.17,13.91 Z M28.19,73.1 L38.82,73.1 L38.82,102.95 L28.19,102.95 L28.19,73.1 Z" id="Combined-Shape" fill="#D8A075"></path>
            <polygon id="Path" fill="#EAC285" points="28.68 74.83 28.68 111.08 15.15 111.08 15.15 74.83 0 74.83 13.95 61.75 202.81 61.75 218.77 74.83"></polygon>
            <rect id="Rectangle" fill="#EAC285" x="13.95" y="1.0658141e-14" width="188.87" height="49.48"></rect>
            <polygon id="Path" fill="#D1756A" points="13.95 18.09 202.81 18.09 202.81 17.09 13.95 17.09"></polygon>
            <polygon id="Path" fill="#D1756A" points="13.95 34.03 202.81 34.03 202.81 33.03 13.95 33.03"></polygon>
        </g>
        <rect id="Rectangle" fill="#D59486" fill-rule="nonzero" x="883" y="703" width="7" height="52"></rect>
        <rect id="Rectangle" fill="#D1756A" fill-rule="nonzero" transform="translate(892.500000, 777.000000) rotate(180.000000) translate(-892.500000, -777.000000) " x="887" y="762" width="11" height="30"></rect>
        <rect id="Rectangle" fill="#D59486" fill-rule="nonzero" transform="translate(904.000000, 781.000000) rotate(180.000000) translate(-904.000000, -781.000000) " x="897" y="762" width="14" height="38"></rect>
        <ellipse id="Oval" fill="#CE6945" fill-rule="nonzero" opacity="0.1" cx="92.5" cy="872" rx="47.5" ry="6"></ellipse>
        <ellipse id="Oval" fill="#CE7251" fill-rule="nonzero" opacity="0.1" cx="480.5" cy="951" rx="47.5" ry="6"></ellipse>
        <ellipse id="Oval" fill="#CE6945" fill-rule="nonzero" opacity="0.1" cx="604.5" cy="768" rx="47.5" ry="6"></ellipse>
        <ellipse id="Oval" fill="#CE6945" fill-rule="nonzero" opacity="0.1" cx="843.5" cy="619" rx="47.5" ry="3"></ellipse>
        <ellipse id="Oval" fill="#CE6945" fill-rule="nonzero" opacity="0.1" cx="1299" cy="869.5" rx="53" ry="6.5"></ellipse>
        <g id="quem_somos" transform="translate(193.000000, 589.000000)"></g>
        <ellipse id="Oval" fill="#CE6945" fill-rule="nonzero" opacity="0.1" cx="1082" cy="787" rx="99" ry="13"></ellipse>
        <ellipse id="Oval" fill="#CE6945" fill-rule="nonzero" opacity="0.1" cx="912" cy="872.5" rx="82" ry="6.5"></ellipse>
    </g>
</svg>