<?xml version="1.0" encoding="UTF-8"?>
<svg width="235px" height="355px" viewBox="0 0 235 355" version="1.1" xmlns="http://www.w3.org/2000/svg" xmlns:xlink="http://www.w3.org/1999/xlink">
    <!-- Generator: Sketch 54 (76480) - https://sketchapp.com -->
    <title>hospital</title>
    <desc>Created with Sketch.</desc>
    <g id="Page-1" stroke="none" stroke-width="1" fill="none" fill-rule="evenodd">
        <g id="home" transform="translate(-391.000000, -248.000000)" fill-rule="nonzero">
            <g id="hospital" transform="translate(391.000000, 248.000000)">
                <g id="Group-3" transform="translate(0.000000, 0.000000)">
                    <rect id="Rectangle" fill="#DDE8E7" x="1.86" y="0" width="232.37" height="354.05"></rect>
                    <rect id="Rectangle" fill="#C6C6C6" opacity="0.55" x="5.68434189e-14" y="79.77" width="232.37" height="5.77"></rect>
                    <rect id="Rectangle" fill="#C6C6C6" opacity="0.55" x="0" y="161.41" width="232.19" height="5.77"></rect>
                    <polygon id="Path" fill="#C6C6C6" opacity="0.55" points="232.19 254.61 0 255.3 0 261.07 232.19 260.37"></polygon>
                    <rect id="Rectangle" fill="#EDEDED" x="18.29" y="274.78" width="45.92" height="54.1"></rect>
                    <path d="M15.92,272.43 L15.92,331.27 L65.59,331.27 L65.59,272.43 L15.92,272.43 Z M63.59,274.43 L63.59,329.27 L17.92,329.27 L17.92,274.43 L63.59,274.43 Z" id="Path" fill="#828282"></path>
                    <rect id="Rectangle" fill="#EDEDED" x="173.01" y="274.81" width="45.92" height="54.1"></rect>
                    <path d="M170.64,272.46 L170.64,331.32 L221.31,331.32 L221.31,272.46 L170.64,272.46 Z M219.31,274.46 L219.31,329.32 L172.64,329.32 L172.64,274.46 L219.31,274.46 Z" id="Path" fill="#828282"></path>
                    <rect id="Rectangle" fill="#EDEDED" x="81.11" y="285.57" width="73.86" height="67.44"></rect>
                    <path d="M117.04,284.72 L155.97,284.72 L155.97,353.85 L117.04,353.85 L80.11,353.85 L80.11,284.72 L117.04,284.72 Z M117.04,351.85 L117.04,286.72 L82.11,286.72 L82.11,351.85 L117.04,351.85 Z M119.04,351.85 L153.97,351.85 L153.97,286.72 L119.04,286.72 L119.04,351.85 Z" id="Combined-Shape" fill="#828282"></path>
                    <rect id="Rectangle" fill="#828282" x="111.49" y="311.37" width="1.55" height="25.98"></rect>
                    <rect id="Rectangle" fill="#828282" x="123.26" y="311.37" width="1.55" height="25.98"></rect>
                    <rect id="Rectangle" fill="#EDEDED" x="34.37" y="95.34" width="34.28" height="51.9"></rect>
                    <path d="M35.47,129.87 L35.47,146.24 L67.75,146.24 L67.75,129.87 L35.47,129.87 Z M35.47,127.87 L67.75,127.87 L67.75,96.34 L35.47,96.34 L35.47,127.87 Z M33.47,94.34 L69.75,94.34 L69.75,148.24 L33.47,148.24 L33.47,94.34 Z" id="Combined-Shape" fill="#828282"></path>
                    <rect id="Rectangle" fill="#EDEDED" x="100.36" y="95.34" width="34.28" height="51.9"></rect>
                    <path d="M101.46,129.87 L101.46,146.24 L133.74,146.24 L133.74,129.87 L101.46,129.87 Z M101.46,127.87 L133.74,127.87 L133.74,96.34 L101.46,96.34 L101.46,127.87 Z M99.46,94.34 L135.74,94.34 L135.74,148.24 L99.46,148.24 L99.46,94.34 Z" id="Combined-Shape" fill="#828282"></path>
                    <rect id="Rectangle" fill="#EDEDED" x="166.35" y="95.34" width="34.28" height="51.9"></rect>
                    <path d="M167.45,129.87 L167.45,146.24 L199.73,146.24 L199.73,129.87 L167.45,129.87 Z M167.45,127.87 L199.73,127.87 L199.73,96.34 L167.45,96.34 L167.45,127.87 Z M165.45,94.34 L201.73,94.34 L201.73,148.24 L165.45,148.24 L165.45,94.34 Z" id="Combined-Shape" fill="#828282"></path>
                    <rect id="Rectangle" fill="#EDEDED" x="35.35" y="181.36" width="34.28" height="51.9"></rect>
                    <path d="M36.45,215.9 L36.45,232.26 L68.73,232.26 L68.73,215.9 L36.45,215.9 Z M36.45,213.9 L68.73,213.9 L68.73,182.36 L36.45,182.36 L36.45,213.9 Z M34.45,180.36 L70.73,180.36 L70.73,234.26 L34.45,234.26 L34.45,180.36 Z" id="Combined-Shape" fill="#828282"></path>
                    <rect id="Rectangle" fill="#EDEDED" x="101.34" y="181.36" width="34.28" height="51.9"></rect>
                    <path d="M102.44,215.9 L102.44,232.26 L134.72,232.26 L134.72,215.9 L102.44,215.9 Z M102.44,213.9 L134.72,213.9 L134.72,182.36 L102.44,182.36 L102.44,213.9 Z M100.44,180.36 L136.72,180.36 L136.72,234.26 L100.44,234.26 L100.44,180.36 Z" id="Combined-Shape" fill="#828282"></path>
                    <rect id="Rectangle" fill="#EDEDED" x="167.33" y="181.36" width="34.28" height="51.9"></rect>
                    <path d="M168.43,215.9 L168.43,232.26 L200.71,232.26 L200.71,215.9 L168.43,215.9 Z M168.43,213.9 L200.71,213.9 L200.71,182.36 L168.43,182.36 L168.43,213.9 Z M166.43,180.36 L202.71,180.36 L202.71,234.26 L166.43,234.26 L166.43,180.36 Z" id="Combined-Shape" fill="#828282"></path>
                    <rect id="Rectangle" fill="#C6C6C6" x="5.68434189e-14" y="76.19" width="232.37" height="5.77"></rect>
                    <rect id="Rectangle" fill="#C6C6C6" x="5.68434189e-14" y="157.83" width="232.37" height="5.77"></rect>
                    <rect id="Rectangle" fill="#C6C6C6" x="0" y="251.72" width="232.19" height="5.77"></rect>
                </g>
                <g id="Group-2" transform="translate(90.190000, 11.520000)">
                    <polygon id="Path" fill="#C6C6C6" opacity="0.55" points="55.7 22.27 35.68 22.27 35.68 2.25 20.19 2.25 20.19 22.27 0.17 22.27 0.17 37.76 20.19 37.76 20.19 57.78 35.68 57.78 35.68 37.76 55.7 37.76"></polygon>
                    <polygon id="Path" fill="#990000" points="55.53 20.02 35.51 20.02 35.51 0 20.02 0 20.02 20.02 0 20.02 0 35.51 20.02 35.51 20.02 55.53 35.51 55.53 35.51 35.51 55.53 35.51"></polygon>
                </g>
                <g id="Group-4" transform="translate(85.430000, 265.480000)" fill="#828282">
                    <polygon id="Path" points="4.64 6.46 1.54 6.46 1.54 8.88 5 8.88 5 10.11 0 10.11 0 1.89 4.78 1.89 4.78 3.12 1.5 3.12 1.5 5.24 4.64 5.24"></polygon>
                    <path d="M13.23,6.79 C13.23,5.73 13.12,4.45 13.13,3.34 L13.13,3.34 C12.87,4.34 12.52,5.45 12.13,6.48 L10.93,10.04 L9.78,10.04 L8.68,6.53 C8.36,5.48 8.07,4.36 7.85,3.34 L7.85,3.34 C7.85,4.41 7.76,5.71 7.7,6.84 L7.52,10.14 L6.11,10.14 L6.66,1.92 L8.66,1.92 L9.73,5.23 C10.02,6.23 10.28,7.16 10.49,8.08 L10.49,8.08 C10.71,7.19 10.99,6.18 11.31,5.21 L12.44,1.92 L14.44,1.92 L14.92,10.14 L13.46,10.14 L13.23,6.79 Z" id="Path"></path>
                    <polygon id="Path" points="20.98 6.46 17.88 6.46 17.88 8.88 21.34 8.88 21.34 10.11 16.34 10.11 16.34 1.89 21.12 1.89 21.12 3.12 17.84 3.12 17.84 5.24 20.94 5.24"></polygon>
                    <path d="M22.64,2 C23.3907669,1.88154418 24.1499641,1.824688 24.91,1.83 C25.8079027,1.74487901 26.7071162,1.97853292 27.45,2.49 C27.9204885,2.90610129 28.1777577,3.51252156 28.15,4.14 C28.1405314,5.07319159 27.5433202,5.89886616 26.66,6.2 L26.66,6.2 C27.2837792,6.5059157 27.7147667,7.10180267 27.81,7.79 C27.9735521,8.56742086 28.1907382,9.33258408 28.46,10.08 L26.91,10.08 C26.6693209,9.45098221 26.4852575,8.80174039 26.36,8.14 C26.13,7.07 25.74,6.73 24.89,6.7 L24.13,6.7 L24.13,10.08 L22.64,10.08 L22.64,2 Z M24.13,5.63 L25.02,5.63 C26.02,5.63 26.66,5.1 26.66,4.28 C26.66,3.46 26.03,2.96 25.06,2.96 C24.7479402,2.95028074 24.4358156,2.97713018 24.13,3.04 L24.13,5.63 Z" id="Shape"></path>
                    <path d="M36.19,9.73 C35.3386178,10.030492 34.442846,10.1859845 33.54,10.19 C32.3645675,10.2682233 31.2062309,9.87611556 30.32,9.1 C29.5441196,8.29899983 29.1318673,7.21412514 29.18,6.1 C29.18,3.51 31.03,1.84 33.75,1.84 C34.4959574,1.81593646 35.2386533,1.94880408 35.93,2.23 L35.6,3.43 C35.0118222,3.18279613 34.3778012,3.06349109 33.74,3.08 C32.9228293,3.00162052 32.113372,3.29241444 31.5328932,3.87289322 C30.9524144,4.453372 30.6616205,5.26282934 30.74,6.08 C30.6533625,6.87252954 30.9200963,7.66300112 31.4692025,8.24100763 C32.0183087,8.81901415 32.7940719,9.12590784 33.59,9.08 C33.9783301,9.09894491 34.3663987,9.03767093 34.73,8.9 L34.73,6.9 L33.27,6.9 L33.27,5.71 L36.18,5.71 L36.19,9.73 Z" id="Path"></path>
                    <path d="M42.32,6.46 L39.23,6.46 L39.23,8.88 L42.69,8.88 L42.69,10.11 L37.69,10.11 L37.69,1.89 L42.47,1.89 L42.47,3.12 L39.19,3.12 L39.19,5.24 L42.28,5.24 L42.32,6.46 Z M40.7,0 L41.96,1.45 L40.84,1.45 L40.15,0.66 L40.15,0.66 L39.45,1.45 L38.34,1.45 L39.57,0 L40.7,0 Z" id="Shape"></path>
                    <path d="M44.01,10.11 L44.01,1.89 L45.72,1.89 L47.84,5.42 C48.3696067,6.30323977 48.837393,7.22210583 49.24,8.17 L49.24,8.17 C49.15,7.07 49.11,6.01 49.11,4.76 L49.11,1.89 L50.5,1.89 L50.5,10.11 L48.95,10.11 L46.81,6.5 C46.2598423,5.58404764 45.765606,4.6356483 45.33,3.66 L45.33,3.66 C45.4,4.72 45.41,5.81 45.41,7.16 L45.41,10.1 L44.01,10.11 Z" id="Path"></path>
                    <path d="M58.14,9.87 C57.4658191,10.1352669 56.743955,10.2578476 56.02,10.23 C54.8925827,10.3264044 53.7794475,9.92456013 52.9735848,9.1302372 C52.1677221,8.33591427 51.7498656,7.22869046 51.83,6.1 C51.767577,4.92208875 52.2117942,3.77369705 53.0506353,2.94440994 C53.8894765,2.11512282 55.042881,1.68408884 56.22,1.76 C56.9048752,1.73368197 57.5872891,1.85651646 58.22,2.12 L57.89,3.32 C57.381226,3.1031794 56.8330178,2.99421876 56.28,3 C55.4819253,2.95543267 54.7041787,3.26158241 54.1506254,3.83820041 C53.5970721,4.41481841 53.3229089,5.20440808 53.4,6 C53.3089288,6.79703253 53.5769978,7.5932891 54.1315534,8.17296394 C54.686109,8.75263877 55.4697171,9.05569622 56.27,9 C56.8290283,9.01172956 57.3843059,8.90612463 57.9,8.69 L58.14,9.87 Z" id="Path"></path>
                    <polygon id="Path" points="60.93 1.89 60.93 10.11 59.43 10.11 59.43 1.89"></polygon>
                    <path d="M64.3,7.79 L63.59,10.12 L62.04,10.12 L64.64,1.89 L66.64,1.89 L69.31,10.11 L67.64,10.11 L66.89,7.78 L64.3,7.79 Z M66.65,6.66 L66,4.66 C65.84,4.16 65.71,3.6 65.59,3.13 L65.59,3.13 C65.47,3.6 65.35,4.18 65.2,4.66 L64.57,6.66 L66.65,6.66 Z" id="Shape"></path>
                </g>
            </g>
        </g>
    </g>
</svg>