<?xml version="1.0" encoding="UTF-8"?>
<svg width="294px" height="355px" viewBox="0 0 294 355" version="1.1" xmlns="http://www.w3.org/2000/svg" xmlns:xlink="http://www.w3.org/1999/xlink">
    <!-- Generator: Sketch 54 (76480) - https://sketchapp.com -->
    <title>igreja</title>
    <desc>Created with Sketch.</desc>
    <g id="Page-1" stroke="none" stroke-width="1" fill="none" fill-rule="evenodd">
        <g id="home" transform="translate(-98.000000, -250.000000)" fill-rule="nonzero">
            <g id="igreja" transform="translate(98.000000, 250.000000)">
                <polygon id="Path" fill="#E0D5C1" points="293.92 352.83 293.92 179.13 190.44 128.37 190.44 352.83"></polygon>
                <polygon id="Path" fill="#E0D5C1" points="5.5 351.56 5.5 179.13 108.99 128.37 108.99 351.56"></polygon>
                <polygon id="Path" fill="#ECE5D6" points="108.99 82.33 108.84 351.56 190.29 351.56 190.44 82.33 149.71 33.94"></polygon>
                <polygon id="Path" fill="#8F5643" points="0 182.28 108.99 128.37 108.99 123.43 0 177.41"></polygon>
                <polygon id="Path" fill="#8F5643" points="293.92 179.75 190.44 128.37 190.44 123.43 293.92 174.89"></polygon>
                <path d="M149.71,33.94 L93.77,101.83 L88.01,101.95 L149.69,27.51 L211.37,101.95 L205.61,101.83 L149.71,33.94 Z" id="Combined-Shape" fill="#8F5643"></path>
                <path d="M147.706643,14.8 L139.99,14.8 L139.99,10.8 L147.664105,10.8 L147.560113,1.02126785 L151.559887,0.978732149 L151.664331,10.8 L160.36,10.8 L160.36,14.8 L151.70687,14.8 L151.859887,29.1887321 L147.860113,29.2312679 L147.706643,14.8 Z" id="Combined-Shape" fill="#8F5643"></path>
                <path d="M162.280123,125.74 L137.599856,125.74 L137.6,95.82 C137.580258,91.1473863 139.59527,86.6975697 143.12,83.63 C147.026921,80.2088838 152.863079,80.2088838 156.77,83.63 C160.287742,86.7018568 162.29827,91.1498308 162.28,95.82 L162.280123,125.74 Z" id="Path" fill="#F6E9E3"></path>
                <polygon id="Path" fill="#454A4D" points="163.69 101.77 151.23 101.77 151.23 79.36 148.09 79.36 148.09 101.77 136.16 101.77 136.16 104.64 148.09 104.64 148.09 127.49 151.23 127.49 151.23 104.64 163.69 104.64"></polygon>
                <path d="M157.89,81.14 C153.286238,77.3085069 146.603762,77.3085069 142,81.14 C137.933377,84.5193497 135.580704,89.5325214 135.58,94.82 L135.58,128.37 L164.34,128.37 L164.34,94.82 C164.33189,89.5275916 161.967825,84.5135734 157.89,81.14 L157.89,81.14 Z M162.280123,125.71 L137.599856,125.71 L137.6,95.82 C137.580258,91.1473863 139.59527,86.6975697 143.12,83.63 C147.026921,80.2088838 152.863079,80.2088838 156.77,83.63 C160.287742,86.7018568 162.29827,91.1498308 162.28,95.82 L162.280123,125.71 Z" id="Shape" fill="#454A4D"></path>
                <path d="M161.900123,222.19 L137.219877,222.19 L137.22,192.31 C137.20173,187.639831 139.212258,183.191857 142.73,180.12 C146.641826,176.701815 152.478174,176.701815 156.39,180.12 C159.907742,183.191857 161.91827,187.639831 161.9,192.31 L161.900123,222.19 Z" id="Path" fill="#F6E9E3"></path>
                <path d="M161.900036,201.09 L150.85,201.09 L150.85,222.16 L161.900123,222.16 L161.900036,201.09 Z M147.7,222.16 L147.7,201.09 L137.219964,201.09 L137.219877,222.16 L147.7,222.16 Z M137.219975,198.22 L147.7,198.22 L147.7,177.693722 C145.909016,178.018828 144.186169,178.817588 142.73,180.09 C139.212258,183.161857 137.20173,187.609831 137.22,192.28 L137.219975,198.22 Z M150.85,177.606502 L150.85,198.22 L161.900025,198.22 L161.9,192.28 C161.91827,187.609831 159.907742,183.161857 156.39,180.09 C154.779906,178.683087 152.843776,177.855254 150.85,177.606502 Z M157.51,177.59 C161.576623,180.96935 163.929296,185.982521 163.93,191.27 L163.93,224.82 L135.2,224.82 L135.2,191.27 C135.201016,185.984782 137.549367,180.973014 141.61,177.59 C146.218424,173.760979 152.901576,173.760979 157.51,177.59 Z" id="Combined-Shape" fill="#454A4D"></path>
                <path d="M67.52,241.04 L42.8398401,241.04 L42.84,211.15 C42.8192109,206.481421 44.8259727,202.033707 48.34,198.96 C52.2518258,195.541815 58.0881742,195.541815 62,198.96 C65.5177422,202.031857 67.5282702,206.479831 67.51,211.15 L67.52,241.04 Z" id="Path" fill="#F6E9E3"></path>
                <path d="M67.5129475,219.93 L56.46,219.93 L56.46,241.01 L67.52,241.01 L67.5129475,219.93 Z M53.32,241.01 L53.32,219.93 L42.8399529,219.93 L42.8398401,241.01 L53.32,241.01 Z M42.8399682,217.07 L53.32,217.07 L53.32,196.531911 C51.5254292,196.855857 49.7988788,197.65522 48.34,198.93 C44.8259727,202.003707 42.8192109,206.451421 42.84,211.12 L42.8399682,217.07 Z M56.46,196.446502 L56.46,217.07 L67.5119906,217.07 L67.51,211.12 C67.5282702,206.449831 65.5177422,202.001857 62,198.93 C60.3899062,197.523087 58.4537759,196.695254 56.46,196.446502 Z M63.13,196.43 C67.1921934,199.816124 69.5405615,204.831593 69.54,210.12 L69.5400001,243.66 L40.8199999,243.66 L40.82,210.12 C40.8194385,204.831593 43.1678066,199.816124 47.23,196.43 C51.8384243,192.600979 58.5215757,192.600979 63.13,196.43 Z" id="Combined-Shape" fill="#454A4D"></path>
                <path d="M177.47,305.87 C177.461789,300.983132 174.932557,296.446395 170.78,293.87 L170.78,293.87 C159.414533,286.819873 145.035467,286.819873 133.67,293.87 L133.67,293.87 C129.517443,296.446395 126.988211,300.983132 126.98,305.87 L126.98,350.45 L151.19,350.45 L151.19,350.51 L153.26,350.51 L153.26,350.45 L177.47,350.45 L177.47,305.87 Z" id="Path" fill="#8F5643"></path>
                <path d="M178.15,305.09 C178.150865,300.059475 175.547852,295.386915 171.27,292.74 L171.27,292.74 C159.599256,285.509082 144.840744,285.509082 133.17,292.74 L133.17,292.74 C128.912728,295.400357 126.330321,300.069864 126.34,305.09 L126.34,350.82 L151.2,350.82 L151.2,350.89 L153.32,350.89 L153.32,350.82 L178.19,350.82 L178.15,305.09 Z M129,350.5 L129,306.82 C128.95399,302.107512 131.26538,297.683601 135.16,295.03 C139.914455,291.868086 145.453593,290.088638 151.16,289.89 L151.16,350.52 L129,350.5 Z M175.45,350.5 L153.28,350.5 L153.28,289.87 C158.986407,290.068638 164.525545,291.848086 169.28,295.01 C173.184356,297.665267 175.500485,302.098571 175.45,306.82 L175.45,350.5 Z" id="Shape" fill="#454A4D"></path>
                <path d="M255.5,241.04 L230.819908,241.04 L230.82,211.15 C230.804247,206.47824 232.818542,202.030005 236.34,198.96 C240.251826,195.541815 246.088174,195.541815 250,198.96 C253.517742,202.031857 255.52827,206.479831 255.51,211.15 L255.5,241.04 Z" id="Path" fill="#F6E9E3"></path>
                <path d="M255.507053,219.93 L244.45,219.93 L244.45,241.01 L255.5,241.01 L255.507053,219.93 Z M241.3,241.01 L241.3,219.93 L230.819973,219.93 L230.819908,241.01 L241.3,241.01 Z M230.819982,217.07 L241.3,217.07 L241.3,196.535542 C239.512603,196.861804 237.793458,197.659956 236.34,198.93 C232.818542,202.000005 230.804247,206.44824 230.82,211.12 L230.819982,217.07 Z M244.45,196.44526 L244.45,217.07 L255.508009,217.07 L255.51,211.12 C255.52827,206.449831 253.517742,202.001857 250,198.93 C248.387215,197.520735 246.447301,196.692488 244.45,196.44526 Z M251.11,196.43 C255.179315,199.811586 257.532269,204.829022 257.53,210.12 L257.530002,243.66 L228.8,243.66 L228.8,210.12 C228.799439,204.831593 231.147807,199.816124 235.21,196.43 C239.818424,192.600979 246.501576,192.600979 251.11,196.43 Z" id="Combined-Shape" fill="#454A4D"></path>
                <path d="M67.52,327.2 L42.8398401,327.2 L42.84,297.32 C42.8192109,292.651421 44.8259727,288.203707 48.34,285.13 C52.2518258,281.711815 58.0881742,281.711815 62,285.13 C65.5177422,288.201857 67.5282702,292.649831 67.51,297.32 L67.52,327.2 Z" id="Path" fill="#F6E9E3"></path>
                <path d="M67.5129475,306.1 L56.46,306.1 L56.46,327.18 L67.52,327.18 L67.5129475,306.1 Z M53.32,327.18 L53.32,306.1 L42.8399529,306.1 L42.8398401,327.18 L53.32,327.18 Z M42.8399682,303.24 L53.32,303.24 L53.32,282.701911 C51.5254292,283.025857 49.7988788,283.82522 48.34,285.1 C44.8259727,288.173707 42.8192109,292.621421 42.84,297.29 L42.8399682,303.24 Z M56.46,282.616502 L56.46,303.24 L67.5119906,303.24 L67.51,297.29 C67.5282702,292.619831 65.5177422,288.171857 62,285.1 C60.3899062,283.693087 58.4537759,282.865254 56.46,282.616502 Z M63.13,282.6 C67.1921934,285.986124 69.5405615,291.001593 69.54,296.29 L69.5400001,329.82 L40.8199999,329.82 L40.82,296.29 C40.8194385,291.001593 43.1678066,285.986124 47.23,282.6 C51.8384243,278.770979 58.5215757,278.770979 63.13,282.6 Z" id="Combined-Shape" fill="#454A4D"></path>
                <path d="M255.5,327.2 L230.819908,327.2 L230.82,297.32 C230.804247,292.64824 232.818542,288.200005 236.34,285.13 C240.251826,281.711815 246.088174,281.711815 250,285.13 C253.517742,288.201857 255.52827,292.649831 255.51,297.32 L255.5,327.2 Z" id="Path" fill="#F6E9E3"></path>
                <path d="M255.507053,306.1 L244.45,306.1 L244.45,327.18 L255.5,327.18 L255.507053,306.1 Z M241.3,327.18 L241.3,306.1 L230.819973,306.1 L230.819908,327.18 L241.3,327.18 Z M230.819982,303.24 L241.3,303.24 L241.3,282.705542 C239.512603,283.031804 237.793458,283.829956 236.34,285.1 C232.818542,288.170005 230.804247,292.61824 230.82,297.29 L230.819982,303.24 Z M244.45,282.61526 L244.45,303.24 L255.508009,303.24 L255.51,297.29 C255.52827,292.619831 253.517742,288.171857 250,285.1 C248.387215,283.690735 246.447301,282.862488 244.45,282.61526 Z M251.11,282.6 C255.179315,285.981586 257.532269,290.999022 257.53,296.29 L257.530002,329.82 L228.8,329.82 L228.8,296.29 C228.799439,291.001593 231.147807,285.986124 235.21,282.6 C239.818424,278.770979 246.501576,278.770979 251.11,282.6 Z" id="Combined-Shape" fill="#454A4D"></path>
                <rect id="Rectangle" fill="#CABFAB" x="169.78" y="241.66" width="20.66" height="10.1"></rect>
                <rect id="Rectangle" fill="#CABFAB" x="121.16" y="262.64" width="20.66" height="10.1"></rect>
                <rect id="Rectangle" fill="#CABFAB" x="114.65" y="194.32" width="20.66" height="10.1"></rect>
                <rect id="Rectangle" fill="#CABFAB" x="106.32" y="161.18" width="20.66" height="10.1"></rect>
                <rect id="Rectangle" fill="#CABFAB" x="165.12" y="138.69" width="20.66" height="10.1"></rect>
                <rect id="Rectangle" fill="#CABFAB" x="169.78" y="115.61" width="20.66" height="10.1"></rect>
                <rect id="Rectangle" fill="#CABFAB" x="108.53" y="85.63" width="20.66" height="10.1"></rect>
                <polygon id="Path" fill="#CABFAB" points="106.32 351.83 108.99 351.83 108.99 128.37 106.32 130.63"></polygon>
                <polygon id="Path" fill="#CABFAB" points="190.44 352.77 193.1 352.77 193.1 130.99 190.44 129.31"></polygon>
                <path d="M281.65,328.87 L283.89,330.91 L283.89,354.67 L274.28,354.67 L274.28,330.91 L276.93,328.87 L276.93,214.177135 C274.180146,213.205201 272.21,210.582676 272.21,207.5 C272.21,203.589824 275.379824,200.42 279.29,200.42 C283.200176,200.42 286.37,203.589824 286.37,207.5 C286.37,210.582676 284.399854,213.205201 281.65,214.177135 L281.65,328.87 Z" id="Combined-Shape" fill="#333333"></path>
            </g>
        </g>
    </g>
</svg>