<?xml version="1.0" encoding="UTF-8"?>
<svg width="79px" height="256px" viewBox="0 0 79 256" version="1.1" xmlns="http://www.w3.org/2000/svg" xmlns:xlink="http://www.w3.org/1999/xlink">
    <!-- Generator: Sketch 54 (76480) - https://sketchapp.com -->
    <title>man_headphone</title>
    <desc>Created with Sketch.</desc>
    <g id="Page-1" stroke="none" stroke-width="1" fill="none" fill-rule="evenodd">
        <g id="home" transform="translate(-55.000000, -618.000000)" fill-rule="nonzero">
            <g id="man_headphone" transform="translate(55.000000, 618.000000)">
                <path d="M47.08,33.2335028 L47.08,44.2876359 L35.19,44.2876359 L35.19,33.2661779 C35.1732968,33.2533874 35.15663,33.24054 35.14,33.2276359 C31.35,30.3876359 28.78,24.9176359 28.78,18.6376359 C28.78,9.43763594 34.29,1.97763594 41.09,1.97763594 C47.89,1.97763594 53.45,9.43763594 53.45,18.6376359 C53.45,24.9231555 50.8780749,30.3964882 47.08,33.2335028 Z" id="Combined-Shape" fill="#D27756"></path>
                <path d="M18.38,117.647636 C15.25,122.647636 13.58,128.177636 12.31,133.797636 L66.78,131.217636 L62.86,117.687636 L18.38,117.647636 Z" id="Path" fill="#161946"></path>
                <path d="M35.2260903,33.2936827 C36.9274338,34.5841187 39.0026997,35.2879703 41.14,35.2976359 C43.2778902,35.2976359 45.2882709,34.5602552 47.04,33.2632502 L47.04,35.0776359 C41.28,38.9776359 35.38,35.0776359 35.38,35.0776359 L35.2260903,33.2936827 Z" id="Combined-Shape" fill="#AA5D45"></path>
                <path d="M63.79,60.4676359 C63.79,60.4676359 65.5,97.5776359 65.15,100.697636 C64.8,103.817636 59.15,127.257636 59.15,127.257636 L57.59,134.257636 L66.78,131.217636 L73.85,114.327636 C75.62,110.137636 78.48,100.097636 78.1,95.5776359 C76.97,82.0876359 78.25,54.5776359 74.56,51.0576359 C69.7,46.4976359 47.08,41.0576359 47.08,41.0576359 L34.3,41.0576359 C27.6209741,42.7200966 21.1047885,44.9791748 14.83,47.8076359 C10.5410369,49.723738 7.32955712,53.452134 6.07,57.9776359 C3.01,68.8076359 3.99,88.2176359 3.16,98.2176359 C2.78955233,102.738026 3.83824888,107.261404 6.16,111.157636 L15.53,133.847636 L24.76,136.907636 L23.2,129.907636 C23.2,129.907636 16.38,105.217636 16,102.077636 C15.62,98.9376359 18.49,63.1376359 18.49,63.1376359 L13.25,120.987636 L65.84,120.987636 L63.79,60.4676359 Z" id="Path" fill="#C89DC6"></path>
                <path d="M27.9863858,42.8218046 C29.5565405,46.7696924 32.7095237,57.1460244 30.43,72.7176359 C27.47,92.9376359 16,97.9476359 16,97.9476359 L16,89.8276359 C16,89.8276359 27.5256135,69.8856006 18.6675421,46.1610176 C17.3789139,46.6864332 16.0995163,47.2353812 14.83,47.8076359 C10.5410369,49.723738 7.32955712,53.452134 6.07,57.9776359 C3.01,68.8076359 3.99,88.2176359 3.16,98.2176359 C3.01176773,100.026441 3.09076161,101.835725 3.38762183,103.605115 C1.74225965,102.034009 1.04,100.797636 1.04,100.797636 C1.04,100.797636 -0.3,57.6076359 1.04,52.5776359 C2.38,47.5476359 12.92,42.6476359 21.11,40.2276359 C29.3,37.8076359 34.3,41.0376359 34.3,41.0376359 C34.3,41.0376359 34.3006113,41.0443467 34.3018054,41.0576359 L34.3,41.0576359 C32.1781882,41.5857711 30.0728105,42.1741184 27.9863858,42.8218046 Z" id="Combined-Shape" fill="#E5B81D"></path>
                <path d="M49.01,9.81763594 C53.01,11.7376359 51.86,15.3876359 52.35,17.2476359 C52.84,19.1076359 51.98,24.4276359 52.72,23.6776359 C53.46,22.9276359 55.94,19.6776359 55.45,12.1676359 C55.0635362,6.84115224 51.640596,2.2149259 46.66,0.287635938 C44.18,-0.712364062 34.03,1.14763594 31.92,2.01763594 C29.81,2.88763594 29.92,4.01763594 28.09,7.95763594 C24.94,14.5876359 29.25,22.9576359 29.25,22.9576359 C29.25,22.9576359 30.81,12.8176359 34.77,12.8176359 C38.73,12.8176359 41.08,12.3276359 42.77,10.3376359 C44.46,8.34763594 49.01,9.81763594 49.01,9.81763594 Z" id="Path" fill="#350B39"></path>
                <path d="M47.4540639,73.6435951 C48.1564971,69.8181638 49.0537179,66.1933326 50.1555393,62.4898975 C50.4349336,61.5507992 52.5411941,54.8649992 53.0523682,53.0119343 C55.4674523,44.2569776 55.4692559,36.7559043 52.2745353,23.7973191 L53.2454647,23.5579528 C56.4801194,36.6785212 56.4782741,44.3531453 54.016363,53.2778555 C53.499441,55.1517573 51.3888227,61.8513899 51.1140191,62.7750581 C48.3713857,71.9935799 46.9092213,80.7114953 46.5698198,93.3510573 C46.1025752,110.751592 41.4165891,121.079342 33.8529466,125.784208 C29.809192,128.299574 25.5544639,128.878498 21.8420165,128.370259 C21.4210592,128.312629 21.1187914,128.254165 20.9516014,128.213415 L21.1883986,127.241856 C21.3232722,127.274729 21.5919535,127.326697 21.9776529,127.3795 C25.4784766,127.858768 29.5054487,127.310833 33.324758,124.935081 C40.5682124,120.429384 45.1112051,110.416787 45.5701802,93.3242146 C45.7609807,86.2186601 46.3053454,80.3361842 47.2302975,74.907896 C43.0859618,70.2247415 39.6710242,64.8778642 36.9227329,58.9930113 C33.3256362,51.2906313 31.0252998,43.0459712 29.763618,34.7728157 C29.3138102,31.8233162 29.0275506,29.0600485 28.8728576,26.5471984 C28.816714,25.6351957 28.7814886,24.8099403 28.763192,24.0794593 C28.7510457,23.594526 28.7478543,23.2204579 28.7496319,22.9652849 L28.7500472,22.9207671 L29.7499528,22.9345048 L29.7496076,22.972251 C29.7443839,23.7221067 29.7742568,24.9147652 29.8709681,26.4857539 C30.0238807,28.9696838 30.3070676,31.7032897 30.7521884,34.6220557 C32.000411,42.8069561 34.275605,50.9615029 37.8287964,58.5698696 C40.4208659,64.1202083 43.6116895,69.1807107 47.4540639,73.6435951 Z" id="Combined-Shape" fill="#161946"></path>
                <polygon id="Path" fill="#161946" points="20.38 245.067636 20.38 251.547636 -3.55271368e-15 255.627636 13.9 245.067636"></polygon>
                <polygon id="Path" fill="#161946" points="55.57 245.067636 55.57 251.547636 75.95 255.627636 62.04 245.067636"></polygon>
                <polygon id="Path" fill="#AA5D45" points="40.8 19.2276359 39.38 28.2776359 42.9 28.2776359"></polygon>
                <path d="M21.1,120.987636 C21.1,120.987636 24.92,131.407636 12.32,133.797636 C12.32,133.797636 12.88,208.647636 12.88,245.067636 L20.98,245.067636 L40.26,137.287636 C40.2706261,137.261051 40.2963702,137.243617 40.325,137.243617 C40.3536298,137.243617 40.3793739,137.261051 40.39,137.287636 L55.57,245.057636 L64.12,245.057636 C64.12,245.057636 66.38,136.957636 66.78,131.217636 C66.78,131.217636 54.85,133.537636 58,121.027636 L21.1,120.987636 Z" id="Path" fill="#5E2962"></path>
                <path d="M63.79,60.4676359 L65.42,99.4676359 L60.61,120.947636 C64.27,104.467636 64.61,83.2776359 63.79,60.4676359 Z" id="Path" fill="#161946"></path>
                <path d="M17.17,60.4676359 L15.53,99.4676359 L20.38,120.987636 C16.75,105.667636 16.38,84.1476359 17.17,60.4676359 Z" id="Path" fill="#161946"></path>
            </g>
        </g>
    </g>
</svg>