<?xml version="1.0" encoding="UTF-8"?>
<svg width="132px" height="265px" viewBox="0 0 132 265" version="1.1" xmlns="http://www.w3.org/2000/svg" xmlns:xlink="http://www.w3.org/1999/xlink">
    <!-- Generator: Sketch 54 (76480) - https://sketchapp.com -->
    <title>man_suit_coffee</title>
    <desc>Created with Sketch.</desc>
    <g id="Page-1" stroke="none" stroke-width="1" fill="none" fill-rule="evenodd">
        <g id="home" transform="translate(-846.000000, -607.000000)" fill-rule="nonzero">
            <g id="man_suit_coffee" transform="translate(846.000000, 607.000000)">
                <rect id="Rectangle" fill="#350B39" transform="translate(43.391721, 171.998197) rotate(-169.900000) translate(-43.391721, -171.998197) " x="14.5617214" y="154.203197" width="57.66" height="35.59"></rect>
                <path d="M72.87,46.0442055 L75.57,35.6442055 C75.57,35.6442055 79.48,36.7042055 81.2,35.0442055 C81.92,34.3442055 83.97,29.1142055 83.97,24.3042055 C83.97,14.3042055 82.23,10.1242055 80.22,8.16420551 C75.74,3.79420551 60.07,3.16420551 57.94,10.7542055 C55.81,18.3442055 56.5,22.0442055 60.36,32.8242055 L57.99,43.6142055 L72.87,46.0442055 Z" id="Path" fill="#D37A5B"></path>
                <path d="M78.86,52.8942055 L82.09,45.7542055 C82.09,45.7542055 68.82,35.0342055 58.61,34.3542055 L56.4,38.8542055 L78.86,52.8942055 Z" id="Path" fill="#FFFFFF"></path>
                <polygon id="Path" fill="#FFFFFF" points="98.53 100.024206 100.61 100.444206 97.64 113.044206 94.38 111.834206"></polygon>
                <path d="M109.41,240.454206 L114.5,255.694206 C114.5,255.694206 131.09,256.634206 131.5,257.694206 L108.07,263.844206 L102.21,242.424206 L109.41,240.454206 Z" id="Path" fill="#E5B81D"></path>
                <polygon id="Path" fill="#E5B81D" points="22.35 264.254206 10.38 264.254206 -5.68434189e-14 256.234206 12.87 235.124206 19.97 239.454206 11.5 255.184206 15.11 260.194206"></polygon>
                <polygon id="Path" fill="#5E2962" points="85.43 133.344206 116.24 254.494206 105.93 257.164206 81.24 192.124206 63.86 158.514206 44.44 208.444206 12 255.224206 4.41 249.814206 30.82 188.794206 39.35 133.344206"></polygon>
                <path d="M83.4439528,95.8186099 L98.53,100.024206 L94.19,115.074206 L86.2881892,113.074535 L90.6,139.234206 C90.6,139.234206 54.19,144.874206 35.99,139.234206 L43.69,102.034206 C43.69,102.034206 41.69,99.9442055 42.33,97.5242055 C42.97,95.1042055 42.33,94.3042055 40.8,92.5242055 C39.27,90.7442055 43.8,63.1142055 45,56.1942055 C46.2,49.2742055 51.64,41.3742055 53.51,39.7642055 C55.0550599,38.2827012 56.4609511,36.6625789 57.71,34.9242055 C57.71,34.9242055 67.15,37.9242055 71.9,43.3442055 C76.65,48.7642055 84.3,64.5842055 84.47,66.3442055 C84.64,68.1042055 82.09,87.6042055 82.09,87.6042055 L83.4439528,95.8186099 Z" id="Combined-Shape" fill="#350B39"></path>
                <path d="M80.7155713,95.4727937 L65.87,90.7842055 L66.09,90.3042055 C66.4,89.8142055 66.93,88.2042055 66.4,87.3042055 C66.0230272,86.8021254 65.4160646,86.5269188 64.79,86.5742055 C64.1839051,86.5908409 63.6055658,86.3202077 63.23,85.8442055 C62.52,84.8942055 63.01,83.2442055 63.52,81.4242055 C64.03,79.6042055 64.62,77.5342055 64.08,76.0742055 C63.5173706,73.9821891 63.1458455,71.8434097 62.97,69.6842055 C62.24,64.0042055 61.24,56.2042055 58.24,51.8442055 C58.1488973,51.7102309 58.1361895,51.5378306 58.2066635,51.391946 C58.2771376,51.2460614 58.4200868,51.148856 58.5816635,51.136946 C58.7432403,51.125036 58.8988973,51.2002309 58.99,51.3342055 C62.12,55.8742055 63.13,63.7942055 63.87,69.5742055 C64.0492613,71.6635957 64.403843,73.7342192 64.93,75.7642055 C65.57,77.5042055 64.95,79.6742055 64.4,81.6742055 C63.97,83.1742055 63.54,84.7142055 63.97,85.3142055 C64.02,85.3942055 64.19,85.6642055 64.83,85.6642055 C65.7665766,85.6157705 66.6594524,86.0641081 67.18,86.8442055 C67.638427,87.9468175 67.6130311,89.1912151 67.11,90.2742055 L80.5842255,94.5232605 C80.0617807,89.7228684 77.0371158,68.9403626 76.15,66.0242055 C76.02,65.5842055 75.9,65.1842055 75.8,64.8042055 C75.17,62.6142055 74.86,61.5142055 72.74,60.0442055 L72.55,59.9042055 L72.55,59.3542055 C72.447062,57.3544199 72.4771283,55.350004 72.64,53.3542055 C71.2766907,52.704585 69.8576199,52.1791272 68.4,51.7842055 L68.11,51.7042055 L68.11,51.4142055 C67.6880172,48.3359978 66.6361361,45.3777948 65.02,42.7242055 C64.9573897,42.6221702 64.9380169,42.4993927 64.9661676,42.3830364 C64.9943184,42.2666801 65.0676721,42.1663364 65.17,42.1042055 C65.2704374,42.0357472 65.3951564,42.0129944 65.5132972,42.0415769 C65.6314381,42.0701594 65.7319634,42.1474068 65.79,42.2542055 C67.4268198,44.920491 68.5084317,47.8898216 68.97,50.9842055 C70.486395,51.4180842 71.9620009,51.9835659 73.38,52.6742055 L73.67,52.8142055 L73.67,53.1342055 C73.4799192,55.2086092 73.439815,57.2940275 73.55,59.3742055 L73.55,59.4642055 C75.77,61.0742055 76.15,62.4142055 76.77,64.6042055 C76.87,64.9742055 76.99,65.3642055 77.12,65.8042055 C78.0906097,68.9905506 81.300842,91.2761658 81.6335463,94.9750758 C81.6979879,95.0822932 81.7186571,95.2151874 81.68,95.3442055 C81.6162521,95.5335473 81.4397718,95.6618966 81.24,95.6642055 C81.0973552,95.7113418 80.9405961,95.6841856 80.8221191,95.5918136 C80.7791792,95.5583351 80.7433208,95.5178905 80.7155713,95.4727937 Z" id="Combined-Shape" fill="#5E2962"></path>
                <path d="M109.449826,93.9492039 L109.96,92.3242055 L119.17,94.1742055 L118.988016,95.8272298 L120.09,96.0442055 L114.48,116.214206 L105.93,114.944206 C105.93,114.944206 107.85,93.8242055 107.85,93.6342055 L109.449826,93.9492039 Z" id="Combined-Shape" fill="#EAC285"></path>
                <path d="M118.34,102.364206 L116.42,111.204206 L106.59,109.594206 C106.83,107.014206 107.08,104.144206 107.31,99.7142055 L118.34,102.364206 Z" id="Path" fill="#ECD350"></path>
                <path d="M117.5,109.884206 L117.11,111.224206 C116.952411,111.825768 116.401664,112.239864 115.78,112.224206 L110.78,112.024206 C108.713525,112.465027 106.589049,112.566353 104.49,112.324206 C102.385197,111.783594 100.328298,111.071205 98.34,110.194206 L100.1,102.764206 C100.1,102.764206 107.68,101.614206 109.1,101.764206 C110.52,101.914206 117.47,104.764206 117.98,105.074206 C118.49,105.384206 117.81,106.454206 117.81,106.454206" id="Path" fill="#D37A5B"></path>
                <path d="M55.56,6.80420551 C55.56,6.80420551 55.56,-0.195794485 59.65,0.00420551478 C62.2276124,0.126425433 64.7709031,0.645877392 67.19,1.54420551 C68.76,2.10420551 72.4,3.12420551 73.98,3.68420551 C76.35,4.50420551 86.91,6.33420551 86.89,3.01420551 C91.23,11.2642055 79.02,11.0142055 77.13,9.92420551 C76.7236728,13.2502914 74.8046979,16.2025606 71.93,17.9242055 C70.4016691,18.4917798 68.804074,18.8516591 67.18,18.9942055 C67.5009373,20.7781554 67.952145,22.5361946 68.53,24.2542055 L66.78,25.4042055 C65.95,24.1842055 64.98,21.9142055 63.98,20.8342055 C63.42,20.2142055 62.27,19.5142055 61.47,20.0642055 C60.9581215,20.4759007 60.6602866,21.0973094 60.66,21.7542055 C60.5570108,23.4407907 61.4012755,25.0445081 62.85,25.9142055 C62.79,26.4542055 62.65,29.8342055 62.65,29.8342055 L60.36,32.8342055 C60.36,32.8342055 58.29,28.2142055 55.36,21.4142055 C52.4,14.3042055 50.91,6.17420551 55.56,6.80420551 Z" id="Path" fill="#350B39"></path>
            </g>
        </g>
    </g>
</svg>