<?xml version="1.0" encoding="UTF-8"?>
<svg width="164px" height="156px" viewBox="0 0 164 156" version="1.1" xmlns="http://www.w3.org/2000/svg" xmlns:xlink="http://www.w3.org/1999/xlink">
    <!-- Generator: Sketch 54 (76480) - https://sketchapp.com -->
    <title>mapa</title>
    <desc>Created with Sketch.</desc>
    <g id="Page-1" stroke="none" stroke-width="1" fill="none" fill-rule="evenodd">
        <g id="home" transform="translate(-1111.000000, -802.000000)" fill-rule="nonzero">
            <g id="mapa" transform="translate(1111.000000, 802.000000)">
                <polygon id="Path" fill="#D8A075" points="112.54 137.88 126.71 2.63 36.67 0.96 0 153.53 3.32 153.53 10.29 126.92 109.83 121.46 109.76 138.26"></polygon>
                <polygon id="Path" fill="#EAC285" points="160.82 136.25 163.44 136.25 126.71 0 36.67 0.96 63.35 155.58 66.98 155.58 63.35 134.16 155.28 121.11"></polygon>
                <polygon id="Path" fill="#F7EBEA" opacity="0.29" points="43.08 5.12 155.28 118.32 124.39 5.12"></polygon>
                <g id="mapa_outline" transform="translate(52.220000, 19.180000)" fill="#D27963">
                    <path d="M40.15,0.762094034 L40.1366966,0.75 L40.15,0.75 L40.15,0.364183275 L41.4886982,0.148264217 L41.67,0.39 L41.911549,0.712076538 L41.9396858,0.75 L42.0673485,0.75 L42.1982697,1.05002777 L42.4387778,1.60119628 C42.5589986,1.87862895 42.7300861,2.34911955 42.8723469,2.77602312 C43.0957429,3.41953106 43.3528248,4.050846 43.6463423,4.67566763 L43.9690171,5.39630814 L44.2345716,5.8621931 L44.4675167,5.89771875 L45.0942313,6.00913468 L45.6021876,6.60543122 L45.7185771,6.72213769 L46.07,7.10550815 L46.07,8.99059371 L45.6904779,9.04752202 L45.685957,9.06831824 L45.4637836,9.17199915 L45.3350265,9.44724592 C45.181718,9.78384808 45.0091643,10.111348 44.802021,10.4532644 C44.7921623,10.4676042 44.7794355,10.4866648 44.7641194,10.51 L44.84,10.51 L45.7152065,10.511241 L46.3524107,10.5562202 L46.4315593,10.4845191 L46.8260368,10.1586464 L47.0379403,10.1833684 L47.6297519,10.2524814 L48.58,10.35 L49.51,10.35 L49.51,10.71 L49.9182366,10.71 L49.7296828,11.3510832 L49.6437595,11.62875 C49.6323094,11.7005418 49.6261114,11.772958 49.625768,11.8530261 C49.7187445,11.6780071 49.8506582,11.5390099 50.0052521,11.4462535 C50.1408474,11.3648964 50.2931904,11.3069656 50.4349745,11.2996283 L50.7885819,11.0025981 L52.7085421,11.1833002 L52.7309336,11.1586696 L52.8094215,11.1927947 L53.15,11.2248492 L53.15,11.3408758 L53.5230692,11.5030942 L53.7355928,11.5975491 L54.1201453,11.3668177 L54.3934887,11.5987454 L54.7178536,11.8740349 L54.8862384,12.0127047 L55.3501549,11.9436108 L55.5198221,12.0775586 L55.8849466,12.3662593 C56.0282082,12.470917 56.155057,12.5955316 56.2618536,12.7359041 L56.9157213,12.5233971 L57.1311591,12.7244724 L57.7113988,13.266982 C57.9815272,13.4936527 58.2201691,13.7553889 58.4209942,14.0452479 L58.4760243,14.1488335 C58.5191839,14.259855 58.5669932,14.3689843 58.619599,14.4764524 L58.9717911,14.1562777 L59.204285,14.9805743 C59.35847,14.8791074 59.5159077,14.786658 59.6739714,14.7047186 L60.5705729,14.1979438 L60.7916726,14.2841727 L61.7956953,14.6757617 L62.6289018,15.0090442 L63.122997,14.95326 L63.9478664,14.8586028 L64.1129711,14.9983069 L64.2093883,15.080293 L66.967214,14.6642 L67.0988037,14.7212222 L68.0087566,15.1156646 C69.5128291,15.8067509 70.9037602,16.7212881 72.1405063,17.8338642 L73.0793665,18.7070041 L73.3025743,18.8062076 C73.4947943,18.8430179 73.6740619,18.9300591 73.8219893,19.0586481 C74.1515156,19.2592896 74.494944,19.4361247 74.849649,19.5878078 C75.1854876,19.6119076 75.5232352,19.6098469 75.8663685,19.5811324 L76.9244756,19.5097993 L78.0642219,20.2609957 L78.5439797,21.3004709 L78.9961937,22.3033135 L79.2142383,23.2343047 L79.4939057,23.9334732 C79.6654339,24.19542 79.7547758,24.5001452 79.7479466,24.7647321 L79.8586135,25.98279 L79.96,27.36 C79.96,27.5440603 79.9654391,27.6569217 79.9743531,27.7326905 L79.9911703,27.8559478 C80.0031238,27.9740262 79.9932854,28.0620152 79.9386125,28.3446722 C79.7700849,28.9022045 79.5607155,29.4465649 79.3145324,29.9683274 L78.7857451,31.1138396 C78.6652233,31.4865504 78.4536465,31.8226369 78.1709305,32.0920444 L77.8345758,32.8148495 C77.6944028,33.1671415 77.5075007,33.498988 77.2788921,33.8014715 L77.1186833,33.9393521 C76.9560453,34.0277071 76.7996841,34.1270917 76.6506917,34.2367959 C76.5659076,34.3619279 76.4779321,34.4681765 76.3534171,34.6042949 C76.1083193,34.8722331 76.0798227,34.9054162 76.0174589,34.9818201 L75.8758547,35.3016022 C75.7436686,35.6406925 75.64145,35.9907137 75.5616181,36.3843281 C75.2214412,37.6039934 74.7277942,38.775536 74.0514116,39.9311221 L73.2978062,40.8792062 L73.114089,40.5806658 L73.093662,40.6104552 L73.2536166,41.6768193 L73.1017494,41.8178389 L73.3186618,42.1495871 L73.2962326,42.3312633 L73.1954522,43.1472836 L73.09857,43.8606894 L73.4252789,45.1395658 L73.7652789,46.5095658 L73.7768265,46.6862445 L73.5964679,48.2793264 L73.4145163,49.8019741 L73.6743384,51.5124699 L73.5599214,51.6762943 L73.1250248,52.2988448 L72.7892759,52.798564 L72.86,53.97 C72.86,54.0701623 72.8612322,54.1776096 72.8636101,54.2978055 C72.8657432,54.4056294 72.8683674,54.5073557 72.8731326,54.6754621 C72.8953512,55.459286 72.8953512,55.6558057 72.8566779,55.817542 C72.7914525,56.3805404 72.6574627,56.7558015 72.4338417,56.9963975 C72.3964601,57.0366166 72.3629908,57.0693943 72.3303778,57.09708 L72.4099328,57.2751317 L72.3126185,57.4824536 L72.0805008,57.9769078 C71.9384802,58.2718737 71.6483821,58.7978759 71.4287465,59.1572479 L71.0849027,59.7303208 L70.9816911,60.2807737 L70.8767616,60.8491419 L71.0799703,62.2264452 L70.9141,62.4026823 L70.7435534,62.5835534 C70.6303046,62.6968022 70.2791714,62.958713 69.8301547,63.2741417 L69.3691464,63.5860003 L69.3687035,63.7240162 C69.3884873,63.9982024 69.3523761,64.2735502 69.2257878,64.6151306 L69.0161348,64.9878469 L68.7748235,65.0243697 L66.925221,65.3043094 L65.2854515,65.5538396 L65.4403443,66.4610686 L64.64,65.8762016 L64.64,66.0112202 L64.4638242,66.1609697 L64.2331294,66.355062 C63.9798189,66.5383739 63.7156331,66.7061676 63.4350856,66.8612876 C63.2204728,66.9756175 63.0303609,67.1309203 62.9131164,67.2664066 L62.6200826,67.7318133 L61.6832881,67.8672534 L61.1352109,68.2635474 C60.7658639,68.5337394 60.4276184,68.8440563 60.1404344,69.1723475 C59.9000063,69.4728826 59.4456075,69.9805557 59.1066682,70.3304109 L58.69,70.7545196 L58.69,71.1694867 L58.6392456,71.2357493 L58.9211852,71.5076197 L58.3746156,71.5811964 L58.2228689,71.7792798 L58.0070224,72.0534633 L57.9850713,72.1412678 L57.9030093,72.4633174 C57.8307392,72.8909574 57.7995469,73.3245308 57.81,73.77 L57.81,74.6605141 L57.9241742,74.908719 L58.51,74.3228932 L58.51,75.91 L58.5028682,76.4041482 C58.4938288,76.4566218 58.4938288,76.4566218 58.4844935,76.509107 C58.4671442,76.6047102 58.4671442,76.6047102 58.4494492,76.6981027 C58.4039876,76.9359016 58.3586643,77.1508967 58.3299398,77.2797946 C58.3188603,77.3341893 58.3088789,77.3887735 58.3,77.4436047 L58.3,77.6744918 L58.2655698,77.7120521 C58.2477112,77.900094 58.242464,78.0920061 58.25,78.29 L58.25,78.7176775 L58.1795232,78.8359488 L57.3108153,80.2937679 L56.5045321,81.6625743 C56.4963218,81.8348267 56.4519293,82.0079083 56.3689478,82.1794261 C56.3523562,82.209844 56.2781407,82.4369013 56.1787873,82.7610553 L55.9896949,83.4209898 C55.8757977,83.9732719 55.7141435,84.5124673 55.5082114,85.0320037 L55.319568,85.6714726 L55.2697679,85.7855377 L53.8725594,88.1353885 L53.3981028,88.3631276 L53.2506056,88.5550517 L53.1589131,88.8936739 C53.1391798,88.9594518 53.1061664,89.0877027 53.0632872,89.2634559 C53.0495201,89.4299425 53.0149038,89.6219852 52.9624673,89.8487935 C52.9437748,89.9296462 52.9230245,90.0138504 52.8993452,90.1058049 C52.8750143,90.2002894 52.8471309,90.3046198 52.8064031,90.4558103 L52.6603596,91.069193 L52.5845492,91.4310155 L52.2158552,91.8854523 L52.2358851,92.0256617 L52.098057,92.1952963 C51.7448549,92.6300066 51.6207732,92.7684967 51.4385041,92.8436232 C50.9109094,93.4429987 50.5534573,93.4337428 50.1556625,92.6754472 C50.0548161,92.4229399 49.9814352,92.1603135 49.9352695,91.8823996 L49.8585708,91.3582922 L50.1758478,90.3611359 L49.7552239,90.1755666 L49.6744184,90.0168415 L49.3995028,89.4765633 L49.2050293,89.1144404 L48.2071157,88.7943549 L48.1162953,88.6921819 L47.9012061,88.4482497 C47.6903598,88.2429685 47.4449262,88.0765251 47.1677831,87.9527295 L46.4177686,87.6011602 L46.343688,87.5048554 L46.2209853,87.3453394 L45.9806989,87.6016449 L45.5741586,88.2404939 L44.4202803,86.3765365 L43.8383981,85.9110298 L43.6170955,85.7346793 L43.5253151,85.89 L43.3009308,85.89 L42.9624695,86.2185066 L42.6861781,86.141759 L42.3226394,86.040762 L41.4382704,85.7880851 L41.6463791,85.2727685 L41.8588909,84.746665 C42.0054415,84.397138 42.1839888,84.0619064 42.3709849,83.7806973 C42.6492655,83.270175 42.8939976,82.7420689 43.0953515,82.2228095 C43.518374,80.9454613 44.1999119,79.7689117 45.1524831,78.7137578 C45.3235843,78.5731012 45.4640241,78.3988518 45.6088974,78.1314758 C45.8558302,77.7996923 46.1539669,77.5092994 46.4713092,77.2866681 L47.1311562,76.7688135 L47.2084018,76.4856005 L47.2934139,76.1809739 L47.1043582,75.3989622 C46.9934405,74.9461608 46.8477013,74.5026068 46.6827864,74.1036068 L46.6398149,74.0176638 L46.4881682,74.070871 L45.3563675,74.4750855 L45.0978698,72.7650234 L45.36,72.5028932 L45.36,70.4557364 L45.2337578,70.1706052 C45.2190889,70.1327366 45.2011064,70.0963835 45.1800839,70.061943 L44.9216315,70.2160856 L44.0111343,70.7751628 L42.8194609,69.5536976 L42.7955318,69.3941702 L42.7052344,68.7921597 C42.6615305,68.4925019 42.5767878,68.2002858 42.4575906,67.9328985 C42.2954169,67.5882793 42.1568693,67.2330291 42.0386745,66.8553728 L41.9618765,66.5823133 C41.7218439,66.5814453 41.4826667,66.5419696 41.2496835,66.4638496 L41.2065599,66.57 L41.0525,66.57 L40.88,66.8 L40.63,66.8 L39.9896234,66.7936194 C39.3000318,66.9048541 38.5929629,66.8119251 37.9555325,66.5262817 L37.8282784,66.4692571 L37.5832614,66.1153435 L37.5718476,65.9829442 L37.4714981,64.8186769 L37.3879066,63.741275 L36.8711783,62.5387023 L36.2598267,61.1270361 L36.2890227,60.9754414 L36.5484811,59.6282987 L36.7867195,58.3513404 L36.6414716,56.2997135 L36.3409054,55.8912035 L36.0455709,55.4998852 L35.7637134,55.4262894 L35.0509958,55.255857 L34.495211,53.8543129 L34.46,53.67 L34.46,53.1641883 L33.759882,53.2735776 C33.137399,53.3743221 32.5084456,53.4299202 31.87,53.44 L30.930098,53.44 L30.8497097,53.0380581 L30.6686879,52.1328034 L30.5289769,51.3931567 L30.3276623,51.204424 L29.859059,50.7642209 L29.6673501,48.6341228 L29.4856584,48.0981139 L29.3458877,47.6788018 L28.6166318,47.2601549 L27.1499133,47.693973 L26.9456389,47.528815 L26.4666574,47.1413785 L26.1465699,46.87 L25.212853,46.87 L25.094899,46.8000273 L24.5103507,46.453215 L24.0704897,46.1997358 L23.3981482,46.2975309 L23.22,46.06 L23.160631,45.9805231 L21.839185,46.1810184 L21.6860075,46.090683 L20.8987331,45.6263093 C20.4011729,45.3213758 19.9373285,44.9645724 19.5064466,44.5535534 L18.885578,43.9326847 L18.8497854,43.8092622 L18.5660007,42.8291373 C18.2976832,42.0299386 18.1507649,41.1950126 18.13,40.34 L18.13,40.2517963 L17.9333396,40.3045486 C17.1519457,40.5034489 16.906229,40.6032435 16.268443,41.2713289 C16.1456801,41.4291945 16.0074075,41.5794453 15.8508174,41.7240891 C15.7913896,41.7899029 15.7289859,41.8593511 15.6632566,41.9326853 C15.553554,42.0557663 15.432309,42.1894 15.3089029,42.3236701 C14.9925042,42.7116169 14.6481671,43.0739615 14.2915503,43.3955452 L14.0684544,43.6161344 C13.9081073,43.7816574 13.7522291,43.9451256 13.6379655,44.0685283 L12.9706014,44.793924 L12.6756005,44.7115982 L12.2426394,44.590762 L11.9278542,44.5008233 L11.1321995,44.623197 L10.4227636,44.7414363 C10.3993933,44.7499137 10.3761468,44.758494 10.3530313,44.7671743 L10.1563364,44.93997 L9.58777328,45.4568456 L8.15737931,44.8391755 L7.86565667,42.922141 L7.63225016,42.957821 L7.53584225,43.1066245 L7.37275647,43.1627688 L6.76517521,43.3719292 L6.04636036,43.6235144 L5.92201871,43.6038815 L5.55477274,43.5457271 L4.80640153,43.4472573 L4.69454204,42.7621179 L4.49460431,42.5796283 L4.31847962,42.4286643 L2.65,42.6814642 L2.65,42.1 L2.6505956,41.9756024 C2.66070466,41.7686757 2.6998599,41.5641983 2.7573183,41.3995455 L2.78121978,41.31111 L2.25167337,40.788704 C1.89220143,40.4396316 1.56684377,40.0570682 1.25734612,39.6106205 C1.06652066,39.2811926 0.85890359,38.9617817 0.628903904,38.644605 L0.00806331796,37.7478353 L0.145512722,37.4810217 L0.321052214,37.1405739 L0.384202162,37.024799 L0.3543147,36.9557934 L0.113027677,36.421515 L0.228962341,36.2044458 L0.69798252,35.3262896 L1.08003131,34.6037191 L1.03458492,34.3175566 L0.974584916,33.8775566 L0.987386814,33.6792923 L1.11554114,33.2063084 L1.21277133,32.8254902 L1.15438605,32.3160819 L1.04490876,31.4950022 L1.18971775,31.3253688 L1.53451912,30.9215593 C1.71288241,30.7056458 1.99279792,30.3294153 2.14390519,30.1027544 C2.63583779,29.3644537 3.34083338,28.7933679 4.1332637,28.4794166 L4.83107632,28.1437599 L5.04441755,27.8999427 L5.55210499,27.3222294 L5.86551953,27.4248014 L6.39697025,27.6017176 C6.40583836,27.2701356 6.41127912,26.8138116 6.41250136,26.2900831 C6.41523495,25.1187407 6.39723664,23.7785331 6.36,22.63 L6.36,20.8377955 L6.09147351,20.3876141 C5.91625129,20.0961419 5.775896,19.7850843 5.67329643,19.4608433 L5.65432286,19.3379903 L5.40275212,19.1787465 L4.70051711,18.7574055 L4.31379865,16.1792824 L4.61958369,16.0115938 L4.9508252,15.83 L4.94766395,15.83 L4.88,15.8400902 L4.88,15.83 L4.74430295,15.83 L4.58072511,15.0530052 L4.57,14.95 C4.57,14.8976371 4.55102851,14.7918184 4.49477584,14.5302435 L4.48932863,14.5048891 C4.45010735,14.3220839 4.42970731,14.2171983 4.41732475,14.1252707 L4.24313178,13.1188225 L4.72846984,13.0284492 L6.17785573,12.7585639 L7.36182944,12.5365688 L7.4426567,12.3579181 L7.8981706,11.3270182 L8.4066189,11.7430214 L8.59705655,11.8988743 C8.6843572,11.772002 8.77863493,11.654086 8.87662116,11.5490317 L9.61644523,10.6653529 L10.000417,11.1155267 L10.5808294,11.7960108 L11.27,12.6060886 L11.27,13.0234952 L11.3095279,13.0178483 L11.4689988,13.1250787 L12.0457165,13.5128904 L12.3925758,13.7421703 L12.640577,13.6157421 C12.8780894,13.4930863 13.1080601,13.3563469 13.3209913,13.2119878 L14.2120355,12.5808315 L14.2312453,12.6960903 L14.3213669,12.6289784 L14.7874584,12.2819189 C15.0547813,12.0787535 15.3180264,11.8648669 15.3916176,11.7913425 C15.5404995,11.6383079 15.7108299,11.5077975 15.89,11.4078761 L15.89,10.1716024 L16.2039747,10.1228822 L16.0277747,9.91781671 C15.8120863,9.57777411 15.6205187,9.2230192 15.4581311,8.86404317 L15.0981311,8.10404317 L15.0553983,7.96327433 L14.9281037,7.10403571 L14.5210012,6.83492128 L13.7588798,6.32246037 L13.7260776,6.10775455 L13.3608026,5.91477907 L13.6901444,5.87255576 L13.4936954,4.58670777 L14.2630046,4.83398572 L14.5436496,4.92419354 C14.6825501,4.96904793 14.8284685,4.98818477 15,4.98 L15.531868,4.98 L15.8994312,5.31080685 L17.341693,5.09641658 L17.5040954,5.20855155 L17.6603363,5.31695947 L17.8114229,5.15213769 L18.0644488,4.87616464 L17.7074235,3.83255224 L18.4231709,4.49324215 L18.5815833,4.32522902 L18.7315348,4.29190647 L19.4566475,4.13079834 L20.0214111,4.01148208 L20.9019361,3.13095714 L21.390674,3.05511849 L21.6922803,2.46350629 L21.6401033,2.33087153 L21.367814,1.582076 L21.7663932,1.3827864 L21.9304162,1.30079744 C22.1491705,1.19386366 22.3739036,1.09962078 22.5966749,1.02100275 L23.3993697,0.724354687 L23.6241579,1.01236457 L23.9488297,1.42844586 L23.9843434,1.47541567 L24.195375,1.44221969 L24.2233155,1.7914755 L24.4175783,2.04840379 L24.3343416,2.29811388 L24.2774407,2.46847257 L24.288691,2.60922661 L24.6285631,2.55924542 L24.7798621,2.9137174 L24.9966776,3.42172706 L25.1159497,3.46888115 L25.1916562,3.68404689 L25.3843416,4.23188612 L25.4970681,4.57006558 L25.6163615,4.84178938 L25.5955026,4.865369 L25.645151,5.01431425 L25.4960077,5.22181802 L25.2553619,5.5560866 L25.12,5.73092899 L25.12,5.94607258 C25.1611108,6.1556753 25.1753773,6.45852509 25.1789861,6.92044875 C25.1798283,7.02825207 25.1800012,7.11541743 25.18,7.3 L25.18,7.80515054 L25.2139671,7.82535734 L25.919143,8.26370993 L25.7943416,8.63811388 L25.7593044,8.742585 L25.827481,8.9433273 L25.8976885,9.03694254 C26.197009,9.42972719 26.6124612,9.71823567 27.1081682,9.86912904 L27.2007797,9.90220457 L27.3933661,9.67296021 L27.9251698,9.02441915 L28.4794759,8.94043337 L28.6025154,8.57131491 L29.2364096,8.47563276 L29.4175586,8.24017786 L29.8496524,7.69285907 L30.0618379,7.67232499 L31.0047887,7.58124137 C31.3045594,7.56007822 31.6050155,7.55187458 31.897232,7.55634541 L31.8,7.42774821 L31.8,7.26 L31.8077347,6.90239351 C31.8602017,6.60757886 32.0265595,6.34524535 32.2826499,6.16397485 L32.6683209,5.90686087 L33.2632673,6.03434938 L34.429451,5.4512575 L34.6395335,5.53731537 L35.4762826,5.88013791 L36.1094442,6.15038981 L36.3706403,6.04955629 C36.6905982,5.93437143 37.1641879,5.78888964 37.4731437,5.71636019 L38.71,5.39193885 L38.71,5.45941242 C38.8345616,5.11867114 38.935441,4.76862356 39.0127224,4.40792615 L39.2427224,3.40792615 L39.2808916,3.30022357 L39.7418267,2.35832291 L40.15,1.53310307 L40.15,0.762094034 Z M36.2886712,7.15312598 L36.09063,7.22964187 L36.0260221,7.20206533 L36.0280935,7.21153477 L36.0749342,7.42231781 L36.3241858,7.38397141 L36.2886712,7.15312598 L36.2886712,7.15312598 Z M41.626441,2.5396743 L41.5884062,2.61041631 L41.1090205,3.48459022 L40.3716871,6.39296078 L39.28881,7.50360396 L39.000971,7.42028213 L38.6242699,7.31122484 L38.4384988,7.25882787 L38.3743017,7.29625301 L37.7355381,7.6539606 L37.6178362,7.49098869 L37.5884488,7.52955967 L37.4927393,7.54596701 L37.806313,7.78513339 L37.98,7.76 L38.5913647,7.76 L38.7350111,8.01349371 L39.0700273,8.60489904 L39.3044093,9 L39.9171507,9 L40.020762,9.36263944 L40.1978304,9.98276512 C40.3166231,10.3682902 40.4087347,10.7615359 40.473197,11.1578005 L40.4960441,11.2948832 C40.7110365,11.3829008 40.9028576,11.5144151 41.0483928,11.6713603 L41.5167252,12.1263117 L41.6183199,12.7460394 L42.1674948,13.3190915 C42.1620239,13.2720562 42.1574077,13.2257704 42.1536771,13.1805272 L42.0835,12.6050753 L42.1666352,12.4606108 L42.7634458,11.4250793 C43.003501,10.9484773 43.3103307,10.5085649 43.6746591,10.1186409 L43.7939714,10.0247186 L43.8424919,9.99729394 L43.9695137,9.53167819 L44.2212708,8.65715365 L44.4222195,8.55992037 L44.7115748,8.41995981 L44.8306884,8.16530303 L44.8593107,8.16100968 C44.8921629,7.93768131 44.8910608,7.71052855 44.8555318,7.48417023 L44.8396045,7.37798775 L44.4395856,7.43836796 L44.2661758,7.29096966 L43.8607477,6.94628835 L43.6815221,6.78946598 L43.6054781,6.77789407 L43.5429725,6.66823501 L43.4607477,6.59628835 L43.3336577,6.42433237 L43.076087,5.84900268 L42.9204492,5.57590259 L42.3604492,4.63590259 L42.3175437,4.54366134 L41.7865948,3.01089589 L41.626441,2.5396743 L41.626441,2.5396743 Z M43.31,13.1744461 C43.404314,13.0922007 43.5010192,13.0126649 43.6,12.9359443 L43.6,12.3809309 L43.31,12.8516556 L43.31,13.1744463 L43.31,13.1744461 Z M24.9318412,9.41578832 L24.6046494,8.97953253 L24.657238,8.84148734 L24.5798399,8.76682084 L24.2301703,8.40370244 L24.08,8.31441198 L24.08,5.10208751 L24.1923825,4.96416352 L24.4255017,4.67871306 L24.4436453,4.6582029 L24.2418965,4.19862746 L24.1024036,4.14347341 L23.400829,3.85950273 L23.3906641,3.7520447 L23.14,3.78890707 L23.14,3.39283374 L22.992515,3.6125445 L22.3717132,4.51891511 L21.8021943,4.6121091 L21.626312,4.83485538 L21.2550883,5.31744621 L21.1502125,5.36889471 L20.6269629,5.62551975 L19.9248235,5.98321341 L19.7384413,5.93238191 L19.6212,5.90029641 L19.5244939,6.02544541 L19.6502153,6.357709 L19.502021,6.57326441 L19.288024,6.88432822 L18.7887927,7.64506157 L18.3639618,7.33294091 L17.8754139,6.97400377 L17.5752323,6.75512131 L17.0343192,6.86899642 L16.5870561,6.96441256 L16.7457751,8.00269977 L17.0671895,8.18349537 L17.1761815,8.89194302 L17.3402255,9.03360325 L17.3697148,9.06098608 L17.4030985,9.04481676 L18.0431375,8.75388994 L18.2878057,8.99079086 L18.4113087,9.11039069 L19.6838289,8.94232198 L18.8392395,9.52479738 L18.9235534,9.60644661 C19.2962582,9.97915146 19.839655,10.5665225 20.1436409,10.9293449 L20.7036409,11.5993449 L20.8042915,11.7956549 L21.1854217,13.2801428 C21.4065272,14.1756198 21.6364684,15.2285086 21.7183839,15.7598319 C21.7344468,15.9591308 21.7751284,16.1554471 21.8393418,16.3443342 C21.9594396,16.4109424 22.0763566,16.4842968 22.1905594,16.5649035 L22.1144302,16.0396119 L23.0291168,14.8754653 L23.9097607,14.7414542 L24.5063043,15.2472195 C24.6983815,14.7962548 24.8498513,14.3351827 24.9544323,13.8935723 C24.9921965,13.6118417 25.0976362,13.3434497 25.2334011,13.1563169 L25.5931334,12.5117967 L27.0825596,12.2892388 L26.9517638,11.4021024 L26.7940566,11.2611471 C26.7531306,11.2196621 26.7010081,11.1909947 26.6440566,11.1786471 L26.5354939,11.1416494 C26.2418751,11.0021982 25.9745766,10.8130331 25.7605723,10.597136 L25.1373757,10.0209731 L24.9318412,9.41578832 L24.9318412,9.41578832 Z M23.264422,2.34524365 L23.2656584,2.34188612 L23.3024334,2.23156102 L23.2497521,2.16186891 L23.264422,2.34524365 L23.264422,2.34524365 Z M15.7974146,6.33695932 L15.6208161,6.36321045 L15.8226223,6.49660779 L15.7974146,6.33695932 L15.7974146,6.33695932 Z M22.4757842,17.3193343 C22.4753544,17.2209088 22.468942,17.1244318 22.456803,17.0321995 L22.4432603,16.9509432 L22.3264163,16.9698444 L22.3790389,17.2951479 L22.4757842,17.3193343 L22.4757842,17.3193343 Z M23.4550359,17.6845875 L23.5173821,18.07 L23.45,18.07 L23.45,18.4413831 L22.2721379,18.6158812 L22.1035014,18.4850426 L21.4963229,18.0123702 C21.3529185,17.883867 21.1882825,17.7815943 21.0099661,17.71 L20.6066667,17.71 L20.4784615,17.4023077 L20.3330942,17.0530692 L20.0336265,16.3792668 L20.2764466,16.1364466 L20.3522293,16.0608263 L20.347661,16.0503749 C20.2485942,15.8097842 19.9931105,14.8873884 19.7937252,14.026348 L19.4296644,12.5047603 L18.6761988,11.5606574 C18.5332532,11.3498984 18.3711402,11.1531477 18.1920742,10.9728515 L17.8075884,11.2490146 L17.38,11.5496627 L17.38,12.0076111 L17.289616,12.1367312 L17.0479353,12.4773606 C16.7584136,12.8116111 16.4321711,13.1121941 16.086562,13.3649933 L15.4917467,13.826641 L15.0892076,14.5064777 C14.7755843,15.0313167 14.6513639,15.2177728 14.5033091,15.3408042 C14.3488231,15.46918 14.1469517,15.5203262 13.9644785,15.4643496 L13.7569703,15.8860596 L13.6377961,15.1880393 C13.6103671,15.1393084 13.5904409,15.0884391 13.5739204,15.0274871 L13.430725,15.1166409 L12.6204692,15.6117973 L12.3556718,15.438024 L11.7186423,15.0199583 L11.2275504,14.7026374 L10.4499934,14.8200045 L10.329238,14.3973606 L10.1297668,13.699198 L9.96224287,13.1212404 L9.84111983,12.9887323 L9.82153122,13.0189078 L9.15925547,14.0570698 L8.72697839,13.7277159 L8.67674994,13.6894076 L8.37396515,14.0552725 L5.89118099,14.4372393 C5.89689953,14.5191623 5.89945447,14.5998912 5.89897288,14.6770805 L6.67205731,14.561796 L7.40895543,15.1934229 L7.62149519,16.7115641 L7.34179362,16.8760944 L7.4834652,17.4170223 L7.02046955,17.0740625 L6.7891857,17.2237168 L6.27313291,17.0053868 L6.06588407,17.143445 L5.9141474,17.2387215 L6.05662156,18.1648035 L6.50382421,18.5590303 L7.28,19.2187798 L7.28,19.59 L7.27102426,19.6383404 L7.45551801,19.9274463 L7.74551801,20.3974463 L7.81379015,20.5814425 L7.88418585,21.0239714 C7.99890981,21.7696771 8.0132824,28.8074565 7.77169314,29.0929711 L7.66088542,29.2239257 L7.49302198,29.2592714 C7.17779675,29.3256458 6.85220325,29.3256458 6.55432941,29.2626059 L6.12512488,29.1879616 L6.01513571,29.3015786 L5.72513571,29.6115786 L5.55695965,29.7295725 L4.78482,30.0604836 L4.10186613,30.3494256 L3.69740172,30.7791401 L3.35,31.1554919 L3.35,31.81 L2.75501404,31.81 C2.72128426,31.8339494 2.69165393,31.8671603 2.66630063,31.911281 L2.57045612,32.0676589 L2.70497475,33.0092893 L2.68919284,33.2227383 L2.54833694,33.6955808 L2.43997511,34.0516268 L2.56613338,34.9978139 L2.4958747,35.1362648 L2.14302395,35.8299805 C2.0646178,35.9657981 2.00049478,36.1090941 1.95389582,36.2335026 L2.79966611,36.4221749 L4.0074585,36.7007545 L6.00994615,36.8108976 L8.00994615,36.9308976 L8.15580252,36.9619258 L10.2953234,37.765613 C11.9673266,38.432861 13.6891606,38.9674001 15.4448524,39.3643268 C15.5364355,39.2693616 15.6485449,39.1331589 15.755632,38.9859142 L15.9238893,38.83926 L16.0969656,38.7465405 L16.5972067,38.02 L16.86,38.02 L17.2155424,38.0241722 L18.2080301,37.8952068 L18.5838512,37.8405419 L19.2368888,37.1387122 C19.5423258,36.774502 19.9007283,36.4584014 20.3,36.2009322 L20.3,35.5700977 L20.3726062,35.4505109 L20.7271417,34.8679574 C20.8455082,34.6946907 20.94058,34.5067377 21.01,34.3089398 L21.01,33.7842473 L21.3951756,33.6933632 L22.2839407,33.4836563 L23.5008604,33.193255 L24.189875,34.2148972 L24.8246678,34.475352 L25.4829955,34.736995 L28.694696,34.304283 L31.5247589,33.9314603 C31.4692359,33.6225084 31.4709,33.3045583 31.5456584,32.9318861 L31.5620672,32.8826595 L31.4998517,32.7810634 L31.1111121,32.1785172 L31.32,31.9 L31.5062475,31.6518459 L31.58,31.5576066 L31.58,30.811272 L31.3152891,30.4436138 L30.8151893,29.7542872 L30.8606299,29.5374482 L32.0006733,24.0972414 C32.6104651,21.1934709 32.9813845,19.4466039 33.1383813,18.7659061 L32.5392881,18.4226009 L31.7751288,17.9797359 L31.2168189,17.9786425 C30.8594261,18.0050318 30.5005739,18.0050318 30.0715348,17.9680935 L29.4639339,17.8330711 L29.3872111,17.2960114 L29.2963664,17.2372002 C29.0238247,17.100909 28.8104537,16.869757 28.7028196,16.6024502 C28.6006475,16.3717215 28.4651792,16.15723 28.2882512,15.9506974 L27.8282512,15.3706974 L27.7362498,15.1864347 L27.5072445,14.3101812 L27.3837516,13.8522285 L26.3086583,14.0176274 L26.0674343,14.7474969 C25.9427581,15.0758291 25.850901,15.4157004 25.7865589,15.7951541 C25.718547,16.0825233 25.5672246,16.3434242 25.3741,16.5226823 L24.7598758,17.1752956 L24.4063474,16.9317538 L23.9520232,16.6187412 L23.6773608,16.4252291 L23.4714703,16.4573995 L23.4388053,16.5131339 L23.3951387,16.5800893 L23.4456349,16.8840753 C23.4834602,17.1684539 23.4853458,17.4564021 23.4550359,17.6845875 L23.4550359,17.6845875 Z M14.5891964,5.75729268 L14.6823141,5.74535452 L14.6811212,5.73754623 L14.4989988,5.61507872 L14.5891964,5.75729268 L14.5891964,5.75729268 Z M23.2347336,16.4782952 L23.2609611,16.4848521 L23.2618193,16.4901574 L23.377205,16.4721284 L23.363197,16.3878005 L23.2242132,16.4109645 L23.2347336,16.4782952 L23.2347336,16.4782952 Z M47.2116903,16.0214146 C47.1193233,16.0437389 47.0268019,16.0609086 46.9349535,16.0727301 L46.5183201,16.1445634 L46.4429763,16.2238723 L45.9023963,16.7944846 L45.5393063,16.4162659 L45.052322,15.9088405 L44.582322,15.3988405 L44.4900784,15.256143 L44.2612523,14.7195717 C43.5240273,15.6048479 42.5279783,16.0873514 42.0328211,15.3937251 L41.9382078,15.27 L41.1344838,15.27 L41.6073159,14.5885655 L40.5034118,13.566432 L40.1828954,12.7117217 L40.0287769,12.6560023 L39.4637358,12.4362642 L39.3839977,12.2312231 L39.2373279,11.8530371 C39.1155977,11.5001208 39.0248823,11.1372592 38.9656422,10.7649027 L38.9039094,10.3574661 L38.7960561,10.301894 L38.3234119,10.0516705 L38.2513689,9.92000571 L37.9595028,9.38656332 L37.8037209,9.09648677 C37.4709918,9.02569641 37.1542388,8.89480779 36.8871403,8.72134899 L36.4242508,8.45 L35.2789142,8.45 L35.1919065,8.05846523 L35.05155,7.42684844 L34.9828093,7.11260537 L34.6770937,7.26545307 L34.0600978,7.58 L33.874017,7.58 L34.2165834,8.2651329 L34.0277159,8.51302161 L33.8768667,8.7106191 L33.5773089,9.13 L30.98,9.13 L30.98,9.68 L30.4079591,9.68 C30.2269869,9.76701048 30.0564884,9.87903296 29.8905408,10.0218729 L29.1110815,10.6395577 L28.9409899,10.554512 L28.9172737,10.5900486 C28.7478232,10.8279836 28.5465995,11.0415862 28.26,11.2656012 L28.26,11.29 C28.26,11.3039525 28.3097119,11.5161513 28.3986319,11.8421913 C28.4148034,11.9014866 28.6620714,12.7896733 28.7405347,13.0818463 L29.1737881,14.5888147 L29.8923409,15.5100507 L30.5322009,16.32 L32.2780982,16.32 L32.3904163,16.3815938 L33.3224178,16.8926973 L34.5,17.5454875 L34.5,18.11 C34.5,18.3424933 33.9641107,21.1508245 33.3894079,23.9223716 L32.2880596,29.1875891 L32.3002855,29.2091493 L32.566312,29.6251446 C32.6663834,29.7552375 32.8557789,30.0528589 33.2768981,30.7296963 L33.7768981,31.5496963 L33.8283369,31.6644192 L34.0386108,32.3553221 C34.1377224,32.6831945 34.2782296,32.9970936 34.43,33.25 L34.5166719,33.3655625 L34.8205721,33.3134653 L35.0035534,33.4964466 L35.6206674,34.113584 L36.0766089,34.5621716 L41.0969083,34.1318604 C44.1839521,33.864815 46.9106318,33.6079116 47.5139181,33.524386 L48.28,33.4222418 L48.28,30.7647709 L48.8281117,32.174201 L49.5460019,30.8722645 L49.6250253,30.2492893 L49.7033363,29.701112 L49.3330946,28.9411423 L49.3408834,28.8102907 L49.39,28 L49.39,27.041966 L49.4427864,26.9363932 L49.6175409,26.5871268 C49.7938588,26.2521227 50.0338866,25.9876023 50.3447842,25.9530581 C50.1597714,25.9736151 50.1635176,25.9697957 50.1240925,26.0244233 C50.174225,25.9549595 50.2374491,25.8503978 50.3030536,25.7247831 C50.4730237,25.3993364 50.6276144,24.9979894 50.7352437,24.5674792 L50.8736879,24.0197219 L50.3503262,24.1009332 L50.1894992,23.7669078 L50.0661227,23.5101586 L49.7861149,22.9701434 L49.9615161,22.7216584 L50.4484441,22.0320858 C50.7637158,21.607134 51.1223925,21.2161763 51.528404,20.8571476 L51.9381823,20.5129338 L52.2531077,19.7869004 C52.7517646,18.6651235 53.1024266,17.4832629 53.2948291,16.2806761 C53.362556,15.7969123 53.4837035,15.1178489 53.5600795,14.7801104 C53.6822891,14.1807189 53.7249738,13.568275 53.6873684,12.9585707 C53.5595369,12.9180339 53.4256333,12.8903403 53.2847711,12.8757269 C53.0543927,12.8454132 52.825967,12.8022444 52.5930758,12.744031 L52.15,13.1871068 L52.15,12.617497 C51.8263361,12.5312297 51.4805303,12.5251289 51.1073121,12.6067045 L50.6071147,12.6644195 L50.5079704,12.8806568 C50.4014137,13.1238571 50.3299913,13.3809777 50.3,13.58 L50.3,14.5 L49.8762164,14.5 C49.7645232,14.6234809 49.6678472,14.7644141 49.584496,14.927413 C49.416276,15.2228338 49.2214106,15.5022635 49.0390529,15.7127539 C48.8747645,15.9651628 48.7464707,16.2392452 48.6514952,16.5464101 L47.9487857,18.5374203 L47.4285697,17.4449668 L47.3204275,17.2169596 L47.1776752,16.883871 L47.1935059,16.7508936 L47.2671655,16.132365 L47.2116903,16.0214146 Z M48.51,11.71 L47.6671068,11.71 L47.4371068,11.94 L45.5872805,11.94 L45.4423779,12.0334758 L45.4621001,12.0853139 L45.8439673,13.18 L45.7294075,13.18 C45.8170828,13.2760973 45.883267,13.3923864 45.9204874,13.521682 L45.94,13.66 L45.94,14.2721549 L45.7273219,14.3032785 C45.7590974,14.3639498 45.7895235,14.4140063 45.8113507,14.4455574 L46.2912158,14.3847539 L46.58,14.3446449 L46.58,12.521966 L47.2355136,13.8329932 L47.5334144,13.7842458 L47.8823678,13.4701878 L47.9726048,13.3219413 L48.0246675,13.3372538 C48.0871458,13.1560599 48.1657875,12.983922 48.2573783,12.827436 L48.51,12.3466398 L48.51,11.71 L48.51,11.71 Z M48.0222475,13.3442961 L47.8823678,13.4701878 L47.708657,13.7555698 L47.8617787,13.7305135 L47.9437463,13.6138672 C47.9658569,13.5224017 47.9921462,13.4322937 48.0222475,13.3442961 L48.0222475,13.3442961 Z M75.3619401,22.4374132 L75.5627438,22.1696749 L75.9211759,22.3179916 L76.224528,22.4437453 L76.4169422,22.53 L77.5713878,22.53 C77.5038636,22.3490121 77.4281981,22.1377172 77.3598119,21.940068 L77.217244,21.5459097 L76.9356317,21.188186 C76.7870777,21.0809665 76.6090358,21.021978 76.43,21.02 L75.6660286,21.0141858 L74.7139094,21.1606657 L74.5625807,21.0744924 L73.8354312,20.6603425 L73.4348815,20.4233977 L73.3260634,20.5174325 L73.1225205,20.6834806 L73.1220496,20.6988097 C73.0418156,21.1433459 72.9193412,21.5792106 72.7589309,21.9935044 L72.610827,22.3937853 C72.9250579,22.1258963 73.2741355,21.9015209 73.6486742,21.7268539 L73.86,21.68 L74.3630923,21.68 L74.4009216,21.7525062 L74.5164575,21.6813117 L74.4941978,21.9312856 L74.5032924,21.948717 L74.6272136,22.1863932 L74.833394,22.598754 L74.7598967,22.8008715 L74.5530215,23.3687089 C74.545452,23.3872817 74.538195,23.405966 74.5312525,23.4247385 L74.8693273,23.2928069 L74.8445052,23.1273263 L75.2727956,22.5562725 L75.2466843,22.3853622 L75.3619401,22.4374132 L75.3619401,22.4374132 Z M75.2199608,23.9199608 L75.0464466,23.7464466 L74.9931138,23.7997795 L75.0487788,23.7900986 L75.2199608,23.9199608 L75.2199608,23.9199608 Z M72.1158524,23.2962684 L72.1679813,22.9661185 L72.0070946,22.9407154 L71.8328078,23.0252181 L71.7764204,23.0705544 L71.9749698,23.3171399 L72.1158524,23.2962684 L72.1158524,23.2962684 Z M70.614831,23.7332729 L70.2130885,23.6698399 L70.61,23.3139882 L70.61,22.5067539 L71.3535959,22.1462226 L71.6504426,21.1484913 L72.0497519,19.7952766 L72.1521377,19.7014229 L72.2140413,19.6448314 L71.2352398,18.8121331 C70.0884631,17.7203718 68.7504927,16.8490594 67.2761746,16.2365689 L66.8807669,16.0600477 L66.1995712,16.2501249 L65.5206207,16.4474942 L65.77,16.78 L65.493716,16.78 L65.6894102,17.6850853 L65.8633183,17.9539142 L66.0833183,18.3039142 L66.1557672,18.5050781 L66.2659749,19.3466841 C66.3270822,19.8253576 66.4769334,20.6816503 66.5988343,21.2349235 L66.8016182,22.1783095 L66.9476483,22.3451003 C67.1360857,22.6313885 67.2790561,22.9451292 67.3651545,23.2543459 L67.5239872,23.7392037 L67.8953568,24.1696861 L68.5364502,24.8982014 L68.2774337,25.5619311 L68.5482514,25.5084899 L69.4494733,25.3402618 L69.5904094,25.4019213 L69.9445711,25.5584387 C70.2175371,25.7034467 70.4708647,25.8827247 70.7090501,26.1019999 C70.7337997,26.1261308 70.7555866,26.1463737 70.7740426,26.1632951 L70.866953,25.9730499 L70.7354547,25.0936545 C70.6683088,24.6428103 70.6280419,24.1884732 70.614831,23.7332729 L70.614831,23.7332729 Z M73.4599733,24.9420194 L73.42,24.9585937 L73.42,24.6245385 L73.4157668,24.6206216 L72.8745498,24.159585 L72.9678891,23.9210514 L72.526397,24.2463613 L72.02,24.3213831 L72.02,24.7610961 L72.1627131,25.0194819 L72.4803795,25.5681783 L72.4380935,25.7584652 L72.3754836,26.04 L72.6075168,26.04 L72.8471024,25.8382447 C73.0109731,25.699639 73.1498994,25.533996 73.2427864,25.3763932 L73.4599733,24.9420194 L73.4599733,24.9420194 Z M67.9013632,25.6361422 L67.8477325,25.9010664 L68.0956152,25.997801 L68.1117952,25.9863799 L68.2060437,25.7448681 L68.1684839,25.6916584 L68.0979019,25.5973587 L67.9013632,25.6361422 L67.9013632,25.6361422 Z M64.5465929,16.0407344 L64.3551299,16.0696218 L64.1202149,16.2216256 L64.2302149,16.3916256 L64.34,16.539572 L64.34,16.0719046 L63.9762647,16.1267839 C63.9595786,16.1697076 63.9398814,16.2135237 63.917571,16.2578279 L63.9916145,16.5423107 L64.4051649,16.4773242 L64.361468,16.275226 L64.5465929,16.0407344 L64.5465929,16.0407344 Z M76.9751762,26.2717899 L77.0071121,26.2566078 L76.9436339,25.8458662 L76.8362325,25.8624646 L76.7454111,25.9221473 L76.9751762,26.2717899 L76.9751762,26.2717899 Z M74.4036079,25.8716406 L74.3678481,25.8388608 L74.2305699,25.7951813 L74.0247059,26.1811765 L74.2678511,26.3108539 L74.4036079,25.8716406 L74.4036079,25.8716406 Z M35.0029822,6.76684765 L34.91155,6.78684844 L34.9756326,7.07979773 L35.022735,7.09264384 L35.1936068,7.0072136 L35.09158,6.80315996 L35.0904665,6.80268463 L35.0029822,6.76684765 L35.0029822,6.76684765 Z M48.7360682,33.5305112 L48.7139181,33.364386 L48.35,33.4129085 L48.35,33.61 L48.7225053,33.61 C48.7270093,33.5837219 48.7315309,33.5572216 48.7360682,33.5305112 L48.7360682,33.5305112 Z M49.3263385,36.2143853 C49.3095028,36.4234005 49.2971986,36.6331892 49.2894341,36.8437826 L49.2325841,38.0376314 L49.5614383,39.5378678 C49.6408119,39.9612507 49.7414519,40.380247 49.8568889,40.7780419 C49.8821905,40.7644661 49.9085665,40.7521535 49.9361213,40.741183 L50.2152623,39.7921037 L50.3714182,40.69 L50.6225476,40.69 L51.0534512,42.1335269 L51.4222991,42.2506766 L51.710384,42.3332688 L52.0696722,41.82 L53.7765599,41.82 L53.9032333,42.1318115 L53.9626391,42.2785141 L54.6246426,41.9669831 L54.8400796,42.4122195 L54.9211107,42.5797446 L55.242355,41.937256 L56.2608775,42.480468 L56.7895196,42.21 L57.4362779,42.21 C57.4591867,41.9535118 57.4577946,41.6931697 57.43,41.39 L57.43,41.0441511 L57.380384,40.9767312 L57.1009989,40.5776096 L57.1714878,40.3449963 L57.1901247,40.2837067 L57.0923571,39.9678419 L56.9633847,39.5511219 L56.7652201,38.9261412 L57.0452536,38.4594186 L56.1900868,37.5298894 L56.4726393,37.4927115 L56.0299626,37.0861717 L56.1376632,36.7759942 L56.3865162,36.0593354 C56.5309162,35.633784 56.7236878,35.2262747 56.97596,34.8227018 L56.8893402,34.778675 L56.152951,34.4165164 L56.0775905,34.297526 L55.8737589,33.9743229 C55.726117,33.7107067 55.6202844,33.4257728 55.5552695,33.1023996 L55.5181011,32.8484161 L54.4620568,31.7290091 L54.4946606,31.4918908 L54.6053983,30.6867257 L54.7647355,29.6111991 L54.8099602,29.59 L54.2869848,29.59 L54.137979,29.3732644 L53.8039749,28.8873501 L53.6324081,28.63 L53.04,28.63 L53.04,28.0463831 C53.0089394,27.9894149 52.968197,27.9381933 52.9196861,27.8953568 L52.4009804,27.4388958 L52.5382042,27.1083112 L52.7595164,26.57518 L52.9264543,26.1805994 L52.6088751,23.7811118 L52.4099427,23.6055824 L52.3555497,23.5577826 L52.3460307,23.6328771 L52.2569419,24.3352158 L52.1769419,25.0552158 L52.1127131,25.2505181 L51.8907085,25.6339493 C51.8202727,25.7534112 51.7821014,25.8891315 51.78,26.02 L51.78,26.5303119 L51.5538296,26.6783508 L51.0126157,27.0324662 L50.7313233,27.2252036 L50.7513202,27.3572398 C50.8122138,27.6797734 50.8139926,28.0106043 50.7501848,28.3626802 L50.944843,28.4721754 L50.9835036,28.7096622 L51.0586552,29.1833526 C51.0888081,29.593638 51.0663104,30.0060957 50.991106,30.4138879 L50.861106,31.0938879 L50.8059185,31.244898 L50.3070786,32.1328215 L49.8483703,32.9584964 L49.753197,33.5121995 C49.655966,34.0955853 49.5644725,34.5975634 49.4925858,34.9057857 C49.4322718,35.252112 49.3847305,35.6004399 49.35,35.9509186 L49.35,36.2752291 L49.3263385,36.2143853 L49.3263385,36.2143853 Z M34.7728932,34.68 L34.44,34.68 L34.44,34.7361028 L34.4524336,34.7908106 L34.8038389,34.7109457 L34.7728932,34.68 L34.7728932,34.68 Z M33.4113764,18.64 C33.4181867,18.6026419 33.4246445,18.5670071 33.4307357,18.5331724 L33.3533333,18.5 L33.2028981,18.5 C33.196574,18.5233994 33.1889454,18.5533384 33.18,18.5898616 L33.18,18.64 L33.4113764,18.64 L33.4113764,18.64 Z M78.3925168,29.58 L78.28,29.58 L78.28,29.8254764 L78.3052444,29.7704011 L78.2955176,29.7616471 L78.3235163,29.7305374 L78.3925168,29.58 L78.3925168,29.58 Z M78.1217719,29.5607422 C78.0206525,29.5361038 77.9136466,29.5406827 77.7729292,29.5877914 L77.6303916,29.9977592 L77.9225734,29.9376042 L77.5479525,30.6463463 L77.3512535,30.9727521 L77.659273,31.1575638 C77.7376281,31.0424236 77.8026987,30.9088222 77.8554676,30.7516726 L78.255711,29.8784673 C78.160595,29.8861914 78.0628762,29.903077 77.9608265,29.9297285 L77.9225734,29.9376042 L78.1217719,29.5607422 L78.1217719,29.5607422 Z M78.1332393,28.5514638 L78.28,28.1293493 L78.28,28.5721576 C78.2929002,28.5746066 78.3057806,28.5772207 78.3186382,28.58 L78.5738332,28.58 L78.6936996,27.9464205 L78.594386,27.2060819 C78.5631627,26.9719067 78.5669382,26.7815567 78.5924409,26.5244053 C78.6021143,26.4268645 78.6038588,26.3749661 78.6055411,26.3636916 L78.5957387,26.3252987 L78.452747,26.3446796 L78.4211939,26.3493197 L78.2896547,26.7603797 L78.0918426,26.8529048 L77.4746794,27.141567 L76.6864518,27.5162981 L76.4983982,27.4564629 L76.447074,27.4400148 L76.2739593,27.7404241 C75.6833494,28.6122768 74.8068489,28.7689402 74.2243789,27.9841029 L73.5676079,27.3844425 L73.6564708,27.1009274 C73.4774064,27.2565164 73.2798663,27.4019526 73.0581368,27.5399071 L72.5608278,27.7810266 L72.3811687,27.7331175 L71.7906059,27.5755358 L71.6284892,27.5356711 L71.5568997,27.7504398 L70.4239346,27.9152347 L70.2448028,27.6987839 L70.0250218,27.4317468 C69.8671477,27.2631407 69.6858547,27.1181063 69.5035911,27.0105801 L69.2382227,26.8681873 L68.2426894,27.0104064 L68.3014361,27.3078557 L68.4931744,28.3304602 L68.3533691,28.5086434 L67.8404344,29.1623475 L67.6988561,29.3393204 L68.04,29.5153947 L68.04,30.0172992 C68.0745351,30.1234898 68.1226998,30.2250494 68.184556,30.3212043 L68.4058894,30.0499078 L69.4115885,28.8431901 L70.0283745,28.1290168 L70.3626676,28.2686117 L71.2976893,28.6598763 C71.5829771,28.7978475 71.8833857,28.9019179 72.1927685,28.97 L72.5587746,28.97 L72.7082078,29.1812676 L72.8827704,29.4281315 C72.9760642,29.3040539 73.0816423,29.1894541 73.1980131,29.0861221 L73.4289476,28.8810626 L73.7156953,28.9957617 C73.7683783,29.0168348 73.8589741,29.0539114 73.9754487,29.103004 C74.1695115,29.1847991 74.3649875,29.2705004 74.561819,29.3618969 C74.9105339,29.534517 75.279951,29.6616934 75.6260819,29.734386 L75.814342,29.7594874 L75.9089549,29.6541006 C76.1231488,29.4305279 76.3478613,29.2172947 76.5823261,29.015123 L76.687823,28.8568776 L76.8684413,28.8076181 L77.342893,28.6849102 C77.5915664,28.5717414 77.8641362,28.5264884 78.1332393,28.5514638 L78.1332393,28.5514638 Z M66.82,30.008 L66.82,30.3322207 L66.8620537,30.3433526 L66.8743429,30.3467047 L67.0224601,30.1155057 L66.9947059,30.1011765 L66.82,30.008 L66.82,30.008 Z M73.48,30.3217158 L73.48,30.49 L73.711897,30.49 L73.8346552,30.3449246 L73.5559673,30.2143138 L73.48,30.3217158 L73.48,30.3217158 Z M55.8274316,13.9404424 L55.48,14.0590775 L55.48,13.6830298 C55.4148903,13.6337361 55.3464478,13.5892568 55.2752274,13.5498798 C55.2780003,13.5798435 55.2812502,13.6096563 55.2849747,13.6392893 L55.3549747,14.1292893 L55.3402146,14.3392622 L55.0474879,15.3483418 C54.9237833,15.7465268 54.8470517,16.1578081 54.82,16.54 L54.82,16.83 L54.7904437,16.9993597 L54.4258192,18.0116934 C54.2883822,18.3640496 54.1789616,18.7267007 54.090559,19.1280689 C54.0023737,19.4350044 53.8731753,19.7286372 53.7170786,19.9828215 L53.5196821,20.3381353 L53.7670235,20.7091475 L53.4173697,20.9963631 L52.8592176,21.4548378 C52.7213141,21.5692268 52.5875481,21.6884159 52.4599856,21.81 L52.6350125,21.81 L52.7785283,21.9420345 L53.2744824,22.3983529 L53.9091278,22.9695338 L53.9349098,23.1488365 L54.1548437,24.6783779 L54.3748437,26.1983779 L54.3623819,26.4015587 L54.2395089,26.8516731 L54.195162,27.0017701 L54.3213031,27.1242106 C54.5676986,27.3674991 54.787777,27.6360695 54.9827445,27.9330035 L55.0038984,27.9664972 L55.8457215,27.6440969 L56.0730079,27.8470312 L56.3464698,28.091295 L56.81,28.49089 L56.81,28.72 L56.8047242,29.0624432 C56.7869973,29.1835022 56.7869973,29.3064978 56.81,29.5 L56.81,29.9562951 L56.8384756,29.8553364 L57.1398567,28.7776707 L57.09,28.44 L57.09,27.9106101 L57.1822464,27.7806265 L57.412259,27.4570114 C57.6269161,27.1752255 57.906164,26.9491676 58.2174022,26.8022833 C58.8255327,26.4999302 59.3372462,26.0339054 59.7086863,25.4357096 L60.3277797,24.54 L61.15,24.54 C61.2253207,24.5399995 61.2253207,24.5399995 61.3032753,24.5402517 C61.6125546,24.5417531 61.811646,24.5503054 61.9695937,24.5845178 L62.0336369,24.5126303 L62.0600023,24.4805332 L61.823951,23.9959209 L61.3593763,23.0786838 L61.3871091,22.9159845 L61.5410215,22.0155969 C61.6013462,21.7330623 61.6216194,21.4434453 61.6,21.12 C61.6,21.1441585 61.4784824,20.6439109 61.4439602,20.4937394 C61.4114049,20.3521241 61.3832873,20.2207344 61.3579083,20.0885765 L61.154172,18.9567078 L61.9898568,16.6353609 L62.1777831,16.5472705 L62.4922195,16.3999204 C62.5369403,16.3782813 62.6264036,16.3026185 62.7242322,16.201976 C62.3898701,16.1338741 62.0657834,16.0357495 61.7638249,15.911578 L60.8287868,15.5820884 L60.6813551,15.6027806 L60.5632965,15.9766327 L59.7043811,16.1095601 C59.6115719,16.3053399 59.4439913,16.4581791 59.2365153,16.531458 L59.2201823,16.5342576 L59.1489671,17.032764 L58.9239439,17.151894 L58.7849995,17.2239992 L57.9834973,17.724938 L57.8137903,16.6449846 L57.2856608,16.4982819 L57.5302611,15.608826 L57.27,15.4710407 L57.27,14.4494022 L57.1440467,14.2574579 C57.0744955,14.1531895 56.9831928,14.0656738 56.8825124,14.0033854 L56.5961395,14.5045381 L56.1443182,14.1732025 L55.8274316,13.9404424 L55.8274316,13.9404424 Z M55.05,12.9993449 L55.0265408,13.0028388 L54.9137621,13.4010813 C54.9346525,13.4069973 54.9554099,13.4133053 54.9760237,13.42 L55.05,13.42 L55.05,12.9993449 L55.05,12.9993449 Z M56.5818356,33.097935 L56.582592,33.10048 L57.0442552,33.1859732 C57.0560271,33.3490713 57.0581437,33.5129021 57.0505374,33.6768239 L57.0475087,33.7420958 L57.3365249,33.8842574 L57.4985909,33.9666188 C57.5208488,33.8789021 57.5386278,33.7901169 57.55188,33.7000872 L57.55,33.7 L57.1056897,33.4706785 L57.5574309,32.59543 L57.58,32.653599 L57.58,33.1936988 L57.4580826,33.2115404 L57.1218301,32.9126493 L57.13,32.55 L57.13,32.378735 L56.7240817,31.8557249 L56.7339977,31.8812231 C56.8580534,32.1807479 56.9464363,32.489623 56.9986516,32.8031573 L56.9121819,32.7262953 L56.5818342,33.0979365 L56.5818356,33.097935 Z M57.5779535,33.4273023 C57.5795524,33.3919374 57.5804854,33.3563658 57.5807496,33.3205777 L57.4580826,33.2115404 L57.2276004,33.2452695 L57.3,33.74 L57.5779535,33.4273023 L57.5779535,33.4273023 Z M55.4632974,29.59 L55.68,29.4884459 L55.68,29.28 L55.6363932,29.1927864 L55.3163932,29.3527864 L55.2507875,29.3835015 L55.2956584,29.5181139 L55.3187567,29.59 L55.4632974,29.59 L55.4632974,29.59 Z M58.21,31.5201594 L58.2861328,31.7091127 L58.5461328,32.3791127 L58.58,32.56 L58.579852,33.2178355 C58.5842217,33.3973921 58.5754348,33.57679 58.5491031,33.7665631 L58.8608977,33.7185947 L59.0392783,33.9727871 L59.4403032,34.5442531 L59.614285,34.7940731 L61.0116354,34.1042419 L61.2127864,33.7163932 L61.4120814,33.3178032 L61.37605,33.0775459 C61.3462875,32.8879653 61.2820206,32.7054474 61.2017694,32.5640131 L60.8207554,31.9824654 L61.0282214,31.7023862 L61.2263044,31.4349917 L61.5471352,30.9959602 L63.0379451,30.8390328 L63.7996513,31.1679514 L64.4119937,30.7917095 L65.140083,30.3531015 L65.3085593,30.085202 C65.6354337,29.4706496 66.0605244,28.9136342 66.5670313,28.4361697 L66.6515786,28.3719599 C66.7645128,28.3037779 66.8610775,28.2116025 66.9558421,28.0723646 L67.1034605,27.8832285 L66.6727906,26.7347756 L66.6986295,26.5975067 L66.8599353,25.7408202 L66.9795898,25.1495863 L66.7385047,24.8854289 L66.2007218,24.3226329 L66.0547033,23.4048019 L65.7770591,23.0160382 L65.32,22.39393 L65.32,21.2556445 L65.1077516,20.6542603 L64.8281305,19.8503495 L64.8447976,19.730902 L64.9064964,19.2896622 L64.9394813,19.0870405 L64.8834805,19.0209237 C64.5263016,18.4370603 64.2755006,17.7945323 64.1494102,17.152827 L63.5706974,17.6217488 L63.1003866,17.9947539 L62.6572939,19.1927452 L62.8609147,20.2551173 L63.0909147,21.4451173 L63.0907745,21.6356054 L62.940537,22.4068165 L62.8260521,22.9868737 L63.6123601,24.3981958 L63.5656487,24.5889344 L63.4478581,25.0695192 L63.2630392,25.8928035 L60.9261989,26.2490931 L60.7052973,26.612911 L60.3652973,27.162911 L60.2345861,27.3040038 L59.7533556,27.6548981 C59.4489003,27.8754812 59.1252219,28.0682335 58.7760839,28.235554 L58.6484848,28.2932774 L58.6468305,28.6462086 C58.5814375,29.2242206 58.4691933,29.7959646 58.311482,30.354815 L58.0773606,31.1909629 L58.1672153,31.4139726 L58.21,31.3310773 L58.21,31.5201594 L58.21,31.5201594 Z M7.03721103,42.0371658 L7.24768011,41.7123325 L8.41322433,39.8733627 L8.49184305,40.39 L9.24905402,40.39 L9.76530896,43.7505274 L12.1679246,43.1738997 L12.2915587,43.2076181 L12.7187265,43.3243005 L12.897335,43.3679603 L13.346093,42.9245968 C13.4988847,42.7668244 13.6554274,42.6074658 13.7864466,42.4764466 C13.9632487,42.2996445 14.2673985,41.9788177 14.5613044,41.65929 C14.5715849,41.6465379 14.581807,41.6337796 14.59197,41.6210164 C14.75718,41.3877484 14.9511143,41.1762918 15.151754,41.0067884 C15.2076399,40.9453319 15.2615021,40.8865305 15.3135565,40.8302344 L15.1651013,40.8718018 L15.334519,40.5778123 L14.4924919,40.3634684 C13.5271004,40.1088596 11.6635168,39.5170459 10.36975,39.0501222 L8.00950673,38.195384 L6.00120173,38.08917 L3.82970843,37.9553143 L2.00571397,37.5032131 C1.97560944,37.5797122 1.94034521,37.6543583 1.90005795,37.7267424 L1.9222228,37.7476749 C2.14742058,37.9374711 2.32290329,38.1793527 2.42291987,38.4281897 C2.59621152,38.7987441 2.82657991,39.139809 3.09355339,39.4264466 L3.76651184,40.09943 L4.5,40.8453502 L4.5,41.2258492 C4.74752687,41.2011103 5.00439163,41.2144405 5.28367394,41.2710869 L5.87721308,41.4491486 L5.97607152,41.6253745 L6.20412157,42.0319305 L6.27379885,42.1538658 L7.03721103,42.0371658 L7.03721103,42.0371658 Z M9.45105096,44.2297626 L9.4899427,44.1944176 L9.71511267,43.9965409 L9.68786231,43.9714229 L9.45105096,44.2297626 L9.45105096,44.2297626 Z M74.7704794,35.438339 L74.6801979,35.2803463 L74.6649792,35.2698506 L74.4061549,35.4177502 L74.5543995,35.3953737 L74.5419785,35.3130842 C74.5290719,35.3730304 74.5227131,35.396218 74.5295656,35.3876525 L74.7361343,35.5529074 C74.7472378,35.514718 74.7586843,35.4765327 74.7704794,35.438339 L74.7704794,35.438339 Z M73.6152897,34.42 L73.95,34.42 L73.95,34.3973525 L73.7484413,34.3423819 L73.6799131,34.3234706 L73.5865365,34.3626749 C73.5954129,34.3820518 73.6049983,34.4011659 73.6152897,34.42 L73.6152897,34.42 Z M17.9927755,39.2532801 L18.1306949,39.2162773 L18.0796671,39.0272855 L17.9721634,39.0563114 L17.8870289,39.1283069 L17.9927755,39.2532801 L17.9927755,39.2532801 Z M56.2084736,42.8628619 L56.2612476,42.7639108 L56.2638177,42.7073694 L56.0497057,42.5931764 L55.9339698,42.6550566 L55.8570537,42.7992743 L55.9233062,42.9231377 L56.2084736,42.8628619 L56.2084736,42.8628619 Z M58.4388728,39.5115368 L58.7870516,40.1563123 L58.6828106,40.3257038 L59.0976949,40.7405881 L58.9004633,41.0743647 L58.7813459,41.2757643 L58.9429292,41.6136203 L58.9268434,41.7560952 L58.8560169,42.3829863 L58.7968055,42.8492755 L59.0861529,43.3649379 C59.4223523,43.8015257 59.6294342,44.3189873 59.6910816,44.8421894 C60.0284392,44.5632529 60.335968,44.2550032 60.6055261,43.9260597 C61.0159801,43.3612582 61.6512028,43.0022193 62.310661,42.9463348 L63.227507,42.7989846 L63.3938773,43.1198414 L63.5483623,43.4202402 C63.6155522,43.5744118 63.6699017,43.7337095 63.7128466,43.9199794 L63.7960899,43.8942777 L64.6859632,43.6063775 L66.728821,44.7708064 L67.4670296,44.6653481 L67.6337251,44.7928211 L67.9818927,45.0592022 C68.2392649,45.2646089 68.4632816,45.5086271 68.6497851,45.7883744 L68.7220134,45.9 L70.03,45.9 L70.2446794,45.948433 L70.8575843,46.2398255 L71.694768,46.6444643 L71.8887381,47.9214343 L71.7396283,48.0953957 L71.5183862,48.3521398 C71.3870746,48.5252805 71.2949497,48.7248845 71.2489012,48.9347645 C71.1358565,49.4623066 71.0002251,49.7801927 70.6221995,49.843197 C70.8023691,49.8131687 70.830395,49.7809167 70.8617405,49.7246791 C70.8370871,49.7689102 70.8106435,49.8345994 70.7898687,49.9104494 L70.7342594,50.1004478 L70.9560251,50.4426499 C71.0429686,50.5730652 71.1314974,50.6898778 71.2011176,50.7675699 C71.1562369,50.7174857 71.1647914,50.7242392 71.02,50.75 L71.5718482,50.75 L71.7000627,51.6218586 L71.8699735,51.7229007 L71.8900976,51.7353267 C71.9207125,51.6866354 71.9612171,51.6248491 72.0089838,51.5502865 L72.1765248,51.2887591 L72.2683523,51.2989622 L72.3154822,51.2262474 L72.2739977,51.1112231 L72.0900864,50.6383084 L72.1027305,50.5178174 L72.272421,48.9008564 L72.4267596,47.3381774 L72.1466777,45.2114438 C71.9576953,44.0667381 71.8464533,42.9106019 71.8146064,41.7106197 L71.8013793,41.6915139 L71.8137885,41.6791047 C71.8128334,41.6414469 71.8119563,41.6037456 71.8111573,41.566 C71.8250454,41.3622364 71.8250454,41.1577636 71.81,40.92 L71.81,40.1557932 L71.9182512,40.0193026 L72.0154814,39.897874 L71.81,39.7817324 L71.81,38.4836404 L73.481007,38.2162793 L73.4966969,38.3229706 C73.5545688,38.1790034 73.5964236,38.0415098 73.62,37.93 C73.62,37.7943451 73.6231013,37.7412778 73.6523369,37.6438261 C73.6912755,37.5140305 73.7691228,37.4031079 73.8762977,37.3271821 C73.970654,37.1822358 74.0378946,37.0150668 74.0802155,36.8092632 L74.1007619,36.7392186 L73.9975645,36.6521457 L73.7038048,36.4028255 L73.16,36.0029691 L73.16,35.5617008 C73.1153322,35.4418756 73.0509173,35.3310897 72.9725426,35.2379114 C72.766843,35.0011315 72.6226201,34.7173381 72.5526135,34.4115994 L72.54,34.3 L72.54,33.728657 L72.7675058,33.5807782 L72.9626499,33.4539749 L73.38,33.1796204 L73.38,33.1029098 L72.9861065,32.1865551 C72.8397055,31.8225099 72.655179,31.474985 72.4884256,31.2153462 C72.3184783,31.0374128 72.2038783,30.8139428 72.1647819,30.600679 C72.1530827,30.5536394 72.1318039,30.5097833 72.101216,30.4705519 L71.6221583,30.7523505 L71.2543902,30.0168143 C71.0151961,29.9849811 70.7835494,29.9161942 70.5769308,29.8169058 L70.4102255,29.7463967 C70.390081,29.7651024 70.3714414,29.784349 70.3554382,29.8025333 L70.3574877,29.8168798 L70.2847447,29.958478 C70.1161079,30.2867385 69.8875731,30.580569 69.6365118,30.80057 L69.2208583,31.2232685 L69.3788141,32.2973675 L68.95,32.0686667 L68.95,32.6615947 L68.1593809,32.0968667 L67.87,31.89 L67.4289678,31.5592259 L67.3674649,31.1825204 L66.82,31.0292302 L66.82,30.4315296 L66.662899,30.6767517 L66.1872222,31.4308733 L66.0807119,31.4926009 L65.2159233,31.9934204 C64.8153407,32.2450007 64.3856758,32.4469799 63.8649535,32.6127301 L63.076862,32.7486079 L63.0140358,32.3590855 L62.9268267,32.3588983 C62.8271411,32.3522699 62.727286,32.3576327 62.6383094,32.3709509 L62.7064629,32.5883982 L62.9785156,33.4434211 L62.8860179,33.6259824 L62.5047835,34.3784023 L62.0492535,35.2654872 L61.9009249,35.3385445 L61.2226806,35.6725119 L60.2281368,36.1399071 L59.6852673,36.4031165 L59.4704709,36.3039797 L59.0902073,36.128348 L58.4,35.8274884 L58.4,35.4559347 L58.3545557,35.5373081 C57.9677258,36.2170236 57.8166311,36.4918655 57.7346817,36.6682124 C57.7086774,36.7241711 57.6957967,36.7512933 57.6902541,36.7746175 L57.8256606,36.8545108 L58.47,37.2179843 L58.47,37.9903201 L58.7018859,38.2080089 L58.47,38.2385202 L58.47,38.54 L58.4230916,38.7514427 L58.2772136,39.0636068 L58.2412286,39.1355769 L58.3371029,39.32 L58.4895737,39.32 L58.4388728,39.5115368 L58.4388728,39.5115368 Z M53.6963231,43.5090331 L53.83,43.7 L54.2268977,43.3976018 C54.223447,43.3925602 54.2200243,43.3875023 54.21663,43.3824282 L54.150315,43.2953898 L53.6963231,43.5090331 L53.6963231,43.5090331 Z M56.8140374,47.9625376 L56.9277517,47.8886267 C56.9220321,47.865583 56.9172285,47.8422854 56.9133605,47.8187876 C56.9064631,47.7805777 56.8985831,47.7427342 56.8897333,47.7052789 L56.7764837,47.7872872 L56.8140374,47.9625376 L56.8140374,47.9625376 Z M55.6905847,47.642006 L55.6862696,47.6493417 L55.7191379,47.8054659 L55.7964899,47.8509671 L55.9168669,47.9351219 C55.9080268,47.8969624 55.8973724,47.8597176 55.8855299,47.8242836 L55.7653868,47.841442 L55.7216519,47.6373459 L55.6905847,47.642006 L55.6905847,47.642006 Z M45.41,53.9664945 L45.5275471,54.0810175 C45.568402,54.125315 45.6148705,54.1637108 45.6655897,54.1953323 L45.5155425,53.83 L45.41,53.83 L45.41,53.9664945 L45.41,53.9664945 Z M44.6980434,53.95 L44.6071165,53.7499608 L44.57,53.8294961 L44.57,53.95 L44.6980434,53.95 L44.6980434,53.95 Z M72.5743303,51.3410271 L72.5752158,51.3330581 L72.3447697,51.307453 L72.3997231,51.4598222 L72.5222689,51.4155696 L72.5743303,51.3410271 L72.5743303,51.3410271 Z M62.77,44.9866807 L62.6814229,44.8978623 L62.33,44.5144918 L62.33,44.32 L62.3329296,44.1934636 L62.1095291,44.2939797 L61.8431689,44.4169151 L61.6272549,44.7281443 C60.9410643,45.5170313 60.1416218,46.199741 59.2550404,46.7539735 L59.1334243,46.83 L58.29,46.83 L58.29,46.3264563 C58.2492325,46.3664084 58.2057974,46.4035447 58.16,46.4376056 L58.16,46.769017 L57.9704181,46.6742261 C57.9894422,46.8400204 58.0331002,47.0848437 58.0895669,47.3483918 L58.2694842,48.2152658 L57.9798331,48.4009396 L57.5924942,48.6492218 L57.3834445,48.7851041 L57.3363978,49.1199101 L57.3339732,49.14 L57.3782378,49.14 L57.4934408,49.4792088 L57.6706697,50.0012694 L57.9267821,50.7156882 L57.850012,50.895931 L57.6186725,51.4390466 L57.8577528,51.5052892 L57.8881433,51.8569506 L57.9570346,52.655625 C57.9926198,52.9809046 57.9926198,53.3090954 57.9570346,53.634375 L57.9379092,53.8091976 L57.8135534,53.9335534 L57.3096471,54.437417 L56.7140382,55.0200778 L56.5245605,55.0293964 L55.3003084,55.0895874 L54.3430703,55.1284995 L54.3048201,55.1936814 L54.0134094,55.6631764 L53.807048,55.7084063 L53.0582419,55.8721518 C52.7598741,55.9256486 52.4690923,56.0150256 52.232229,56.1179258 L52.2755137,56.4281326 L52.1362127,56.5975527 L51.8279754,56.9723802 L51.7511496,57.1031996 C51.6749827,57.2328969 51.5902847,57.357237 51.4976648,57.4754171 L51.4968116,57.583346 L51.673839,57.4350258 L51.9304494,57.5101313 L52.3295643,57.6270786 L52.6470707,57.7122632 L54.5712917,57.4873543 L54.6790462,58.1919033 L54.6999469,58.1835443 C55.0966503,58.0304158 55.5058781,57.9119551 55.9362927,57.8270567 L56.2395708,57.7755567 L56.4225119,57.4706549 L57.8251895,57.2594991 L58.0019706,57.4252314 L58.3335534,57.7364466 L58.79,58.1928932 L58.79,58.687927 L58.8090087,58.7019878 L59.3194223,59.0635308 L59.2483722,59.3872036 L59.1578049,59.7997561 L59.1058331,60.0307419 L59.2452173,60.3224445 L59.3115253,60.4521775 L59.600326,60.4088574 L60.6214171,61.3980394 L60.5568441,61.6739422 L60.4544687,62.1041667 C60.4175934,62.3500138 60.4175934,62.5999862 60.4549747,62.8492893 L60.4983492,63.1529106 L61.0523687,63.9562389 L61.0743185,63.9527113 L61.0993984,63.9119566 L61.5083636,63.2184938 L62.010487,63.3691308 L63.4013079,62.5862348 L64.9013079,61.7262348 L65.0763443,61.6654549 L66.374635,61.4720925 L66.8273843,61.1675338 L67.175631,60.9289203 L67.2218267,60.4672994 L67.292667,59.6408285 L67.8371205,58.8147612 L67.6761639,57.7417177 L67.8714717,57.5620345 L68.3711595,57.102322 L68.7749424,56.7302083 L69.008518,55.865185 L69.2347481,55.0572205 L69.0461227,54.7001586 L68.6023779,53.8443649 L68.8470237,53.5861277 L68.9243941,53.5045672 L68.67,53.1356957 L68.67,52.2537766 L68.7918184,52.112924 L69.1075444,51.7479321 L69.5388526,51.2357536 L69.7080229,51.2005098 L69.9061924,51.159267 L69.44,50.5111458 L69.44,49.9 L69.4502509,49.7992736 C69.6145279,49.0005305 69.9315912,48.2410532 70.356252,47.6095924 L70.4057134,47.5143333 C70.1703261,47.4147636 69.9250133,47.3397677 69.6731835,47.290537 L69.0734293,47.1721645 L68.1740392,47.5918799 L67.9596157,47.1471496 L67.6881311,46.5840432 L67.5048227,46.1970587 L67.2945066,46.1181902 C67.1442728,46.0618775 66.9845384,46.0352551 66.81,46.04 L66.4248254,46.04 L66.3080645,45.9718895 L65.6808163,45.6047969 C65.5075264,45.4881622 65.3169344,45.3997253 65.1161369,45.3427035 C64.9083194,45.313067 64.724462,45.2001016 64.61065,45.0457476 L64.1810446,45.131641 L63.1124265,45.3295333 L62.9767544,45.1938612 L62.77,45.2577119 L62.77,44.9866807 L62.77,44.9866807 Z M62.4254701,43.9388224 C62.3968399,43.9414653 62.3683874,43.944974 62.3401401,43.9493375 L62.338359,43.9589554 L62.3332997,44.177479 L62.357382,44.1824616 L62.5051823,44.1159608 L62.4254701,43.9388224 L62.4254701,43.9388224 Z M57.6781594,45.4805845 L57.9379249,45.0430847 L57.9,45.02 L57.5939134,45.4153619 L57.6781594,45.4805845 L57.6781594,45.4805845 Z M58.4346095,46.08 L58.29,46.08 L58.29,46.1633762 C58.297073,46.1787832 58.3031147,46.1950978 58.3077211,46.2119359 L58.4163325,46.1822234 C58.4345775,46.1578793 58.451977,46.1328256 58.4684856,46.1071009 L58.4346095,46.08 L58.4346095,46.08 Z M70.5618253,58.6584971 L70.4801388,58.5169072 L70.436472,58.5420996 L70.3987131,58.5755017 L70.5255751,58.718911 L70.5618253,58.6584971 L70.5618253,58.6584971 Z M70.2024458,59.2574335 L69.9147796,59.2306391 L69.7844016,59.7 L70.0731619,59.7 L70.1185639,59.4578557 L70.1711556,59.3193467 L70.0653511,59.2876053 C70.1042343,59.2730164 70.14882,59.2634028 70.2004575,59.260747 L70.2024458,59.2574335 L70.2024458,59.2574335 Z M69.7497902,52.94 L70.1,52.94 L70.1,52.8639409 C70.0928643,52.8424155 70.0861108,52.8207952 70.0797231,52.7990542 L69.7245527,52.9034056 L69.7497902,52.94 L69.7497902,52.94 Z M68.7562357,59.9008711 L68.7442777,59.8639101 L68.6908372,59.6983206 L68.5078821,59.6142005 L68.4825839,59.6525839 L68.7435534,59.9135534 L68.7562357,59.9008711 L68.7562357,59.9008711 Z M69.5066238,60.7 L68.7404439,60.7 L68.6006481,60.4875103 C68.5812034,60.572654 68.564422,60.6594453 68.5502903,60.7480581 L68.314355,61.9277349 L68.1708289,62.0416445 L67.5339553,62.5470028 L66.7594283,63.14 L65.6327724,63.14 L65.0037629,63.4389483 L65.2714391,63.6620118 L65.1602901,63.9627678 L65.2481416,64.010354 L65.4578233,64.1252369 C65.5453615,64.1652412 65.6425854,64.1791303 65.7385183,64.1651023 L65.9700009,63.3677733 L66.4520442,63.5106009 L66.7270429,63.5921105 L67.4761753,63.8226128 L67.4367233,63.9409691 L67.5500329,63.9303988 C67.7086995,63.9240576 67.8667532,63.9086196 68.0234201,63.8842011 L67.9076072,63.6420468 L68.0613647,63.4066055 L68.3852815,62.9106998 L68.7887523,62.3116069 L68.9063932,62.2527864 C69.4046233,62.0036714 69.5671309,61.9070943 69.6133164,61.8579312 C69.6176108,61.85336 69.6228307,61.8469643 69.6317337,61.8349109 L69.6883794,61.7556916 C69.659435,61.4932662 69.6432914,61.2287278 69.64,60.96 L69.64,60.7442532 L69.4488098,60.9081305 L69.5066238,60.7 L69.5066238,60.7 Z M62.1302663,63.8527084 L62.14,63.8458743 L62.14,63.37 L62.0133844,63.37 L62.010487,63.3691308 L61.94,63.37 L61.94,63.4088081 L61.8947324,63.4342893 L61.94,63.5147059 L61.94,63.87 L62.0095318,63.6382272 L62.1302663,63.8527084 L62.1302663,63.8527084 Z M68.3726013,63.8143138 C68.3664128,63.8158312 68.3602212,63.8173343 68.3540265,63.818823 L68.2759142,63.875632 L68.3651972,63.9983962 C68.3720831,63.9409208 68.374599,63.880111 68.3726013,63.8143138 L68.3726013,63.8143138 Z M63.1408235,64.3629751 L63.0399541,64.3790225 C63.0340104,64.3861759 63.0281346,64.3933792 63.0223262,64.4006322 L63.0635194,64.4177313 L63.1408235,64.3629751 L63.1408235,64.3629751 Z M43.1427026,66.99 C43.1491476,67.0069086 43.1556592,67.0238054 43.1622379,67.0406915 L43.26,66.99 L43.1427028,66.99 L43.1427026,66.99 Z M57.1633143,70.7734097 L57.1183713,70.7466868 L56.9127027,70.9597007 L56.9365526,70.9827282 L57.1633143,70.7734097 L57.1633143,70.7734097 Z M63.8422435,65.51 L63.8673614,65.5872858 L63.9550614,65.5624252 L63.9105,65.51 L63.8422435,65.51 L63.8422435,65.51 Z M56.7089064,72.1094154 L56.5581506,72.1335364 L56.5923036,72.3823652 L56.7475358,72.4521974 L56.9071524,72.2368593 L56.7089064,72.1094154 L56.7089064,72.1094154 Z M45.7043904,70.35 L45.36,70.35 L45.36,70.4557364 L45.4030942,70.5530692 L45.711251,70.4161107 L45.7043904,70.35 L45.7043904,70.35 Z M56.7222472,73.12 L56.7,73.1235596 L56.7,73.29 L56.706742,73.3359541 C56.7067444,73.2791834 56.7209644,73.2227695 56.7488292,73.1721061 C56.7590354,73.1535493 56.7708735,73.1361254 56.7841346,73.12 L56.7222472,73.12 L56.7222472,73.12 Z M56.1394868,80.3120064 L56.0641565,80.2658211 L55.9332894,80.483315 C55.9133072,80.5513475 55.8913207,80.6187494 55.867363,80.6854334 L55.9090538,80.7032032 L56.1394868,80.3120064 L56.1394868,80.3120064 Z M45.9076706,85.8950883 L46.1249164,85.5729651 L46.2990166,85.8010964 L46.4340711,85.6573287 L46.7982025,85.9917351 L47.2919706,86.4452314 L47.671451,86.8009943 L47.8568484,86.84155 L47.9523599,86.8727796 C48.3670181,87.0563021 48.749634,87.3050024 49.0636648,87.590623 L49.6110109,88.0315408 L50.0853638,87.956643 L50.2636083,88.2190585 L50.6224666,88.7473849 C50.8140094,89.0269347 51.0425605,89.2792314 51.2769261,89.477713 L51.8811218,89.9236669 C51.9544652,89.6034644 52.0193959,89.3255736 52.0725477,89.1053554 C52.074237,89.0803858 52.0755116,89.0554459 52.0763794,89.0303838 L52.1006349,88.88 L51.95,88.88 L51.95,88.17 C51.95,87.9816039 51.9565428,87.8524177 51.9853326,87.692311 C51.9982654,87.6203889 52.0150535,87.5513202 52.0365928,87.4850159 C52.0449731,87.3547691 52.0434213,87.2240433 52.0319375,87.0939739 L52.0533729,86.8989153 C52.1559531,86.5753053 52.3479561,86.2873009 52.5723119,86.1006302 L52.85,85.8163305 L52.85,85.73 C52.8499999,85.712646 52.8499999,85.712646 52.8500267,85.6945011 C52.8502997,85.5716771 52.8535568,85.4943408 52.8665802,85.4097177 C52.8883415,85.2683176 52.9302498,85.1456517 53.0205766,85.0455313 C53.1502353,84.7918791 53.2493102,84.5205154 53.323047,84.2099474 L53.7131428,82.97 L54.08,82.97 L54.3406028,82.9735406 C54.5797675,82.9449265 54.8216453,82.9721528 55.0474538,83.0522536 C55.1182924,82.809321 55.1840374,82.5897775 55.2423867,82.4016192 L55.3225214,82.1211475 L55.087931,81.8748276 L54.8875003,81.6643747 L54.3750112,81.1249126 L54.7713534,80.6955419 C54.8860825,80.4815189 54.9705693,80.250885 55.0268825,79.9911687 L55.0299904,79.9795141 L54.371863,80.0799064 L54.1960451,79.9221211 L53.8045433,79.5707679 C53.5985914,79.3844304 53.2325429,79.0122811 52.9417351,78.6982025 L52.5733398,78.297061 L51.6823911,77.9673918 L50.7677859,77.6198418 L50.145,77.6187735 C49.7954298,77.5942434 49.4445702,77.5942434 49.1260819,77.615614 L48.813103,77.6573445 L47.9826175,78.3180234 C47.5816063,78.6229126 47.2165373,78.9723803 46.9216794,79.3237606 C46.6971257,79.6495427 46.4432942,79.9541405 46.171154,80.2257857 L45.7776321,80.6367975 L45.094448,82.0885114 C44.9779705,82.3423727 44.8376193,82.632984 44.6662439,82.9775871 C44.6279796,83.0544365 44.6279796,83.0544365 44.5896662,83.1310525 C44.6336005,83.0432804 44.1638393,83.9723135 43.9418409,84.42 L44.2057676,84.42 L44.3464698,84.541295 L45.2189458,85.2934437 L45.9076706,85.8950883 L45.9076706,85.8950883 Z M29.6620128,48.5748188 L29.6673501,48.6341228 L29.6864671,48.6905196 L29.6620128,48.5748188 Z M48.0692557,13.6965627 L47.922396,13.7205943 L48.0783922,13.7523966 L48.0692557,13.6965627 Z M57.0496699,78.0032233 L57.0989151,77.9539781 L57.0389151,77.5439781 L57.2164466,77.3664466 L57.3,77.2834244 L57.3,76.2246752 L56.8972555,75.5869965 L56.8305546,75.4221919 L56.6393037,74.5060058 L56.4864537,73.7247727 L56.4530909,73.7294435 L56.2862883,73.9192523 L55.7266664,74.5588202 L55.3660329,74.3346427 L54.999275,74.1066409 L54.7951544,73.9819005 L54.0100118,74.1022046 L53.9965515,74.1271402 C53.8090361,74.3556965 53.5615127,74.5274474 53.3075964,74.6134734 L53.2520989,74.6359367 L53.3976161,75.6209765 L52.9036557,75.6945451 L52.4321534,75.7647665 L51.9521534,75.8347665 L51.7866697,75.8312122 L50.7855486,75.6409979 C50.2031772,75.5289693 49.6115949,75.4717194 49.02,75.47 L48.6989071,75.47 L48.7933636,76.1123045 L48.9471726,76.0927986 C49.454297,76.0389169 49.965703,76.0389169 50.4703753,76.0925441 L51.2603753,76.1725441 L51.4069596,76.2104275 L52.1740285,76.5391823 L52.9340285,76.8591823 L53.0733974,76.9473793 L53.6451431,77.4589487 C53.936378,77.7219995 54.3172083,78.1060848 54.5104344,78.3276525 L54.6003124,78.44 L56.2225366,78.44 L56.3629158,78.7079965 L56.4772136,78.9263932 L56.6545817,79.2811295 L57.120119,78.4963667 L57.0496699,78.0032233 Z M56.5755824,73.5900573 L56.4361171,73.4674969 L56.4811259,73.6975417 L56.5755824,73.5900573 Z M51.65,73.7009277 L52.0660771,73.9701541 C52.0806545,73.9469565 52.0957251,73.924467 52.1112535,73.9027521 L52.472204,73.3011681 L52.87,73.2404873 L52.87,72.7538881 L54.8458936,72.5280717 L54.9684556,72.5810715 L55.3430692,72.7430942 L55.383947,72.7612621 L55.445576,72.6976623 L55.8724495,72.2432485 L56.2027628,72.1903984 L55.7645642,71.9712991 L56.0560008,71.5050005 L56.18,71.306735 L56.18,70.461743 L55.1393458,70.6199225 L54.9792385,70.2863655 L54.8663916,70.0506764 L54.68,69.692231 L54.68,69.2216693 L54.3821336,68.8092144 L53.9242736,68.1635144 L53.9060614,68.0476189 L53.7948867,67.3397343 L53.7146335,66.769936 L53.510623,66.5236648 L53.400542,66.3870124 L51.9175869,66.6094557 L51.7698427,66.5285481 L51.3419305,66.2941216 L51.0369918,66.1198708 L50.6524133,66.1194974 L49.0999461,66.1891024 L48.2543148,66.2398403 L47.4080638,66.8964144 L47.4061336,67.1420603 C47.361164,67.5015641 47.2578271,67.8513196 47.0911765,68.1952941 L46.9296292,68.4981952 L47.0394993,69.2073561 L46.961894,69.3539439 L46.7764717,69.7039107 L46.663659,69.9057862 L46.7578306,70.8134738 L46.8578306,71.8834738 L46.851106,72.0238879 L46.7636409,72.4813976 L47.049132,72.3642731 L47.2826346,72.6604227 L47.6795662,73.1645319 C47.8659644,73.3819125 48.0232551,73.6224321 48.1476122,73.88 L48.38,73.88 L49.5171935,73.8822322 C50.0024913,73.9282435 50.4843725,74.0050651 50.9760339,74.1161452 C51.2022277,74.1750639 51.4315251,74.2209306 51.65,74.2530119 L51.65,73.7009277 Z M52.15,74.29 L51.96,74.29 C51.9449058,74.2886372 51.9297159,74.2871974 51.9144357,74.285681 C51.8710907,74.4071317 51.8398616,74.5368735 51.8236833,74.6694216 L52.15,74.7092505 L52.15,74.29 Z M59.1386791,68.3262268 L59.2050326,68.3641431 L59.935565,67.5386416 L60.0389366,67.4498517 L61.2789366,66.6498517 L61.4783779,66.5751563 L61.86,66.5199215 L61.86,65.91 L62.5075975,65.91 C62.6172724,65.8736293 62.720095,65.8183821 62.812178,65.7459878 L62.8562688,65.7115419 L62.8333847,65.6411219 L62.6347434,65.0146379 L62.7526062,64.8205109 L62.9304099,64.5280732 C62.9370166,64.517879 62.9437341,64.507768 62.9505634,64.4977406 L62.8073152,64.5992065 L62.0847098,65.1065677 L62.014607,65.06882 L61.8423731,65.4132877 L60.3852195,65.6458122 L60.2036033,65.4502255 L59.9344129,65.160052 C59.7183026,64.9141264 59.5238591,64.6499768 59.3538386,64.3715081 L59.01,63.8111785 L59.01,62.0603268 L58.9567433,62.047004 L58.2784179,61.8892539 L57.5703749,60.2109297 L57.6198269,60.0405949 L57.7086745,59.7346272 L57.7167999,59.7057371 C57.5904661,59.5369067 57.4926596,59.3492013 57.429818,59.1623973 L55.68,59.4294748 L55.68,59.7505937 L53.8481256,60.0253749 L53.7094027,59.6389324 L53.5733272,59.2594895 L53.5466005,59.19 L51.6576995,59.19 C51.3966268,59.5073495 51.1533018,59.8388816 50.9292218,60.1824942 L50.5831334,60.714938 L50.3909678,61.4466383 C50.3052888,61.7482287 50.2578729,62.0593959 50.25,62.36 L50.25,63.12 L49.9242602,63.12 C49.8633855,63.2590412 49.8210452,63.4145188 49.7964031,63.5958103 L49.5622298,64.579338 L49.490188,64.6482476 C50.2339303,64.5841685 50.9950802,64.6480759 51.7804094,64.8519213 L52.0045892,64.95 L53.8971068,64.95 L54.0435534,65.0964466 L54.447891,65.5008381 L54.9613516,66.0271352 L55.1853739,67.564743 L56.13,68.7557932 L56.13,68.9736398 C56.3328958,68.9613105 56.5398384,68.9688465 56.7568927,68.9976082 L57.4460553,69.1192251 L57.5657385,69.8492932 L57.7118691,69.9361982 C57.9007169,69.7061338 58.3159117,69.2371479 58.8689487,68.6248569 L59.1386791,68.3262268 Z M57.58,58.4546512 L57.2584018,58.5443995 L57.3604299,58.91 L57.58,58.91 L57.58,58.4546512 Z M45.2248615,68.6277547 L45.2561519,68.6590452 L45.3882249,68.5458398 L45.8034876,68.7949974 C45.8069696,68.7248692 45.805856,68.6505777 45.8,68.57 L45.8,68.1635451 L45.869317,68.0460075 L46.0964116,67.6609998 C46.2053168,67.4713613 46.2759156,67.2621796 46.3,67.11 L46.3,66.5133986 L46.4222528,66.3724224 L47.5349949,65.0892869 L48.5737838,63.9113744 L48.9938546,62.2031126 L49.4338546,60.3731126 L49.5071777,60.2079047 L49.9139749,59.6126499 L50.2158995,59.1597629 L50.1615111,58.5688433 L50.1247868,58.0975483 L49.8311963,57.9687778 C49.6940995,57.9093692 49.515359,57.8407909 49.0320245,57.659589 L49.0271964,57.6577789 C48.7141983,57.5404336 48.5645643,57.4836477 48.4304137,57.4303621 L46.9578727,56.8994382 L46.03,56.5592182 L46.03,56.0744554 L45.9795837,56.0484062 L45.4541955,55.7602901 L45.3600012,55.1608718 C45.1458172,55.069003 44.9551918,54.9352326 44.8116072,54.7786397 L44.367212,54.3469415 L43.1069164,54.5304023 L42.9486436,54.96 L42.6,54.96 L42.0937112,54.9506409 C41.6951338,54.8724197 41.3037694,54.7611142 40.9236954,54.6178853 L40.3921989,54.4176113 L39.9222991,54.5593234 L39.4542454,54.6982769 L38.9754379,55.408229 C38.5432792,56.053507 38.4608699,56.1946377 38.3929531,56.4227039 C38.3211675,56.6637618 38.2999519,56.8815929 38.2395727,57.9006678 C38.2108769,58.5942893 38.1348829,59.2851443 38.0050713,60.0012678 L37.9151194,60.3610753 L38.0350108,60.5109911 L38.5436112,61.1248191 L38.3764717,61.4239107 L38.191894,61.7539439 L38.1262444,61.8779486 L38.8260566,63.4350307 L38.8668734,63.5841715 L38.9659326,64.4663535 C39.0132218,64.8348299 39.0379967,65.2058077 39.0401457,65.574282 C39.3914048,65.5970301 39.745142,65.5959676 40.13,65.57 L40.5334726,65.57 L40.5389028,65.5566367 L40.8843169,64.7329569 L41.3718431,65.0023792 L41.7296762,65.2008426 C41.9328227,65.3001985 42.1492989,65.369582 42.29,65.4 L42.9916106,65.4 L43.1322846,65.6667954 L43.4238773,66.2198414 L43.76,66.8680781 L43.76,67.2058083 L44.0013764,67.1680932 L44.2681153,68.9844585 L44.3907645,69.1658486 C44.5613394,69.0808542 44.7250693,68.9827303 44.8804723,68.8723559 L45.2248615,68.6277547 Z M60.9787165,64.1080646 L61.2316064,64.2161335 L61.062821,63.9713947 L60.9787165,64.1080646 Z M56.1212535,57.9727521 L56.55,58.23 L56.4662927,57.7370567 L56.2395708,57.7755567 L56.1212535,57.9727521 Z M66.2809117,61.5351389 L66.4863443,61.4554549 L66.374635,61.4720925 L66.2809117,61.5351389 Z M62.0836739,63.3910869 L62.0095318,63.6382272 L61.94,63.5147059 L61.94,63.4088081 L62.0089429,63.37 L62.0836739,63.3910869 Z M69.9610869,59.2563261 L70.0653511,59.2876053 C70.0063757,59.3097329 69.9605191,59.3433064 69.9230732,59.3814092 L69.9019072,59.4051388 C69.9191822,59.3751955 69.9419962,59.3199614 69.9610869,59.2563261 Z M69.714466,59.2119811 L69.9147796,59.2306391 L70.0429812,58.7691135 L70.436472,58.5420996 L70.5772326,58.4175806 L70.7114589,58.1154455 L70.9014589,57.6054455 L70.9485389,57.5109823 L71.1287336,57.2286773 C71.1255857,57.2197469 71.1223637,57.2108776 71.1190667,57.2020567 C71.1201241,57.2048858 70.9704317,56.8792854 70.9543802,56.7521107 C70.9047363,56.3587852 71.1025493,56.188788 71.4264726,56.104648 L71.4918644,55.9771342 L71.6559181,55.3865406 L71.5166054,53.0530524 L71.1395677,52.8268196 L70.7033411,52.5606475 L70.55,52.5828416 L70.55,53.1282354 L70.2347119,53.1772803 C70.2539693,53.2134944 70.2745715,53.2497975 70.2965989,53.2863169 L70.6799304,53.9731193 L70.5251326,54.2231773 L70.4057449,54.4158413 L70.4772136,54.5663932 L70.7694415,55.1508489 L70.7048143,55.3466887 L70.3733864,56.3509514 C70.0237739,57.3792232 69.6706622,58.0564651 69.24,58.3067778 L69.24,58.5762654 L69.2582224,58.5949074 C69.4095785,58.7813917 69.5220723,58.9962669 69.5843893,59.21146 L69.714466,59.2119811 Z M48.6996766,56.017374 C49.261206,56.2476011 50.1351703,56.5840567 50.5980951,56.764536 L50.9558848,56.202295 L50.8692883,55.6703456 L51.0996485,55.4879771 L51.3916175,55.2619363 C51.7720786,55.0322871 52.1836206,54.8586089 52.5953052,54.7513943 L53.2033468,54.5675678 L53.3610248,54.0720081 L53.6802461,54.0335834 L54.7610911,53.9034824 C55.3211157,53.8370388 56.001944,53.772198 56.27,53.76 L56.3769048,53.76 L56.64,53.321508 L56.64,52.7969007 L56.4990589,52.6815554 L55.8390763,52.1574516 L56.024361,51.7932714 L56.3127864,51.2263932 L56.500507,50.850952 L56.4435964,50.7141954 C56.3712072,50.5523961 56.2818156,50.3987543 56.2164934,50.3033118 L55.8557734,49.9213729 L55.9264627,49.6527534 L55.9959709,49.391875 C55.8088262,49.3915372 55.6183728,49.4064887 55.4229788,49.4371853 L53.7089012,49.6198329 L53.6531566,49.1260952 L53.58,48.45 C53.5796781,48.4057807 53.5796781,48.4057807 53.578136,48.3596885 C53.5737079,48.2471769 53.5620354,48.125387 53.543547,47.9825886 C53.5425263,47.9747044 53.5060377,47.7132501 53.5,47.62 L53.5,46.9594063 L56.2008564,46.5542778 L56.3809697,46.7661758 L56.5829157,47.0080414 C56.6201337,47.0625456 56.6546635,47.1186826 56.6864362,47.176336 L56.5990388,46.2586636 L57.1455405,45.1236216 L57.2450885,45.1767139 C57.2693615,45.1135972 57.2986227,45.0512724 57.3329007,44.9900265 L57.7637577,44.28219 L58.2060866,44.6246381 L58.3457304,44.7327849 L58.3409376,44.7022857 L57.9387375,44.0230073 L57.6795044,43.5811326 L56.8034061,43.7591903 L55.97,43.9353575 L55.97,44.3960603 L54.8133696,44.5548135 L54.645099,44.4183779 L54.2699078,44.1141106 L54.197048,44.0533942 L53.7233188,44.3850046 L53.4322841,44.0030216 L53.1158421,43.5876354 L52.9751902,43.4074251 L52.7333573,43.4433732 L52.6637379,43.5407507 L52.2574743,44.1394549 L51.8941323,44.0116862 L50.9887689,43.6932912 L50.034384,43.368171 L50.0295508,43.3759026 L49.82,43.7276485 L49.82,44.38 C49.82,44.6119919 49.8000248,44.9051645 49.7592238,45.3488754 C49.7513434,45.433993 49.7513434,45.433993 49.7433908,45.5182965 C49.6945334,46.0348758 49.6993678,45.9828712 49.688079,46.1237872 L49.588825,47.2528008 L49.4144094,47.3866547 L48.9857238,47.7156425 L48.7148617,47.924945 L48.6565306,48.4787997 L48.539715,49.4652425 L47.4986755,50.1731493 L47.3123379,50.8017198 C47.1920225,51.2422968 47.0301176,51.6704453 46.8303446,52.0772321 C46.6944608,52.3589332 46.5934095,52.6561427 46.5264914,52.9754386 L46.4236407,53.4088809 L46.8225099,54.3800406 L46.86,54.57 L46.86,54.8827531 L47.62,55.0027531 L47.62,55.6844798 C47.9977938,55.7513612 48.3641336,55.8646899 48.6996766,56.017374 Z M58.4814996,35.31 L58.4,35.31 L58.4,35.4077684 C58.4040698,35.4166987 58.4080172,35.4256871 58.4118413,35.4347314 L58.4814996,35.31 Z M72.1744802,39.9024471 L72.1443575,39.9257238 C72.177084,39.9680757 72.1949975,39.9916244 72.2046461,40.0047932 C72.1925292,39.9788371 72.180258,39.9443947 72.1744802,39.9024471 Z M39.64,52.8696876 L39.64,53.14 L40.91,53.14 L41.11397,53.1834956 L41.5793631,53.391465 L41.9064696,53.5336852 L42.2491857,53.4804334 C42.3016431,53.4782478 42.3523751,53.4627951 42.3967969,53.4359095 L42.5734133,53.1611727 L42.8204418,53.1415673 L43.49,53.09 L43.8117547,53.09 L43.8227864,53.0663932 L44.1928157,52.3263346 L45.095002,52.759384 L45.3514589,52.0654455 C45.4458373,51.8125139 45.5035654,51.6578335 45.5468858,51.541327 L45.5604862,51.5047339 C45.7332171,51.0397698 45.8437537,50.7331641 45.9094928,50.5308167 C46.0392539,50.1699446 46.1908847,49.817315 46.371892,49.4590406 L46.7109962,48.8424876 L47.1438542,48.7771506 L47.2406318,48.3274388 C47.3382174,47.8618115 47.4925266,47.409906 47.7195367,46.9456353 L48.0993622,46.3028538 L48.3274664,46.2668373 L48.35,46.02 C48.35,45.8601987 48.359142,45.6645218 48.3773193,45.3854237 L48.3868555,45.2426677 C48.4140974,44.8422248 48.4168937,44.7982315 48.4208852,44.680261 C48.4546619,44.1133807 48.5316586,43.5499054 48.6516778,42.9925691 L48.8352219,42.1582777 L48.685156,41.8376462 L48.475156,41.3776462 L48.4344276,41.2363925 L48.1547449,39.1487196 L47.8647449,37.0587196 L47.8634824,36.9310911 L48.008731,35.716969 C48.0479305,35.5099681 48.0707089,35.3004494 48.0769726,35.0903638 C47.6690113,35.1158444 47.2073788,35.1458235 46.7012935,35.1801067 C45.250665,35.2783751 43.7326382,35.3916188 42.222768,35.5181675 L35.7543228,36.0734872 L35.6067356,35.972021 L35.1226848,35.6392065 L34.44,35.1598746 L34.44,34.8564804 C34.1530679,34.7469455 33.8862211,34.5908118 33.6651446,34.406312 L33.116289,33.9841154 L33.0858142,33.7860286 L33.0330013,33.4332796 C33.0315055,33.4268492 33.0299987,33.420422 33.0284807,33.4139979 L33.1003256,34.2122738 L33.0407615,34.3363655 L32.9172136,34.5936068 L32.6712157,35.0856025 L27.1196713,35.9250113 C27.1575668,36.0421594 27.204082,36.1871964 27.2556114,36.3457477 L27.4956114,37.0857477 L27.5179922,37.2847633 L27.4379466,38.1752679 L27.3756696,38.8603148 L27.7585461,39.3580712 L28.0719737,39.7717956 L28.5194188,39.6882734 L29.4286832,39.5207773 L30.89,40.1511493 L30.89,40.48 L30.8808459,40.6847619 C30.9289354,40.9326095 30.9289354,41.1873905 30.862493,41.5035553 L30.8403993,41.5673816 L31.1472136,42.1963932 L31.64296,43.187886 L31.592058,43.3727406 L31.4043319,44.0541877 C31.4033331,44.0580832 31.2493801,44.6555969 31.1989725,44.8531918 L31.1850434,44.9078502 C31.1149805,45.1830805 31.0590333,45.4075394 31.0224394,45.5566224 C30.960772,45.9071954 30.8534924,46.2481911 30.7033333,46.5709241 L30.5792523,46.7362883 C30.5679088,46.7462139 30.5542478,46.7583588 30.5391334,46.7720267 L31.0507241,47.2836173 L31.0845843,47.4168006 L31.2359251,48.0122 C31.3109435,48.3216511 31.4301999,48.8628918 31.5123116,49.2626544 L31.6444911,50.0076657 L31.5467252,50.3009632 L31.6835999,50.4267658 L32.1794348,50.8957988 L32.3736005,52.2145074 L33.6869709,52.0539886 L36.06,51.7524434 L36.06,52.32 L36.0505454,52.4832258 C36.1022307,52.7452172 36.1022307,53.0147828 36.0467086,53.2945197 L36.0006574,53.490237 L36.1343416,53.8618861 L36.2236229,54.1297299 L36.5227138,54.2238923 L37.2340737,54.4520644 L37.3307692,54.6161538 L37.5795073,55.0382663 L37.7032308,54.8537692 L38.2732308,53.9937692 L38.3776525,53.8795656 L39.64,52.8696876 Z M55.8120323,48.2467144 L55.7278407,47.8468042 L55.1164706,47.9341176 L54.768294,47.9880021 L54.8299346,48.3989395 L55.8120323,48.2467144 Z M52.2086042,23.1691745 L52.0799427,23.3155824 L52.1800451,23.4035512 L52.3106688,23.430034 L52.3188511,23.3896681 L52.2086042,23.1691745 Z M28.4424017,46.1460582 C28.8164561,46.0872942 29.1821727,45.9842983 29.5318674,45.8392571 C29.6758924,45.4738196 29.7903753,45.0937506 29.8765972,44.6922435 L30.1997603,43.469464 L29.8774672,42.7926359 L29.4094601,41.7966209 L29.4573183,41.6195455 L29.558518,41.245185 L29.5606754,41.2374752 C29.5427063,41.233145 29.5230478,41.228332 29.5017827,41.2232808 L29.1132878,41.1202107 L27.9272943,41.3051822 L27.7620232,41.1887412 L27.3263474,40.8817538 L26.8763474,40.5717538 L26.7374606,40.4273209 L26.4250487,39.9334698 L26.04,39.3124236 L26.04,39.17 L26.0409499,38.3291944 L26.0860417,37.5987063 L25.8449287,36.6712678 L25.6886657,36.0462156 C25.3570078,36.030216 25.0300366,35.9695986 24.7269822,35.8691095 L24.0569822,35.6691095 L23.869832,35.5654852 L23.2866026,35.0526207 L22.8954288,34.7026231 L22.5832743,34.7546017 L22.2617047,34.8022417 L21.9960251,35.1973501 L21.6655656,35.6930394 L21.5279216,36.2692362 L21.3238105,37.1809323 L21.0987501,37.2843384 L20.7436068,37.4472136 L20.4713076,37.5833632 L19.9007157,38.2341228 L19.2802779,38.962891 L19.338705,39.0335302 L19.684923,39.4351431 L19.7052298,39.5810985 L19.8649747,40.7292893 C20.0147295,41.7775728 20.0856362,42.2702835 20.133008,42.5866747 L20.2290723,43.1550553 L20.5604739,43.5277019 C20.9096131,43.964239 21.3480766,44.3210576 21.8680695,44.5858784 L22.3723295,44.874027 L22.6349897,44.7846351 L23.2673598,44.5784274 L23.4356953,44.6457617 L23.894486,44.8293752 L24.1207486,44.9249083 L24.5112287,44.6808582 L24.7869703,44.8953239 L25.3234568,45.3126161 L25.7390786,45.63 L26.8354919,45.63 L26.9791401,45.7625983 L27.3741302,46.1272682 L27.5761849,46.318961 L28.4424017,46.1460582 Z M17.0898398,39.2945388 L16.9495726,39.3864384 L17.1958822,39.3568813 L17.2592432,39.2487999 L17.0898398,39.2945388 Z M74.7613564,34.58 L74.87508,34.58 L74.8824855,34.5514043 C74.8952009,34.5020547 74.8952009,34.5020547 74.9118415,34.4421138 C74.9663082,34.253248 75.0382792,34.1025298 75.1808799,33.9421024 L75.422916,33.6933724 C75.4862406,33.5109894 75.576871,33.3721338 75.7468749,33.2395003 C75.593943,33.1255106 75.4511018,33.0009089 75.3213225,32.868363 L75.0206726,32.5758387 L74.5616492,32.3874832 L74.81529,34.0361484 L74.6957672,34.2021524 L74.5080811,34.4625416 L74.3888149,34.6194708 L74.4432911,34.6592803 L74.5210472,35.1744141 L74.5642504,35.2027439 C74.5912372,35.0656828 74.6080254,34.9961842 74.6408284,34.9071473 L74.7613564,34.58 Z M77.3077302,30.9258013 L77.6303916,29.9977592 L77.4537237,30.034132 L77.1496878,30.4032785 L76.5895784,31.1 L75.3674349,31.1 C75.6021913,31.2435239 75.8341489,31.4055852 76.0664602,31.5893775 C76.2237697,31.7493062 76.4060297,31.8826008 76.6070937,31.9845469 L76.7164209,32.0402823 L76.7494108,31.9896212 L77.0052578,31.5930199 C77.1261293,31.3802579 77.2273717,31.1569292 77.3077302,30.9258013 Z M73.9016889,30.3763408 L73.8704709,30.4439797 L73.9701816,30.49 L74.08,30.49 L74.08,30.4599087 L73.9016889,30.3763408 Z M59.69,34.8971238 L59.6189597,34.89 C59.5972963,34.8964419 59.5755872,34.9027415 59.5538338,34.9088984 L59.6455431,35.2329253 L59.69,35.2019643 L59.69,34.9027921 L59.6702632,34.8744521 L59.6591791,34.8778608 L59.69,34.8971238 Z M56.9986516,32.8031573 L57.121641,32.9210446 L57.071641,33.1910446 L57.0442552,33.1859732 C57.0350049,33.0578117 57.0197928,32.9301026 56.9986516,32.8031573 Z M56.5049933,31.573438 L56.7240817,31.8557249 L56.4633583,31.1852933 L56.5087752,31.0242699 L56.7725799,30.0889658 L56.5169015,30.2051832 L56.1922169,30.3527295 L56.1267536,30.3834154 L56.1,30.63 L56.1,31.0413589 L56.5049933,31.573438 Z M62.18,24.7268879 L62.18,24.6 L62.1181938,24.6 L62.18,24.7268879 Z M61.95,24.6065115 L61.95,24.8955556 L62.0134483,24.951954 L62.1469596,24.6404275 C62.1100942,24.624628 62.0722725,24.6112761 62.0321153,24.6 L61.955801,24.6 L61.95,24.6065115 Z M30.98,9.02 C30.9784546,9.06496272 30.9672414,9.10150401 30.9483846,9.13 L30.9707387,9.13 L30.98,9.12385743 L30.98,9.02 Z M33.6714303,7.15503321 L33.22,7.37 L33.72,7.37 L33.72,7.257083 L33.6714303,7.15503321 Z M51.8912894,20.6210412 L52.028404,20.4371476 L51.9381823,20.5129338 L51.8912894,20.6210412 Z M51.1973316,23.9695013 L51.2884556,23.9011583 L51.2622934,23.7325577 L50.9652437,23.6574792 L50.9071158,23.8874634 L50.917979,23.9032644 L50.9913355,24.0014662 L51.1973316,23.9695013 Z M49.5339693,30.9671229 L49.5921515,30.7885695 L49.5460019,30.8722645 L49.5339693,30.9671229 Z M75.2536209,26.6559236 L75.2590865,26.6588165 L75.6054524,26.0526761 L76.8362325,25.8624646 L77.2379147,25.598502 C77.2981811,25.3774777 77.4579334,25.2012589 77.684189,25.0975754 C77.8703629,25.0122596 78.0680877,24.9793069 78.3630427,24.9592757 C78.4421559,24.9542386 78.4460269,24.9539922 78.5127692,24.9502513 C78.5118692,24.8743542 78.515804,24.7920742 78.5229513,24.6979396 C78.5262843,24.6540412 78.5300795,24.632589 78.5356056,24.6244585 L78.4761607,24.5887916 L78.2310522,24.1394261 L78.1855411,24.0236916 L78.1614072,23.9291669 L77.9542857,23.9287229 C77.6451577,23.9065857 77.3348423,23.9065857 77.0607107,23.9249747 L76.5056211,24.0042733 L76.5117936,24.044675 L75.6237923,25.5009973 L75.1810892,25.1531592 L75.0468248,25.0476207 L75.5446874,25.5662276 L75.1911292,26.7100925 L75.208553,26.7343346 C75.2224405,26.7107555 75.2375571,26.6846438 75.2536209,26.6559236 Z M74.6812648,24.666829 L74.6537226,24.6710021 L74.6178068,24.7183456 L74.7912212,24.8499014 L74.8476013,24.8400962 L74.6812648,24.666829 Z M74.8712478,23.3056103 L74.9355318,23.7341702 L75.2415287,23.6882707 L75.1092427,23.5428653 L74.8880235,23.3005776 L74.8712478,23.3056103 Z M47.0112158,14.2847539 L46.7559085,14.3202132 C46.7329549,14.3497169 46.7121948,14.3825764 46.6940364,14.4188932 C46.6341863,14.5385934 46.63,14.587899 46.63,14.74 L47.0744444,14.74 L47.0112158,14.2847539 Z M45.2993763,12.9244598 L45.0762109,12.8661914 L44.9943478,13.18 L45.4287834,13.18 L45.3914552,12.9526374 C45.3615171,12.9416089 45.3307895,12.9321831 45.2993763,12.9244598 Z M19.4176431,5.74305395 L19.3508213,5.54730152 L19.2744192,5.79833694 L19.4599234,5.85479475 L19.4176431,5.74305395 Z" id="Shape"></path>
                </g>
            </g>
        </g>
    </g>
</svg>